<mxfile host="app.diagrams.net" agent="Mozilla/5.0 (Windows NT 10.0; Win64; x64; rv:138.0) Gecko/20100101 Firefox/138.0" version="27.0.4">
  <diagram name="Page-1" id="4ecRQdh0OrY1-X0KAGPU">
    <mxGraphModel dx="1365" dy="736" grid="1" gridSize="10" guides="1" tooltips="1" connect="1" arrows="1" fold="1" page="1" pageScale="1" pageWidth="1169" pageHeight="827" background="none" math="0" shadow="0">
      <root>
        <mxCell id="0" />
        <mxCell id="1" parent="0" />
        <mxCell id="ludaHOZH4W-YjEyEhBym-1" value="" style="rounded=0;whiteSpace=wrap;html=1;fillColor=none;dashed=1;strokeColor=light-dark(#000000,#787878);" parent="1" vertex="1">
          <mxGeometry x="200" y="233" width="160" height="547" as="geometry" />
        </mxCell>
        <mxCell id="ludaHOZH4W-YjEyEhBym-2" value="&lt;font style=&quot;font-size: 24px;&quot;&gt;Sources&lt;/font&gt;" style="rounded=0;whiteSpace=wrap;html=1;strokeColor=none;fillColor=default;" parent="1" vertex="1">
          <mxGeometry x="234" y="220" width="90" height="30" as="geometry" />
        </mxCell>
        <mxCell id="ludaHOZH4W-YjEyEhBym-3" value="" style="rounded=0;whiteSpace=wrap;html=1;fillColor=none;dashed=1;strokeColor=light-dark(#000000,#787878);" parent="1" vertex="1">
          <mxGeometry x="400" y="234" width="640" height="546" as="geometry" />
        </mxCell>
        <mxCell id="ludaHOZH4W-YjEyEhBym-4" value="Data warehouse" style="rounded=0;whiteSpace=wrap;html=1;strokeColor=none;fillColor=default;fontSize=24;" parent="1" vertex="1">
          <mxGeometry x="635" y="221" width="180" height="30" as="geometry" />
        </mxCell>
        <mxCell id="ludaHOZH4W-YjEyEhBym-5" value="" style="rounded=0;whiteSpace=wrap;html=1;fillColor=none;dashed=1;strokeColor=light-dark(#000000,#787878);" parent="1" vertex="1">
          <mxGeometry x="1080" y="233" width="160" height="547" as="geometry" />
        </mxCell>
        <mxCell id="ludaHOZH4W-YjEyEhBym-6" value="Consume" style="rounded=0;whiteSpace=wrap;html=1;strokeColor=none;fillColor=default;fontSize=24;" parent="1" vertex="1">
          <mxGeometry x="1108" y="220" width="110" height="30" as="geometry" />
        </mxCell>
        <mxCell id="ludaHOZH4W-YjEyEhBym-7" value="Bronze Layer" style="rounded=0;whiteSpace=wrap;html=1;fillColor=#CD7F32;strokeColor=#CD7F32;fontSize=20;fontStyle=1;fontColor=light-dark(#000000,#FFFFFF);" parent="1" vertex="1">
          <mxGeometry x="440" y="263" width="150" height="30" as="geometry" />
        </mxCell>
        <mxCell id="ludaHOZH4W-YjEyEhBym-8" value="" style="rounded=0;whiteSpace=wrap;html=1;fillColor=none;strokeColor=#CD7F32;fontSize=20;fontStyle=1;fontColor=default;" parent="1" vertex="1">
          <mxGeometry x="440" y="303" width="150" height="457" as="geometry" />
        </mxCell>
        <mxCell id="ludaHOZH4W-YjEyEhBym-10" value="Silver Layer" style="rounded=0;whiteSpace=wrap;html=1;fillColor=#C0C0C0;strokeColor=#C0C0C0;fontSize=20;fontStyle=1;" parent="1" vertex="1">
          <mxGeometry x="650" y="263" width="150" height="30" as="geometry" />
        </mxCell>
        <mxCell id="ludaHOZH4W-YjEyEhBym-11" value="" style="rounded=0;whiteSpace=wrap;html=1;fillColor=none;strokeColor=#C0C0C0;fontSize=20;fontStyle=1;fontColor=default;" parent="1" vertex="1">
          <mxGeometry x="650" y="303" width="150" height="457" as="geometry" />
        </mxCell>
        <mxCell id="ludaHOZH4W-YjEyEhBym-12" value="Gold Layer" style="rounded=0;whiteSpace=wrap;html=1;fillColor=#FFD700;strokeColor=#FFD700;fontSize=20;fontStyle=1;gradientColor=none;" parent="1" vertex="1">
          <mxGeometry x="850" y="263" width="150" height="30" as="geometry" />
        </mxCell>
        <mxCell id="ludaHOZH4W-YjEyEhBym-13" value="" style="rounded=0;whiteSpace=wrap;html=1;fillColor=none;strokeColor=#FFD700;fontSize=20;fontStyle=1;fontColor=default;" parent="1" vertex="1">
          <mxGeometry x="850" y="303" width="150" height="457" as="geometry" />
        </mxCell>
        <mxCell id="ludaHOZH4W-YjEyEhBym-14" value="&lt;div&gt;CRM&lt;/div&gt;" style="image;aspect=fixed;html=1;points=[];align=center;fontSize=12;image=img/lib/azure2/general/Folder_Blank.svg;" parent="1" vertex="1">
          <mxGeometry x="255" y="350" width="69" height="56.00000000000001" as="geometry" />
        </mxCell>
        <mxCell id="ludaHOZH4W-YjEyEhBym-15" value="" style="image;aspect=fixed;html=1;points=[];align=center;fontSize=12;image=img/lib/azure2/general/File.svg;" parent="1" vertex="1">
          <mxGeometry x="299" y="383" width="27.59" height="34" as="geometry" />
        </mxCell>
        <mxCell id="ludaHOZH4W-YjEyEhBym-17" value="ERP" style="image;aspect=fixed;html=1;points=[];align=center;fontSize=12;image=img/lib/azure2/general/Folder_Blank.svg;" parent="1" vertex="1">
          <mxGeometry x="252.41" y="460" width="69" height="56.00000000000001" as="geometry" />
        </mxCell>
        <mxCell id="ludaHOZH4W-YjEyEhBym-18" value="" style="image;aspect=fixed;html=1;points=[];align=center;fontSize=12;image=img/lib/azure2/general/File.svg;" parent="1" vertex="1">
          <mxGeometry x="296.41" y="493" width="27.59" height="34" as="geometry" />
        </mxCell>
        <mxCell id="ludaHOZH4W-YjEyEhBym-22" value="" style="endArrow=none;html=1;rounded=0;exitX=0.063;exitY=0.617;exitDx=0;exitDy=0;exitPerimeter=0;strokeColor=#C0C0C0;" parent="1" source="ludaHOZH4W-YjEyEhBym-1" edge="1">
          <mxGeometry width="50" height="50" relative="1" as="geometry">
            <mxPoint x="222.94999999999993" y="561.0699999999999" as="sourcePoint" />
            <mxPoint x="350.87" y="560" as="targetPoint" />
          </mxGeometry>
        </mxCell>
        <mxCell id="ludaHOZH4W-YjEyEhBym-23" value="&lt;div&gt;&lt;b&gt;Object Type&lt;/b&gt;: CSV File&lt;/div&gt;&lt;div&gt;&lt;b&gt;Interface&lt;/b&gt;: Files in Folder&lt;/div&gt;" style="text;html=1;align=center;verticalAlign=middle;whiteSpace=wrap;rounded=0;" parent="1" vertex="1">
          <mxGeometry x="210" y="570" width="140" height="30" as="geometry" />
        </mxCell>
        <mxCell id="ludaHOZH4W-YjEyEhBym-25" value="" style="html=1;verticalLabelPosition=bottom;align=center;labelBackgroundColor=#ffffff;verticalAlign=top;strokeWidth=2;strokeColor=#CD7F32;shadow=0;dashed=0;shape=mxgraph.ios7.icons.data;fillColor=none;gradientColor=none;" parent="1" vertex="1">
          <mxGeometry x="490" y="401" width="59" height="67" as="geometry" />
        </mxCell>
        <mxCell id="ludaHOZH4W-YjEyEhBym-26" value="" style="html=1;verticalLabelPosition=bottom;align=center;labelBackgroundColor=#ffffff;verticalAlign=top;strokeWidth=2;strokeColor=#C0C0C0;shadow=0;dashed=0;shape=mxgraph.ios7.icons.data;fillColor=none;gradientColor=none;" parent="1" vertex="1">
          <mxGeometry x="700" y="401" width="59" height="67" as="geometry" />
        </mxCell>
        <mxCell id="ludaHOZH4W-YjEyEhBym-27" value="" style="html=1;verticalLabelPosition=bottom;align=center;labelBackgroundColor=#ffffff;verticalAlign=top;strokeWidth=2;strokeColor=#FFD700;shadow=0;dashed=0;shape=mxgraph.ios7.icons.data;fillColor=none;gradientColor=none;" parent="1" vertex="1">
          <mxGeometry x="895.5" y="401" width="59" height="67" as="geometry" />
        </mxCell>
        <mxCell id="ludaHOZH4W-YjEyEhBym-29" value="" style="shape=singleArrow;whiteSpace=wrap;html=1;fillColor=#b1ddf0;strokeColor=#10739e;arrowWidth=0.3333333333333333;arrowSize=0.26;" parent="1" vertex="1">
          <mxGeometry x="350" y="414" width="100" height="50" as="geometry" />
        </mxCell>
        <mxCell id="ludaHOZH4W-YjEyEhBym-31" value="" style="shape=singleArrow;whiteSpace=wrap;html=1;fillColor=#b1ddf0;strokeColor=#10739e;arrowWidth=0.3333333333333333;arrowSize=0.26;" parent="1" vertex="1">
          <mxGeometry x="570" y="410" width="100" height="50" as="geometry" />
        </mxCell>
        <mxCell id="ludaHOZH4W-YjEyEhBym-32" value="" style="shape=singleArrow;whiteSpace=wrap;html=1;fillColor=#b1ddf0;strokeColor=#10739e;arrowWidth=0.3333333333333333;arrowSize=0.26;" parent="1" vertex="1">
          <mxGeometry x="778" y="410" width="90" height="50" as="geometry" />
        </mxCell>
        <mxCell id="ludaHOZH4W-YjEyEhBym-33" value="" style="shape=singleArrow;whiteSpace=wrap;html=1;fillColor=#b1ddf0;strokeColor=#10739e;arrowWidth=0.3333333333333333;arrowSize=0.26;" parent="1" vertex="1">
          <mxGeometry x="990" y="411.5" width="100" height="50" as="geometry" />
        </mxCell>
        <mxCell id="ludaHOZH4W-YjEyEhBym-35" value="&lt;font style=&quot;font-size: 14px;&quot;&gt;Raw Data&lt;/font&gt;" style="text;html=1;align=center;verticalAlign=middle;whiteSpace=wrap;rounded=0;" parent="1" vertex="1">
          <mxGeometry x="463" y="471" width="110" height="30" as="geometry" />
        </mxCell>
        <mxCell id="ludaHOZH4W-YjEyEhBym-36" value="&lt;font style=&quot;font-size: 14px;&quot;&gt;Cleaned, Standardized, and Normalized Data&lt;/font&gt;" style="text;html=1;align=center;verticalAlign=middle;whiteSpace=wrap;rounded=0;" parent="1" vertex="1">
          <mxGeometry x="651" y="471" width="150" height="30" as="geometry" />
        </mxCell>
        <mxCell id="ludaHOZH4W-YjEyEhBym-37" value="&lt;font style=&quot;font-size: 14px;&quot;&gt;Business-Ready Data&lt;/font&gt;" style="text;html=1;align=center;verticalAlign=middle;whiteSpace=wrap;rounded=0;" parent="1" vertex="1">
          <mxGeometry x="870" y="476" width="110" height="30" as="geometry" />
        </mxCell>
        <mxCell id="ludaHOZH4W-YjEyEhBym-40" value="" style="endArrow=none;html=1;rounded=0;exitX=0.063;exitY=0.617;exitDx=0;exitDy=0;exitPerimeter=0;strokeColor=#CD7F32;" parent="1" edge="1">
          <mxGeometry width="50" height="50" relative="1" as="geometry">
            <mxPoint x="443" y="511" as="sourcePoint" />
            <mxPoint x="583.87" y="511" as="targetPoint" />
          </mxGeometry>
        </mxCell>
        <mxCell id="ludaHOZH4W-YjEyEhBym-41" value="" style="endArrow=none;html=1;rounded=0;exitX=0.063;exitY=0.617;exitDx=0;exitDy=0;exitPerimeter=0;strokeColor=#C0C0C0;" parent="1" edge="1">
          <mxGeometry width="50" height="50" relative="1" as="geometry">
            <mxPoint x="655.5699999999999" y="509.5" as="sourcePoint" />
            <mxPoint x="796.44" y="509.5" as="targetPoint" />
          </mxGeometry>
        </mxCell>
        <mxCell id="ludaHOZH4W-YjEyEhBym-42" value="" style="endArrow=none;html=1;rounded=0;exitX=0.063;exitY=0.617;exitDx=0;exitDy=0;exitPerimeter=0;strokeColor=#FFD700;" parent="1" edge="1">
          <mxGeometry width="50" height="50" relative="1" as="geometry">
            <mxPoint x="859.13" y="510.5" as="sourcePoint" />
            <mxPoint x="1000" y="510.5" as="targetPoint" />
          </mxGeometry>
        </mxCell>
        <mxCell id="ludaHOZH4W-YjEyEhBym-43" value="&lt;div align=&quot;left&quot;&gt;&lt;b&gt;Object Type&lt;/b&gt;: Table&lt;/div&gt;&lt;div&gt;&lt;br&gt;&lt;/div&gt;&lt;div align=&quot;left&quot;&gt;&lt;b&gt;Load&lt;/b&gt;:&lt;/div&gt;&lt;div align=&quot;left&quot;&gt;&lt;span style=&quot;white-space: pre;&quot;&gt;&#x9;&lt;/span&gt;- Batch Processing&lt;/div&gt;&lt;div align=&quot;left&quot;&gt;&lt;span style=&quot;white-space: pre;&quot;&gt;&#x9;&lt;/span&gt;- Full Load ( Trunc &amp;amp; Insert)&lt;/div&gt;&lt;div align=&quot;left&quot;&gt;&lt;br&gt;&lt;/div&gt;&lt;div align=&quot;left&quot;&gt;&lt;b&gt;Transformations&lt;/b&gt;: None&lt;/div&gt;&lt;div align=&quot;left&quot;&gt;&lt;br&gt;&lt;/div&gt;&lt;div align=&quot;left&quot;&gt;&lt;b&gt;Data Model&lt;/b&gt;: None (As-is)&lt;/div&gt;&lt;div&gt;&lt;br&gt;&lt;/div&gt;" style="text;html=1;align=center;verticalAlign=middle;whiteSpace=wrap;rounded=0;" parent="1" vertex="1">
          <mxGeometry x="446" y="530" width="140" height="160" as="geometry" />
        </mxCell>
        <mxCell id="ludaHOZH4W-YjEyEhBym-44" value="&lt;div align=&quot;left&quot;&gt;&lt;b&gt;Object Type&lt;/b&gt;: Table&lt;/div&gt;&lt;div&gt;&lt;br&gt;&lt;/div&gt;&lt;div align=&quot;left&quot;&gt;&lt;b&gt;Load&lt;/b&gt;:&lt;/div&gt;&lt;div align=&quot;left&quot;&gt;&lt;span style=&quot;white-space: pre;&quot;&gt;&#x9;&lt;/span&gt;- Batch Processing&lt;/div&gt;&lt;div align=&quot;left&quot;&gt;&lt;span style=&quot;white-space: pre;&quot;&gt;&#x9;&lt;/span&gt;- Full Load ( Trunc &amp;amp; Insert)&lt;/div&gt;&lt;div align=&quot;left&quot;&gt;&lt;br&gt;&lt;/div&gt;&lt;div align=&quot;left&quot;&gt;&lt;b&gt;Transformations&lt;/b&gt;: &lt;br&gt;&lt;/div&gt;&lt;div align=&quot;left&quot;&gt;&lt;span style=&quot;white-space: pre;&quot;&gt;&#x9;&lt;/span&gt;- Data Cleansing&lt;/div&gt;&lt;div align=&quot;left&quot;&gt;&lt;span style=&quot;white-space: pre;&quot;&gt;&#x9;&lt;/span&gt;- Data Standardization&lt;/div&gt;&lt;div align=&quot;left&quot;&gt;&lt;span style=&quot;white-space: pre;&quot;&gt;&#x9;&lt;/span&gt;- Data Normalization&lt;/div&gt;&lt;div align=&quot;left&quot;&gt;&lt;span style=&quot;white-space: pre;&quot;&gt;&#x9;&lt;/span&gt;- Derived Columns&lt;/div&gt;&lt;div align=&quot;left&quot;&gt;&lt;span style=&quot;white-space: pre;&quot;&gt;&#x9;&lt;/span&gt;- Data Enrichment&lt;/div&gt;&lt;div align=&quot;left&quot;&gt;&lt;br&gt;&lt;/div&gt;&lt;div align=&quot;left&quot;&gt;&lt;b&gt;Data Model&lt;/b&gt;: None (As-is)&lt;/div&gt;&lt;div&gt;&lt;br&gt;&lt;/div&gt;" style="text;html=1;align=center;verticalAlign=middle;whiteSpace=wrap;rounded=0;" parent="1" vertex="1">
          <mxGeometry x="650" y="529" width="150" height="231" as="geometry" />
        </mxCell>
        <mxCell id="ludaHOZH4W-YjEyEhBym-45" value="&lt;div align=&quot;left&quot;&gt;&lt;b&gt;Object Type&lt;/b&gt;: Table&lt;/div&gt;&lt;div&gt;&lt;br&gt;&lt;/div&gt;&lt;div align=&quot;left&quot;&gt;&lt;b&gt;Load&lt;/b&gt;: None&lt;/div&gt;&lt;div align=&quot;left&quot;&gt;&lt;br&gt;&lt;/div&gt;&lt;div align=&quot;left&quot;&gt;&lt;b&gt;Transformations&lt;/b&gt;: &lt;br&gt;&lt;/div&gt;&lt;div align=&quot;left&quot;&gt;&lt;span style=&quot;white-space: pre;&quot;&gt;&#x9;&lt;/span&gt;- Data Integrations&lt;/div&gt;&lt;div align=&quot;left&quot;&gt;&lt;span style=&quot;white-space: pre;&quot;&gt;&#x9;&lt;/span&gt;- Data Aggregations&lt;/div&gt;&lt;div align=&quot;left&quot;&gt;&lt;span style=&quot;white-space: pre;&quot;&gt;&#x9;&lt;/span&gt;- Business Logic&lt;/div&gt;&lt;div align=&quot;left&quot;&gt;&lt;br&gt;&lt;/div&gt;&lt;div align=&quot;left&quot;&gt;&lt;b&gt;Data Model&lt;/b&gt;: &lt;br&gt;&lt;/div&gt;&lt;div align=&quot;left&quot;&gt;&lt;span style=&quot;white-space: pre;&quot;&gt;&#x9;&lt;/span&gt;- Star schema&lt;/div&gt;&lt;div align=&quot;left&quot;&gt;&lt;span style=&quot;white-space: pre;&quot;&gt;&#x9;&lt;/span&gt;- Flat Table&lt;/div&gt;&lt;div align=&quot;left&quot;&gt;&lt;span style=&quot;white-space: pre;&quot;&gt;&#x9;&lt;/span&gt;- Aggregated Table&lt;/div&gt;" style="text;html=1;align=center;verticalAlign=middle;whiteSpace=wrap;rounded=0;" parent="1" vertex="1">
          <mxGeometry x="855" y="527" width="140" height="199" as="geometry" />
        </mxCell>
        <mxCell id="ludaHOZH4W-YjEyEhBym-46" value="" style="image;aspect=fixed;html=1;points=[];align=center;fontSize=12;image=img/lib/azure2/power_platform/PowerBI.svg;" parent="1" vertex="1">
          <mxGeometry x="1111" y="326" width="51" height="68" as="geometry" />
        </mxCell>
        <mxCell id="ludaHOZH4W-YjEyEhBym-50" value="" style="shape=image;verticalLabelPosition=bottom;labelBackgroundColor=default;verticalAlign=top;aspect=fixed;imageAspect=0;image=data:image/png,iVBORw0KGgoAAAANSUhEUgAAADAAAAAwCAYAAABXAvmHAAAACXBIWXMAAAsTAAALEwEAmpwYAAABH0lEQVR4nO2XvQ2DMBBGbwHvkSY70GUIKOhpqIAmE6SAOqFIJglVZskWF1kKkgt+fNhgjO9JnyxZFPd8trABmGHK+hFVTYtyBB8pWcDRqvcp6nsut5Ac1XnYM1XT4lycFohPQJk1OpBebygDLgVMDnHKAhoE1QEqKQsMrDQ1QFhpaiAogTGCOgPf4ox9dL5PWUAD7sAWW6ic+IO66ECcvaMk61COxgIUqAJjhCFQLrzHq0UuDYwUrST/C+TqvJWX1FoCSdbhXI7VAe/PQDACn9MJZdYQEJcXyhgLTOFCwCosMIHgDljeQlSEzQ70hVJDKZQaCErA+y00RlACMfEPKlhAg8N3IDa4x4stBOYgv6T2htFLam9Yvce7gAUY8IMfuT9B6eZNKYoAAAAASUVORK5CYII=;" parent="1" vertex="1">
          <mxGeometry x="1168" y="332" width="58" height="58" as="geometry" />
        </mxCell>
        <mxCell id="ludaHOZH4W-YjEyEhBym-51" value="BI &amp;amp; Reporting" style="text;html=1;align=center;verticalAlign=middle;whiteSpace=wrap;rounded=0;" parent="1" vertex="1">
          <mxGeometry x="1108" y="393" width="110" height="30" as="geometry" />
        </mxCell>
        <mxCell id="ludaHOZH4W-YjEyEhBym-58" value="Ad-Hoc SQL Queries" style="text;html=1;align=center;verticalAlign=middle;whiteSpace=wrap;rounded=0;" parent="1" vertex="1">
          <mxGeometry x="1108" y="499" width="107" height="30" as="geometry" />
        </mxCell>
        <mxCell id="ludaHOZH4W-YjEyEhBym-59" value="" style="shape=image;verticalLabelPosition=bottom;labelBackgroundColor=default;verticalAlign=top;aspect=fixed;imageAspect=0;image=data:image/png,iVBORw0KGgoAAAANSUhEUgAAACgAAAAoCAYAAACM/rhtAAAK6ElEQVRYR82YeXxU1RXHf+/Ne7NP1skCSUhCIAshKyABggjIpiBow6IfaTEWKVpwY4mCn8YFqUqtRT+KbcVSwM9HqKJsqVAIEAiBJJAVCCEhhCSzJpmZzGS2N+/2zSi4YGKGttL35/2ce873nXvOuedcCgP8CCHUMoDpBqjgHgTwVqR4t0p4XKCjYNUCZBfgpiiKDFDlgMSogUg9co0Ed3vcc1yEet50yZDOOGlwNjdYEQ1GysKlFNREhTYFqaj8MAWqdoZSloHoHYhMv4AfEiI/f8axyGjlPqq52IAARRAkTga8nYfbzYNhaLg4F1i5GLRYCqvTiriESMRFqR7fnIGP/xve7BNwWQPJ0LcaqzQNWrh7OQSqZLCYTVBJZAgICEBwSBh6XU5wvBvdnRY4zE5hLRx6qxmMSgp1dDAC0JXwyezY5oF4qi+ZHwW8r5XMtZxu/4LS2iBnBI/xvZCpCMbkpEKupDe6CHfISUyXlUFql9bsGkxxopRei2t880XtSpOGh1wcCA/ckLNuhMntudseTT51u5C3AM67TmbVVHccVLa6EOjkICI9mDE5CwGMfchTafLr/RnaWGMaqrOoVpwpb3yGoaQQjhjKINZ1F+8MLHws3nE7kN8DzG92JOkb7JfamkyQyKRgYMOU3ITXX0nEen/i6bcXnY80VOt39nQJfvQAMqdp18lVmQv/I8AVhEiMDb1fNO+7OjOYDYZN7sbkybEvvzKcKrwdxU9UWOZV12j2EC4QvNHCB5DOMUfXjTvnr66bHlzR4so6dazx3KCeUPQauzBzUUrZ2hRqnL8Kvyu/pKw7v77S8pHYLYPY0XOguCBhtr/6fIDFhDDbzjiO1Z5rnaCyM0iNjsCkyQrVgnDK2pfCPzSTDDvllkni2NrVFGX7MTmv3k1F9tPNTT2jRTYHlxGtCd35aI5fNdIHuKKTBBiqes0X6q5CLlwNC+9J2/dsMvVAX3Arm8nh6rLWe1UiEbKSpA2vZqqT+5KdW0kWlrdYtqpslDzC1PLSiZXpr/njRR9gfiMZ11ymLXVZbEKNs+KBjLiQJ9ODhFvt1u8NA1F91dJTrqswJVEGHWbkhmDT5KF0X0m0ihDFjr36I8RAj01wdp8ofSpxkl+A8wkRd9ZirqW0a1eovRdjhgOvzY7ps4AfFJLp/UvuU63/ujYqzG3HxJEMXzh9hKg/oxOP6rdevyJ6bAjl6T6xNDzEL8AILVEkWrC4Y1/HBwmCwYW5oXg8N/gmoNAk0LuFBmEBRQkFA9hFiOijUlOFtrQ9M5JwuDdTSlZPT6b7M/qratu64mOdr4UR3lX5TJzEb8ChViw3FHW8FdNrQv7UCCwerfYB/qnCuPGSzlUgFtBGKGFcNmVwmLerWXoeVeeK6tKjZSzuTlFi1azofu/05Rf0689Wsi+L9Bb+7POxrF+Ao4SGQHoZ+bqvmt+N5WyYPyESvxkb7jP4+nnroS+L6qfJeAajI0XY9OtM3/rSQz11V2r0qUyvDVOz1CiYM7hfwCXntJsrTzuXBzkpuuS5If2Gww/hKSEGZZaLmK87Vr9N7XBiXEY0Xp0a4TO4odSwv7is636Wo5A9yIMNi1N86y8c6ayvrbaPsJvNmDZOTQpmRviO+MMGfcGVVmm+0+EKyohjrz2eFjjGuz6vxFDRUm0fFWJ34OjqxAG1eDdAfcKLrpKx+uPNZbyhG5HhSkzOTQpalkCZC8vNRSXFhpmMkyAzxoM3liT75Ncd1tYeL+kcGSxXYWKa3LXmfrUvrp45Vl9SWsblsrQUY1IkeGdOHPWBkUTtONrS5rEoEOa2Yt/yof4DFl4l0sZ6u914VWitPBbcPS3jn4Wp1KwVVfaTVUW6CSG8BKkJHF5f9HV2FxzXnDt+0pIl52nMTlHZns2LVHrXC8/o9pwqNc8jwvqwWIItecOpzRry/vbPLi6303IkqinN5wtiB/sVg15hb+CvqkPHieKGSAVECE9QY9f9wVR+C9l0ea/2eZHeJBRkEd5Z/PXxrC3uKKmo8eRSNhceSAnqWvlgaKh3/aXTXZ+eqTAs6Om1Y8HDGSXyGMw8/qnG1tTRDRsrwpTsyPWbJwRt8BvQu+Hpa2T+8bPtu0JMMnQ7uhE+O35rQRy97JNalDQersvJjhLh7UUjfIDrD+m/KjrZPj0iKASTEmXatbPDB/k8WNn16eeHahekjc0xZU4WR9s0ePvEF/VPMJDBSjsxNkoU/cc5Se23BVhosA2+YpTvrjrYOF6hDkULrUHOxNSlQ2Kx3VkBh6v5LP62cKwPcNW+toOVl22ziIvDtOzw6+tmhA3xrq8+1XL+ioVOmTAhJtPM4+6ifTUfinUMaJ5g/JzU2jdTqHR/4Lyy3wvYtRedaY06/mBFTVt0VEAIbB4Hhk8a/PSQBPxFYnBG/T5cesW76cWTXbVFhxtGyhhKSJJQvDFvuE/P1h4SRinR02DGkgOfN34gd8sR6JAjZFCAPWyqKPLd2ximbsmolU3uqafqje/ZOrhhYGWMRcphZFbEtqQIrLxh4Mlq9+9svcxSYueiUmOYj9cOp/K9gG/1kPCmNmw5debyg8QuhopXQWoVQR2hcgeMEm3XtdX+df+s9NP+ePEWQG/CLNAipaLVuuVqk2lEhFsWKvG4jcExkkvBkcoWJpDdoRCjg3GDksvgDnJDBQfGcxrul+2N+iy90QlWoYLNLcwztMQgtUrCxDSLbmF0oIJo3qk07x36cGLe7m+uzp+C7bMmCQU8pL3e/qq+Sp9DEzZbx9vgUUh5SMV6kcdjDZWoPAoh/2G2JBCbk6VMToSyStAuApvDhKS7hiEpUbGx4oDlBZdFMMMKU6HYjVamE4FhKKrJi7nvp+BuicEf2/BEhS6hhSdLrhhtcw1dXJqUUgjPClIohdlY4nSC4TghkjnwDAexMMXFR8iQnh6/XxolWmNtB19fqr/Ucc0FuVwNJ3hYiBUemRskwFWbFEPP2HF3nKY/UL+q+tIqLt+oMS8UvDREf02THKRUgaVEUAozc1i4ihs8SPz3AMq6c+kw1dEbRpcXm0h5hRZqySAQBwVWLEKny4wepXAYkh6MjiZpW2aMqOsL0i/A7yrZoLNGuDsMTlm0Uuh11IgXHCS0ZK4fGlqjIce2H6ifFG0Ph6KXhVwmE06bhc5khFgYzBhGj/S4kKnvzIi7+VPf1XHbgAOJH6+M79FJi93le5p+EUrU4OwcaOG2YkUMOMoOB90NteDNeWOTv3wslZr3Q73/c8AbkC9eAHe4qI5WMmqwROgthPwS5npwQq0VS91CMe9E3pxs5Md7V7/9fhbAbyDpl+pw/uSRS+kiSgVaeHkAT4EhwkuZxwaetUEm7UXe9MwTS+Kpm3PLzwZ4w5O/q4TtaEmNTKKIhMPGC7e0CGKagtVhhlJMQcI58FDeiMOPxmGmMIgJv3AHvjdrCfnH3jIEhkSDOFkvIliWhcfpACM867nEFkxZPOzsmlDk3BFAr0/+LEB+tr8UtCwBBguPQKFkCWUSEiF5HFSX0J614Z6Zdz15xwC9kO+dtJAvS9shDopDr9Bb8gIgER4DQFuFeqlBVnZ82x0F9DUYFYTsOVIPiVhIHJkcLqHwu5wGBEOLuTNyt99xQC9kYRUhx4vPCVehCG5VADw2HR7KjkVe7qDy/wtA72NA60WeO3S6HEZhPrw3JxPLkiWmBIr69gXhDiTzLSafO9sZ444NEUexMBaEUGavwL8BXZ6936HtgasAAAAASUVORK5CYII=;" parent="1" vertex="1">
          <mxGeometry x="1142" y="459" width="40" height="40" as="geometry" />
        </mxCell>
        <mxCell id="ludaHOZH4W-YjEyEhBym-62" value="&lt;div&gt;Machine Learning&lt;/div&gt;" style="text;html=1;align=center;verticalAlign=middle;whiteSpace=wrap;rounded=0;" parent="1" vertex="1">
          <mxGeometry x="1108" y="624" width="110" height="30" as="geometry" />
        </mxCell>
        <mxCell id="ludaHOZH4W-YjEyEhBym-63" value="" style="shape=image;verticalLabelPosition=bottom;labelBackgroundColor=default;verticalAlign=top;aspect=fixed;imageAspect=0;image=data:image/png,iVBORw0KGgoAAAANSUhEUgAAAgAAAAIACAYAAAD0eNT6AAAACXBIWXMAAA7DAAAOwwHHb6hkAAAAGXRFWHRTb2Z0d2FyZQB3d3cuaW5rc2NhcGUub3Jnm+48GgAAIABJREFUeJzs3XecXVW5//HPtEx6T0ggQEggBELvBAgYEQSki4ICikpXULFd9YcICKhXDRYErkEBsSIiCFxAEQg1EFpCDSmkAOl1Jm3K74+VuQzDlHPO8+y19znn+3691kuEOWs/p+21zirPAhERERERERERERERERERERERERERERERERERERERERERERERERERERERERERERERERERERERERERERERERERERERERERERERERERERERERERERERERERERERERERERGR7KpIOwARKVlDgF2AnYFxwE5Af6Av0A/os/nv6oAVm/93EfAG8BrwOvA8sCRq1CIiIpKXHsARwE+AGUCzQ2kCXgQmAcduvoaIiIhkwMHALUA9Po1+Z2UVMBk4FI1gioiIRNcTuAh4meQb/Y7KLOA8oDbh5yoiIlL2ugEXAG+TXsPftiwEvoqmB0RERBJxKjCb9Bv8jspswjoBERERcTAMuJP0G/hcy53ANom8EiIiImXiVGAp6Tfq+ZblwAkJvB4iIiIlrQq4hvQbcmu5gbBuQURERLowAHiQ9BtvrzJl83MSERGRDowiZOJLu9H2LtOBrRxfJxERkZKxLTCX9BvrpMpcYIzTayUiIlISRgBvkn4jnXSZj3YIiIiIADCIcPBO2o1zrDIdrQkQERHhDtJvlGOXKWh3gIiIlLFDSL8xTqv8zOH1EylaOk1LpLzdDJyZ5AUG96nlkJ2Hsus2/RizZV+2GdKT/r260bu2GoD6jY0sW7OB+UvrmfnOGp6fs4InXl/C0tUbkgwLQifgJELmQJGyow6ASHmbRdj656pvzxpO2n9rThm/Dbts04/KivxuNc3N8MLcFdzx1HzunLqAlXUbvUNssQLYnbA4UKSsqAMgUt7qCEf7uhjcp5YvHj2GTx0ykh7dqlzqrN/QyG1T5nLDAzNZtHK9S51t3AmcmETFIlmmDoBIeVsN9LFWUl1ZwXlH7sAXjx5Dr81D+97qNjTws7tfY/K/Z9PQ2ORd/ceAe7wrFckydQBEytuzwN6WCrYf1odJn9uL3UfG2Vk3fd5KLrjxGeYurvOsdjawC7DOs1KRLPMZoxORYjUCOLTQB0/cdQt+/+XxbDO4l2NInduiX3c+MX5bZr6zhlnvrvWqdgCwBHjaq0KRrNMIgEh52xZ4FeiR7wNPnzCSKz+1O1WV6dxGGpua+a/fv8AfH3vLq8qFwGgg8e0HIlmgEQCR8rYKaAQOz+dBnzxoW354xp5UptT4A1RWVHD4bsN5d+U6Zsxb5VFlX8JugGkelYlknToAIvI4sCU5rgU4fcJIrjljj7y39iWhogIm7jqMVxas9poO2An4pUdFIllXmXYAIpK6ZuCcsyaOurdPj5oO/6hPjxquPG03rj49G41/i6rKCq793N6MHOqyDmF74GCPikSyLjvfYhFJzcyfH9W3e/fauWvXNwy446n5PPn6Ut5aWkdlRQXbDO7J+LFDOHafrejXs+MOQtqmz1vJcVc/6rFF8DfA2Q4hiWSaOgAiwrwbj/9aBRU/TjsOqyv+OoMbH3zTWs0qYDjaEiglTlMAIkJFc8Vn0o7Bw1eOHcuQvt2t1fQDJjqEI5Jp6gCIlLl5N560LxXsknYcHnp3r+bcI7b3qOpDHpWIZJk6ACJlr/m0tCPwdPqhI+nfq5u1mg97xCKSZeoAiJS5Cjgi7Rg89aqt5rh9t7JWsxsw2CEckcxSB0CkvOwCTAJmAGsrKqj78GX/GnfZn6fz+sLVKYfm5+QDtrZWUQns6RCKSGYpEZBIeegG/ByYDBwIDN3872qWrdnI83NWcNuUuSxbs5FDdhqSWnpfL8P69+CWR+awbmOjpZqpm4tISVIHQKT0dQPuAz5BJ1t/m5vhhbkrmDZrOcfvO6KoOwEVFfDSWyt54+01lmpmEV43kZKkKQCR0vcz8tjW9thrS7ji9hkJhhPHnqMGWqvY0SMOkaxSB0CktO0CnJvvg255eI7113PqRm/R21rFMI84RLJKHQCR0vYFCpjqa2xq5k+PzfWPJqLttjCfDdDHIw6RrFIHQKS0faTQBz766hLPOKLr19OcC0AdAClp6gCIlLZtCn3gwmX1nnFE17t7tbUKdQCkpKkDIFLaCv4ZvHZ9A5sazCfrFbPi3QYhkgN1AERK21rLg+s2NHjFEd3a9ebYi3sVpEgX1AEQKW2mDsDKuk1ecUS3qn6jtQp1AKSkqQMgUtpMHYC5S0wPT9WcRXXWKor3yYvkQB0AkdK20PLgWe8Wbxs4a5E59gUecYhklToAIqVtpuXBz81e4RVHdM/NWm6twvTaiWSdOgAipc3UiD3x2hKam71Ciae5GZ58Y6m1GnUApKSpAyBS2l63PHjpmg28OLf4RgGem7OcZWs2WKt5wyMWkaxSB0CktD0NmDbz/+2p+U6hxPO3J80xNxFeO5GSpQ6ASGlbDpiO9rtz6gLqNzQ6hZO8ug0N3P2sae0jwIvASodwRDJLHQCR0veI5cEr6zZy25S5TqEk79aH57CyzpwD4FGPWESyTB0AkdL3b2sFNzwwsyiyAq5d38CND87yqOpfHpWIZJk6ACKl736Mw9mLVq5n0j9N6wmj+Oldr7Jk9XprNSuABxzCEck0dQBESt964A5rJb/51yymz8vutPj0t1by24dme1R1B2CeQxDJOnUARMrDH60VNDQ2ccGNz3gcsuNuzbpNnH/jMzQ0uSQt+JNHJSJZpw6ASHn4Dw6JbeYuruPim6bR6NPQumhoaubiydN4a4k59z/AqzismRApBlVpByAiUTQThrU/Zq1o1rtrWbxqA4fvNoyKCntgFs3N8K3fv8Bdz5i3/bX4NvCcV2UiWaYOgEj5mAF8HuhjrWj6vJUsWFbPh3cfRmVKvYDGpma+/YcX+eOUt7yqXAx8DsjeHIdIAtQBECkfjYRpv494VPbKglW8umA1H951GN2q484mrlm3iQtufIY7p7oe2Pdd4DHPCkWyLOUBPBGJrBZ4GRjtVeHIob247px92XWb/l5Vdmr6Wys5/8ZnvOb8W7wB7AJs8qxUJMs0AiBSXhqBucBpXhWurNvEnx97ixVrN7Hv9oMSGw2o39DIL+57g6/+7jmWr3XfpfdZ4DXvSkWyTCMAIuXpXuAo70qH9O3OeUduz6cnjKRXbbVLnXUbGvj9I3O5/oGZLF1tPuGvPf8Ejk2iYpEsUwdApDxtRTjwZlASlffv1Y3j9xvBSfuPYM/tBua9W6C5ORzpe8dT8/nH1AWsqk9sZH4JsBvwblIXEMkqdQBEytcJwN+TvsigPrWM33Ewe44ayPbDerPN4F4M7NON3ptHCNZuaGD5mo3MW1rHm++s4bnZK3jyjaUsW5PIr/22TgTujHEhkaxRB6D4DQUmAOOAscAYYADQH+i9+W/WEnLBrwBeJ8x1vgxMIWx9kvL1a+C8tINIya+AL6YdhIhIPvYBfgpMB5oISV4KKU3AS8BPNtcp5acbIfNdoZ+hYi0PAj6LFEREEtYH+BrwCsndFF8GLsEhUYwUlf6E9z7tRjlWeY0wSiYikmkDge8Dy4l3g1wGXIZukuXkANJvmGOVB9D0p4hkWAVwJrCI9G6Uy4CL0aFRpa6CsBUu7YY5ZrnE5ZUTEXG2PSElado3yZYyBcfMcZI5F5D+Zyx22QDs7fHiiYh4OZGwWj/tG2Tbsgr4ZILPW9IxFqgj/c9XGmUmWu8iIhlQSViNn/ZNsavyYzR/WipqgGdI/zOVZrnJ/CqKiBhUE25Ead8Mcy2/JzQeUtyuJP3PUhaK27kIIiL5qKE4F2DdjToBxWw84dz7tD9HWSgrgJGmV1NEJE8VwO9I/wZYaLkN7RAoRr0Ix9+m/fnJUnkadWhFJKJimPPvqvzQ/VWRpE0m/c9NFsvllhdVRCRXnyD9G55HaQJOcn5tJDknkv5nxqu8QjjIx6u+BsK5GiIiiRlNOJwn7RuoV1kBjHJ9hSQJQwnH3qb9ebGUdcBfgMMJU2jVwOOO9c8noSOSRUQqyFaSH6/yCNoemGUVwL2k/znJtzQBLxK2n34E6NHOcxuJb4f69txfVhGR3H2O9G+qSZUzHV8n8ZWlbH+NwJrN/7weWALMAqYR8vT/Ajgf+BAwOMfn90nnGM/O8boiRUu/2OIaCLxO7je1nNX27sOYCUcwav8JDBu7C/233JruffsBsH71Kla+PZ93X5vO7Kcf5Y1HHmBD3VrvECCcW7AjIWugZMeOwHNAT6f6mrHdOx4DDnGKpbWbgLOc6qonHJH9qlN9IpmjDkBc3wcu9axw0MjRHPL5L7Pr0SdR07290dEP2rR+HdPv+RtTJl/LsrdmeYYD4fld4V2pFKwGeILQmHl4FDgQ25a5y4Hv+YTzPr0JowhjnOp7EdifcG6ASMlRByCevsBcnI7YrenenYlf+g4HnnEulVXVBdXR2LCJJ2+5nod+eRUNG9zuccsIc7KJDDFI3q4AvutU1xLgG8BvjfUcRlgzkoS9CR2ebk71XQt82akukUypSjuAMvIl4DiPigZtO5rPTr6TnT58NBWVhefhqaysYps992fUAYfxxiP3s7G+ziO8noROwJMelYnJeMKwuFeypk8TRhLGG+qoJ3wXGl0i+qB3COsKjnCqb3/CeQkzneoTyQyNAMTzCrCTtZLhO+3GmTfeTq+BvssIVi96m1vP+wSL3njFo7oZwK4eFUnB+gAv4Lc9czLwBcIQ+16Geh7Er3HuSCVwn+N1FgO7E7ZQipQMpXGNYx8cGv9B245OpPEH6LvFlpz+6z/Te/BQj+p2Afb0qEgKNgm/xn8WYRh8ILCHsa6H7OF0qQn4DKHh9jAUuBn9YJISow5AHJ+yVlDTvTunXXtLIo1/i37DtuK0a2+lulutR3U6YS09JxK2m3poAM4grOk4DPs9I0YHAMKv9bMIOxY8HAFc4lSXSCaoAxDHR6wVTPzSdxi6g3kQoUtb77EvE875ikdV5ucsBRkG3OhY39W8t55jorGulYQphFjuBX7uWN8PCIsMRUqChrSS15J+teDXetDI0XzpricLXu2fr431dUw6am/WLjWNoDYBWwBLfaKSHFQA9wBHOdX3DHAQsGnz/7euY/kHcII1qDzVEk76292pvjcInQDtcpGipxGA5E3A2NE65PNfjtb4A3Tr2YvDzv+GtZpKdLBKbOfj1/jXE4b+Wxr/LbGvY4k1/N/aBsJ0VL1TfWPwHVUQSY06AMnbxfLg2t592PXo+Ift7XH8qdT26m2tZpxHLJKTsYR8+V4uIWStbGEd/od0OgAQsvm5zGttdhYO63pE0qYOQPJMWcnGTDgi5wx/nrr16MkOE8zT+Dt6xCJdqgFuxS/V773ADW3+3YeMdS4CXjbWYXEj8DfH+q4jJLwSKVrqACTP1AEYtX96o+gO1/ZKySqduxS/VL9LgM/zwdXzHzbW+5926oztbMJxvx76AbcRjiMWKUrqACTPtG9v2FjTDILJFmPMI/jJ7VmUFuOB/3Ks7wI+mPBmNLCtsd5/Gx/vYQUhm6FXFsLxwP9zqkskOnUAkmeaSB+w1TZeceRt4NbWez59POKQDvUBbsEvpfdk4PZ2/r3H/P9/HOrwMAW4yrG+76DFrlKk1AFInqkRrO2dXhta27uvtQp1AJJ1LeHXuYfZdLxQztoBmEfIJpgVlwOPO9VVRZgKGORUn0g06gAkr5xfYx02lZzjCavRPTQApwNr2vlvFYQMgBb/Mj7eWwNha+AKp/pG4Jt8SSSKcm6cYllnefCGte3dk+PYsHa1tYqNKNlUEoYBv3Gsr3W2v7bGbb6eRVrb/zozn5A3wctJwDmO9YkkTh2A5Jla8OUL3vKKI/9rzzdfuyfwFmGoegIaEfBQQTji12uB5TPAFZ3891Ka/2/rz8BvHev7GQ6HfonEog5A8t62PHjR6zO84sjbuz7X3hq4CHgEWAhcTzhYpcaj8jKUZLa/9lg7AK9i/A4k7CJCel8PPYE/EtIPi2SeOgDJM+07nv30o15x5H/tpx7xrnIL4FzgfsJWs98BxwLdvS9UonbEN9vf13h/tr+2qoBDjdfI4vB/a2sJWf02OtW3O/BDp7pEEqUOQPJM2c9ef/h+NtbXecWSs43r6pk5JdG1WwMJZ7bfBSwD7gbORDsHOlJN2PLnle3vfsJoTGf2Bvobr5OF/f9dmUbYzuflIkLHViTT1AFI3kuWB2+sr2PGfX/3iiVnL/3zrzE7Hj2BjwE3E1LG/p2wKt3a+JSS7wH7OdW1BPgsXWfms6b/bSJM/RSDnwAPONVVQVikaV08KZIodQCS94S1gimTr6WxobNpWl+NmzYy5TfXRrteGz0IR8beSugM3Ad8ARiSVkAZ4J3t7xw+mO2vPdb5/+eB5cY6YmkmjEiZzsBuZSihQ6t7rGSWPpzJW0jn86xdWvbWLJ68pavRWj+P/+5XrFgwN9r1OtEN+CjwP8A7hPnkC4Gt0gwqsiSy/d2Zw9/VAgcbr5X1+f+23iXkVvA6s+AI4KtOdYm4UwcgjnusFTz0y6uY/+KzHrF0at4LU3n4uh8lfp0CVBGGpH8JLCCsrbiM0j9wKFa2v7YOwL7eoNg6ABBOQvy5Y31XAfs71ifiRkla4jiAjhOt5Kz34KGc++d/029YMj+A1yx+l+s/OZE1i3MZHc6UV4C/An/Z/M+l4nhy+7WeiyZCByrXbSXfJ5wyWKiNhPS4aw11pKUWeArYw6m+N4G9MOYEEfGmEYA4ngZmWitZu3Qxvz//k6xe5L+tetW7C7n5nJOLsfEH2JmwSO7lzeVy/G7eafHO9ncVuTf+YJ//n0pxNv4AGwhbA+ud6tueMJIjkinKzBZPDXCktZK6ZUt44a4/M2K3fei/5dYOYcH8F57hd58/gRUpZh10NISwd/08wnzudoSGyOsc+BgqgD/h14mZRthi2ZTj3/ciDINb7g+/BR42PD5tSzcXr+18exJ+BEx3qk/ETFMA8QwA5gD9PCqr7lbLhHO+wvjPfpFuPQqbqm3ctJHHf/crHr7uRzRs3OARVpYtAO7YXB7D70z4JFwA/MqprnrC8HM+C1E/Sth9YXEYxbMFsDO3Ayc71bWK0Kmb61SfiIk6AHFdAXzXs8Leg4dy2PnfYI/jT825I7BxXT0v/fOvTPnNpFL51Z+vxYS59b8R8tTH22PZtR2B5/BL+HMB8Os8H/Mj4OuGa9YTEj2VQq9yAPAiIaW1hycII1QNTvWJFEwdgLgGEPKOex3k8n+69ezFmEOPYLv9DmH42F0ZMGIbuvcJgw3r16xixYJ5vPPqS8yZOoU3Hn0wleyCGbWCkI3wDkIimPUpxlJDaCD2carvXkKCpXy3tT1LyAJYqAdwmO7KkAmEHQ1eU6ZXYFtgKSJF6lzCDVkle6We91IS9+3oDUzQlXnG21lZQmGZ6PoTfp1arv3NAq6bdZfj9940Ys+yKCJFqBKYQvqNnXeZQti2djMh+1va8VhLPSEl8RnESUk8HnvD27qcUGAcJzpce98Cr51l1cDj+L0/8wjTJCJSZkYTVqan3ch5ldXAqFbPr2XHw42E+fa047OWDYRFcWeTTEriPoS94l7xWrYP/sJ47RWU7u6ikYTn5/U+3R41ehHJjFNJv2HzKp/s5HlWElLKXkvYipd2rNbSSNhFcDF+KYlvcoxvFrYTFV8xXj/+yVVxfRzfz9PZccMXkaz4Mek3aNaSz3a1CkJWxB8TGqq0Y7eWJsKiva8R8g0U4gTHeBoIUwmFGk54TpYYLjJcv1h4dtjqgJ3ihi8iWVBBOJM97YbMUqYRDu0pxDhCPv9nM/A8PErL+QQ75/j8hxIOoPG6/uU5Xrcjn3aIYZwxhmLQC3gNv/dtOuEUTBEpM5WEo2/Tbrws5QqH12EUYVj9Mey/QrNQZhGmPQ6m/e22FcA/Ha83jbD2wmKyMYZFHTzXUrQXYW2I1/s3KW74IpIV1YTUr2k3WoUW69BzW6MIw+pPUjqdgR8Rpj9aGsgLHOuvIyQQsppjjOMPDjEUk0vwew+bgKPjhi8iWVEB/D/CIrO0G6xCGznL4rOObAV8iZCxz3ObXFplPnAdodH2qvOCgl/d94xyiOMLDnEUkwrgfvzex0UUlrtBRErER4FlpN9QFVImJ/B6tDaIkKTnbnyHX4u5/C8+w+5nO8RS6ELIYjYUeAe/9/MBdEqrSFkbTZgLT7txKaScmMDr0Z4BhM7AnYSkPWk/7zRKodn+2vMHYyxznOIoRkfjO1X1tbjhi0jWVBKOtF1C+g1NWo1SrnoDnwD+DKwxxF5spdBsf21VYP8Vm/ToT9ZNwu993YDtLAYRKRH9gP8h/cYmn3Iv6a0G705ppSSO0eCOc4jn047xFKNa4Hn83t/XCR1bESlzF5N+g5Nv8ViYZtWSkvgGwgKrtF8Tr7KW96detvqSMZ4mQhKhcrcTvos7b4obvohk0W0k15i8Qtiith9woWO9XlvTvFQBhwE/pzRSEjcQjqj9IvaUxH83xvKy8fqlxGMxZetyatzwRSRrrAfF1AFvAU8T5skvA04GtmhznQrC8L3XzesZ7MlpktCSkvhHlEZK4kZCSuJLyH8lfhX2A25+kec1S93t+L23KwmHEIlIGRqEfYXxR/O4nnd6Wo8sgUkr55TE+zpcL9bOj2LRH5iL3/v5NNnsSItIwo7GdvNoInQi8nG88ZqtSyNwaL5POkXllpL4m8b6G9C59u05BN/EVdZzHkSkCF2G7cYxs8Drep54NhvoW2AcadqW9zoDxZqhsXWZwwc7A9ZMds8U9tKWhcvxe+8agQ/FDV9E0nYPthtHofnZ++A7P17s+8S3Iiy4+w+lkZJ4HmHvunXV+o8sL2qJq8Y3odc8NNoiUjYqsCcCuthw/fH4NnanGGLJkoEoJXFLOdL4Wpa6rfFN7f23uOGLSFpGY79hHGCM4UqHGFrKEkpvv3h/QsfmFsorC2EzofPTy/4SlryP4/u6nx03fBFJw6nYbhQbgR7GGGrwXR2fZpbApA0jbNtKu2GOVR71ednKgueamjpC0iERKWE/w3aj8FqgtT2+v26zkCUwCZNJv1GOWS5zedXKQy/gNfxe++nYO/cikmHWBUTXOcZSylkCPZxA+g1y7PJjYIjHi1cm9sZ3zcikuOGLSCw12I+5/YxjPBXAP43xtC7TgG6O8aXJO3lSMZVGQkf1YmCE9YUsA1/D77VvAo6NG76IxLA39huE9zxhOWYJ7Ip3x6jYS0sWwjGG17SUeX9eFlN6C2tFyt552G4Mq4DKBOI60RhX69JA2GpYzM7H7/WoA35IaETTbsg9ynPAd9CCtbaG4Xs65f0k810XkZRYVw3/O8OxtS6zCEmHitGO+B7/en6ruscSGs9pjvWnWV4kbF9TTvvgaHxTTX8tbvgikqQZ2G4IVycYm7IEhoZsKn6vwT10vD1yO8IN/gmKPyXxVHS6XQvrLp/WZQNh2lBEilwf7Df6ExKO8SB8swQW24lyV+D33BcThoVz0ZKS+CGKNyXxnM3Po9zVAs/j97q+DvSO+gxExN1E7DeDLSPEWa5ZAr1TJH+8wDiKOSXx/xb4nEvNDvjm2Lgpbvgi4s16ROv8SHGWY5bAPsCb+D3n3zjF1R84A7gT+/bRWOVwp+de7M7G93U9NW74IuLpb9huADEPDBmL70K4rGcJ/A1+z/VNkhmy7Q18AvgT2T6f4NYEnnuxuh2/13UlWmchUrQWYLsBfCNyvJ5ZAtcB4+KGn7Pj8Xuem4ADI8TcnZAs5gZ8t555lJkJPu9i0x+Yi99r+zTacSFSdLbE/uX/UOSYKwjD9143r2fI3s1rGPajmVuXy+OGD4TkPGk3+q1LXYHPYzDwMeASQgbCYwjrIYrdIfiuLUnjMyYiBtac8o2ks69+OL4NZJayBHp3cKaSTgfnCwXGm1RZkWf8WxGmDda3U1cDIffFhcRZAJuU7+P3+jYAE+KGLyIWV2P70s+IH/L/KdUsgRfg97zSPAjpDznGGKtMySP2jxCyW+ZSbyPwOGGEYLs8rpEF1dgPAWtd5lEaoyMiZeHf2L7waW8DKrUsgUlm+4upguwdWPSdHGM/gPZ/9edapgHfJixYLQYjCaMjXq/z7VGjF5GCVJL7r5yOynnRo36/UsoSWENYj+D1XDrL9pe0XXKMMVZZQ25HCdfiu+1yBmFufI/cXrbUfBLf1/ucuOGLSL52xv5F3zN61B9UKlkC08r2l4SLOogr19JEmJJpSUlszWOfa4N0hvE6nZU3CYcv7U828094jqbV0f6hTEOBkwif9T8SOrxzgeXAxs1lOTCbMJLyB+BS4OTNjxURJ5/F9iWvJzur572zBMZuPL2z/SWdmrkrd2KL/+U29VlSEl+ZR9yxjlqeB1wLHApU5RFfknoT0vt6PccXCCMq+wD/DbxmrK8JeAn4yeY6RcTgOmxfyMfih9yhYs4S6D2N4ZXtr1BV2OeUf9FJ/UMI2ezuo/OUxAvJP+1xGrkLFhHyJhxB+h3qvfBN87zcsa625WXCwsu01+2IFCVrg/nT+CF3qlizBE52jDmpbH/52Bf788h1GqY/8Cngl8ADhJz/vyAMM3crIPa00xovB34HHEdIqpSGSzqJL4tlGXAZMCCB10KkJHUnzLdZvnhZzAHumSUwxha6UtzKaD1booH0buaLc4wxRllNSK98CnE7dRWEjlTazz/fshg4i2yurxDJlAOxf+FGRY+6a8WUJdA7219Wkhndj+15PBs/5P/zQCdxpVnqgb8TFin2T+zZv2cY2UvlnGuZAoz2f0lESsdXsH3JFscPOWdD8d2DnkTDWoHvgrNppD9/DGHYfS225/LD6FG/J2vZC9srDYT1NxeT7GLVj2LffZFWWUXY2igi7bBmabsnfsh5yfrQeqlk+2trAvbn89HoUb+nJ2ELWtoNWD6fzYcIOyS2SuD1+FkGnqOl/BhNCYh172ThAAAgAElEQVR8gDXZyffih5w3z8V1nlkCi3WxYi6sueU3AL2iR/1+h+G7Ej5WaSLkTPgafimJa4HnM/DcLOVWsjE6JpIJg7AP7R0VPer8ZTFLYCll+2vPFGzP59H4IbfrROxTGWmX5wjpj9tLyJMP7w5rGuVu1AkQAULjbfkyNRE6EcUga1kCiz1hUWd6Yf/lfFnsoDuxA2HhXSPpN2DW8jJhLUuhmTvPzsBzsJZbyFZnWSQV38P2RZoZP2STrDS63p2RtLP9tfVR7M8pi8fJjgS+DjxJ8S6Ka11mAT8iHHqUT4P4XAZit5Y0F5iKZIJ1m9zv44dsUg08jd9N5H7y/yXRC3jDMYa0s/2150fYnlMdYc45y4YAZxKGlK15NLJQFhN+GR9L50PkR1ManZ9mQpIokbJUgX3v+cXRo7bbnnAinNdNJN+Fd6V2bHF7pmF7Xv8bP2STQbzXGSjGRYNty1Le6wy0zqK4Fb75KtIuK8hmDhORxI3C/gU6MHrUPtLKEpj1LYkeBmKfK/9m9Kj9DCB0Bu4E1pF+I2cty4GbgeOBhzMQj3d5BK0HkDJ0GrYvzkagR/SofSSRfKerfPND8c2odrnlBUjQSdifW6mc8NaD8Cv6FkJCmrQbO5X2yxkdvYGSDPW40vdTQhbAQk2juG/UwwlHig52qu9K4P918N8qCNv0vLZMPkv49b/JqT5PvySMsBRqJeE9afQJJzO6A0cSOkjHogNrAKiu7cHQMbsxaNRY+g7bmh79B1PTvScAm9bXs27lUla/O59ls19l8Rsv0bBhfRJhLCKM4q1KonL5IHUA0vcYYTV6oX5NthLPFOJE4A6nuhoJK9efaOe/XUhoGD3UE45qfd2pPm+vYNtv/g+yt6vBWw0wkdAZOIEwOlRWeg3agtGHHM3wXfejqia3wxobN23k7elPM3vKfdQtW+Qd0qVk5wyNkqcOQLpqCL1dyxD+WYTjSovdZOBzTnXNBvYgLDJsMZYwWtLT6RoXAtc51eVtOLAQ2/f7IsIxvuWiCjgYOJnQIR2RbjjJqqrpxpiJJzDywI9QUVlZUB3NjY3MefJB3njoTpoa3AbBlhG2ea71qlA6pg5AuvYiNEoW4wi/9opdH+AF/FYD3wR8fvM/1xD2jO/tVPd9wDGEecss+jT2raG7EJLVlKMKYH/CyMDJlNgK9V6DtmCv0y6kz1CfowpWzp/NtD/+kg1r3UbuLyFMjUrC1AFI13mEIfxCrSbMYTb5hJO6gwirgauc6juJkDnuSkIKVg9LgV0JpxtmlXU05V1gS7LbwYltD0JH4CRg55RjMek7fBv2O/OrdOvlu2t1/eoVPHPrJNYsWuBR3QzCd0wSVtjYj3jZz/j4Zymdxh/gceAax/puJNy4v+VY5zlku/GHMK9t8R/U+Lf2AmFh6TjCuorvErLwFZVeg7ZIpPEH6N53APuefjG1vft5VLcLhadIljyoA5AuawfgaZcosuX7hI6Nh8HA7fiNKNxEGFHIslGEOVSLhxziKFWvAT8gTCeN4v0piTOrqqYbe512YSKNf4vu/Qay12kXUlld7VHdaR6VSOfUAUhPH+yngk31CCRjNhH2A9enHUgbs4Evpx1EDqy//kEdgFzNAf6bsBV0G+BLhNGTzG2dHDPxBLc5/84M2Ho0oycc41HVRzwqkc6pA5CefbC//qXYAYDwK+sbaQfRSiOhU7Kmqz/MAGsHYC6hsyP5WUjYYjqRsAvjbEIq5Y1pBgVh6H/kgfHa01Hjj/SYCtgNv9wg0gF1ANJjHf5fALztEUhGXUdYbZ8F19B+XoGsqcDeAdCvf7slhMOhjgK24P0piaMbfcjRBW/1K0RVt1p2OOxYazWVZPMkypKiDkB69jc+vhTn/1trBj5LyA6WpufIbrrftsYRGhyLf3sEIv9nJXArIbfAIOC4zf9/dYyLV9f2YPiu1t8a+dtqj/FU13a3VjPOIxbpmDoA6dnX+PhnXKLItsXA+Slev56wpz71YdwcWX/9NxPmsCUZ6wgnFZ5J6KgdRzjgZ3lSFxw6ZrecM/x5qupWy5AddrNWk+vhXlIgdQDSsSX2TGOlOv/f1t8Jq+/T8HXCeoRiYe0AvAq84xGIdGk9oTPwWWAY4XyCG3Ae8Ro0aqxndbGvPcYjDumYOgDpOMD4+CbsGQSLyUXAzMjXfABbkqbYqrDPmWr+Px2bCJ+38wg/Dg4Bfgi8aa2477CtrVUUfu0tzNfWIsCEqQOQDuvw/6tEmkPMiDrCmQextlctBT5DcSXD2Qv7yXbqAKSviXBA2LcIv4BN22F7DBjiEVNBeg40t9/JJS0QQB2AtFgXAD7lEkVx8c4S2JkLyH62v7Y+bHx8IyENs2RHM1BrqcBhIZ7h2uZzt9QBSJg6APFVYj+UphwWALbnMpJf+zAZ+GvC10iCdf7/eRJcjCYFy3SGwYSpfUqYXuD4xgJ9jXWUywLAthoIQ/NJZQmcDXwlobqTVEs4SMlCq/+zqc7y4IYN673iKODa5q9pKnkTyok6APFZN+WuI5yWVa5eI6zO99ZI2J5VDNn+2joAsI63av4/m0wdgPrlS7ziKODaS61VFON3saioAxCftQPwHGHVcDn7Nf5ZAq8hrDMoRtbh/43AFI9AxN1Cy4PXLJrvFUfeVr9rvrbpuUvX1AGIz9oBKNfhf+mYtQMwFeMvTUnMXMuDl81+1SmMQq79irWK9HovZUIdgLh6EA65sFAHIGQHPMq5zm9hn0dPQ2/snUql/82mMYDpCL/Fb7xE46b4iSwbN25g8czp1mpe9ohFOqYOQFx7ADXGOsq9AzAW+HEC9VYBt1B8W48OBqy5XjX/ny0TgH8Q8n2YOqUNG9bz9vT4x4YsfOkpGjdusFbzokcs0jF1AOKy/lJbQnkf1VpDOEjFvMG4A6OAaxOqOynW4f96Sv9gqWJQDXySsMX3EcI5AS7359lT7qO5MVYOLWhqbGD2FPMSnWaK4wTOoqYOQFzWBEDluv+/xfeAfRK+xlmEk9uKhbUD8Bhg/qkmBetL2Hr6JvAnEvh81y1bxJwnH/SutkNzHr+f+hXm3QevU3zJuIqOOgBx6Qjgwo0nzNPHcCMwPNK1LAYCexrr0PB/OoYRElvNBX4KbJvkxd546E5Wzk9+8HDFvDeZ+fBdHlW5VCKdUwcgnkHAdsY6ynX+vw9h6L8q0vUGEzICVkS6XqEOw/4dVgcgrr2A3wPzCCNa1vMbctLUsIlpf/wl61evSOwa61Yt57k//YqmhgaP6u7wqEQ6pw5APPtha1CaKd8pgEmE+fmYjiKcCZBl1uH/lYS8EpKsCuAYwm6LacCnsS8GztuGtat45tZJiXQC1q9azrO3TmLDWpczyl6lfH/sRKUOQDzWBYCzgGUegRSZE4HPpXTtHxF2HWSVtQPwCPFOWCxH3YGzCdvZ/on9/TJbs2gBj19/BSvmz3Krc8W8N3n8hitYs9gtb8+NFNdJnEUr60OcpeQe4GjD4/9A+OVQToYB00n3XPBpwIFkL/vicEKmNMt3+GLg5z7hSCuDCaNHFwJDU46lXZXV1YyecAyjxh9JVbfCDhxsamxgzuP3M/Phu7yG/SHsdBqN0gBHUZ12AGVEGQDzUwHcRLqNP4STG78HfDflONqaiL0Dr/l/X2OArxLOlOiRciydampoYOZD/2De1IfZ4bBj2WqP8Tl3BBo3bmDhS08xe8q91K8w5/tv62rU+EejEYA4RhGG8C3GA086xFIsLgB+lXYQmzUCh5KtswImY5saWUQYRdBQq90E4BLgYxTptGpVt1qGjtmdQduNpe/wrek5YDDV3UO6jYb19dSvWMrqd+axbM5rIbugPclPe+YTOlHpHWEokoBTCTfaQstGwnxiuRhLyE1vec28yyyylSVwDrbn84f4IZeUasL3+hnS/2yWSvl8Xu+ASJH4KbYvxrPxQ05NDdm9qd6U4PPOxyjsz+UL0aMuDS2Je+aS/uexlMr9aERaStTj2L4cv4wfcmp+gN9NZQlwMtDgWOcpyT31nJ2N/XnE3lZZ7FoS9ywn/cay1MpiiiPxlkjeagj51i1fkM9Ejzod4/FtrD++ud4rHetcQvo3qz9iew5zo0dcvPYgHBK1kfQbylIsTYRzD0RK0l7YvyQ7R486vj6EeXavG8vkVnXXEKZRvOq+l/SGKysIOdK9Xhv5oJbEPQ+RfgPZtjQS0uQeSlgxn3Y81nJVju+JSFE6H9sXZCVFurI4Tzfhd1OZzQcX7G1P2F7kdY0LXZ997nbJI8aOSrnlk8hVLWEL3wzSbxjblvWEkYjWPwZatsqmHVuh5SY07y8lzvoF/Vf8kKM7Eb+bSgNhKqE9Fzpep450sgReVGC8LaWJ9KcwsmYIcClha2TajWLbsoiQh2JIB7HXEEYE0o4z33Ib5fHDRsqc9ddEqQ+RDSPMq3vdWK7o5FoVhOF7r2s9S/yc7ncaY34lcrxZtiNwPfY1OkmUVwmLPXPZ/lsD/C4DMedabiOFsxBEYutDmLOzfFlOiB51PN4N8jN0fWMZjm+H40rLC5CnKmCFMd5y2lHSkUOBf2D/biZRHiIkFMp3aLwCuCYD8XdWGoFvFvDcRIrSROxfmi2jRx2P95D8jjle93jH67ZkCYxhP4d4T4wUa9ZUAscCT5B+Q9jeZ+hu4ACH53kC4dCwtJ9T27Ka8L0TKRvfxPalmR8/5Gi8s/3le3TvZMdrx8oSaP08NQIDI8SZJX0J+fnnkn4j2LasBH4MbO38nLcBHs3A82sp96G8E1KG7sD2xbk9fshRVANP43eDKSSLWC/gDccYYmQJfMAYYzlllMxy4p63N8c2IKHnDuH7cArwVsrP88wEn6NIps3H9gX6ZvyQo/BOzDOswDgOwjfxUJLD67XYR0x+lGB8WbEXYZFZFhP3PEM4PyDmKay9gcuJ3xFaRhh9ESlLW2L/Eh0WO+gIksr2V6hiyRJ4qEN8H00otrRVAIcT5tGbSL+hb10agQcJ6w/S1J34OQ5Kef2SSKdOwn7jKLUetPew+28cYsrCdEQuvm+MawPh12ApKbbEPVkxjjAF4Zkds72ShXMzRFJhTdM5I37IicvqwjvvBYlJZAmcYoxpSgIxpaWYE/dkzTDgKODbwF+Bx4DX8NlJMCni8xDJFGsecY9ft1lyAn432UZggnN8FzjGt46QstdLL8IveEtMlznGk5bRwLX4dta8ykzgYqBnYs8+vluwvSbltOhU5P9UAquwfXnOjR51cobi+2vt8gRirAD+6RjjNKCbU2xHOcTj3WGK6WDgL/iuHfEqjxGGuqsSe/bpORfba7OJONtjRTJlHPYbyx7Ro05GEg1rUmlEh2I/aa918coS+GNjHHWE+fJi0pK450nSb+TblpbEPfsn9uyzweM+dnj0qEVSdhb2G3bMrUJJSivbX6GymCVwmjGO+x1iiKUPYSh9Luk39G3LasIUxDZJPfmMqcC+FuCy2EGLpO3X2L40pbJgy3tx3fmR4vZcrDgb226Ogdhz1hdDPolyT9yTVXdje+0ejB+ySLqsv9h+Ej9kd8Wyva49WcoSaN1O2gzsa7h+0vYgLDbLYuKe5wjbDMv55LpvYXsN11A6o5kiXeqO/Wb2yehR+/sBfjfiJBPsdMQ7YVGhe6J/abzuCrK3QE2Je4rHwdhf072jRy2SkvHYvzDbRY/aV9ay/RUqC1kCXzFe9+8FXDMpStxTfGoJ21otr+3F0aMWScnF2L4si+OH7KoPIUmP1415ctzw36eGkL/d67ncywenMYYRzhD4AfAnYCowjzAXvsnhmhd5vRgGQwjJcbKauOdSiidxTxoew/Ya/zl+yCLp+AO2L8s/44fsKqvZ/gqVRJbA/QgH83iuM+ioeCYkyteOwPVAfTtxpV1eAc4mTNlJ567B9lovjB+ySDqsv34vjR+ym6xn+yuUZ5bAmGUR8RZOtqbEPaXlWOyv+6joUYtENgj7oqYjo0ftoxiy/RXKO5lRrPKHJF6MDihxT+kagH0r6pnRoxaJ7GhsX5ImQiei2BRTtr9CeWcJjFGWE9akVCbwerRQ4p7y8DK29+KG+CGLxPU9bF+SmfFDdlFs2f4KdSLpN2qFlIeB7Z1fi60JKYpXZuD5tS1zga9Sesdpp+kGbO9JKZ5uKvI+92D7ktwWP2Qz70VyF8QNP2+eixxjllXAyQ7Pfy/C5zSLiXueAU5FiWeScCa296YJ6BE9apGIlmD7khTbftkY2+SyxnubY8zSRPjVnu+UQAXwMexHXCdRGoF/4HPmgnRsFPb3KqsjeyJmo7F/QQ6IHrVNsWf7K5R3oqPY5TZyW2OhxD3S2kJs75n3NJRIZpyK7cuxgeLak3wQvo3giXHDN7uC9BtBS7kL6NbBc1PiHmnPXyj8fdsE9I4fskgcP8V2Y3s2fsgFK6Vsf4Xynv5Io/ye90+5KHGPdOZ0Cn//Hk0hXpFoHsd2g/tV/JALVmrZ/gr1K9JvGK3lGsL8+V3Y93onUR4CjiH7a0PKQR9CqvJC3sdTU4hXJIoa7L+aPhM96sJ4boVrIMynF6NPkn7jWKplI2F0Yq+c3w2J5Szyfz8fRZkXpYTthf2mt1P0qPM3DPtOh9blirjhuxkDrCX9hrLUykrCLoWtc38rJAU/I/f39A2KZ3GvSEHOw37jSzJbm4cKwjY9r5v9M2Qv218uKoFHSL+xLKUyF/gKStxTTL5E1/k/7kaLNaUM3ITtBviv+CHnrVyy/XXlfNJvMEulKHFPcdsCuAx4ClhG2Mk0E/gtcFhqUUnOtLDGxwxgnOHxVwPfdoolCWMJ+fl7OtV3IXCdU10x9SUsWhzsXXHv6mo+PGwYBw0Zws59+zKiZ0/61YQBklWbNrGgvp6XV63i8aVLeejdd1nb0OAdQixNhHMjfoJWhoukSh0Auz7Yh/BPBO70CcddDfAEsI9TffcRVnU3O9UX0xXAdz0rHNW7NxfssAPHjRhBj6rc1kmta2zkHwsWcN3MmcxZu9YznCStIyTu+SlhXlhEUqYOgN2HCFuVLLYC3naIJQlXAt9xqmspsCvhVL1i0w+Yj9OWxe5VVXx9p5343OjRVFcU9jVsaGriN7Nm8d+vvcaGxkaPsJKwmLBd8jrC+y8iGaG5N7v9jI9fQHYb/4OAbznWdw7F2fgDfBanxn+73r35n/32Y8e+tjVv1ZWVnLfDDuw3aBBfmDqVJevXe4Tn5VXCavFbCWl7RSRjsr7yvBhYOwBTXaLw14cwZOu1f/cm4O9OdcVWQVi3YLZLv378/ZBDzI1/a3sNHMg9hx7KWMc6DR4iHBw0Dvgf1PiLZJY6AHal2gGYRDgBzMNs4MtOdaVhX2AHayXb9e7N78ePZ1BtrUNI7ze8Rw9uPvBAhnRPJVPuJsIBQ3sDH+a9Y7FFJMPUAbDZEhhhrONpj0CcnQB8zqmuJkL2sDVO9aXh49YKaququH7ffRNp/Fts2aMH/7PffnSrjPa1XgP8nHDK2+nAc7EuLCJ26gDY7G98fCNhe12WDCMM3Xq5iuLf7nW8tYJv7LQTO/fr5xFLp/YeOJAvjRmT9GXeAr5K6PxeDMxL+oIi4k8dABvr8P+rZOuXcQVhrt5rn/uzwOVOdaVlC0Lq34KN6t2bz40e7RRO187efvukpgKeJSTu2Z6wwG91EheRonc4cDPwJuFch5WEkc7vE75PkhHqANiU2vz/BcBRTnXVE4aFNznVlxbzYUUX7LBDwVv9CtGrupqv7OiWaLGJcFLgoYS1EH8mHOIk0tZQQrrwB4EzgdGEPCL9CPfKSwnrgS5KK0B5P3UACleJPTlOljoAY4EfOdb3deB1x/rSsrflwb2rqzluhHWZSP5O3mYbelWbd/k+Tjik6niKfxpHkjUCeJKuf0D0BK4lLDKWlKkDULix2A8vyUoHoIawX9sr1e99wK+d6krb9pYHf3jYsJwz/HnqWVXFxC3Mo60LUNY+6VoV8Cfy2zV0MWFxsKRIHYDCWYf/64HpHoE4+B5+qX6XEnYQlMo2MNPk/UFD0jsMzeHaIx3CkNJ3KiFpWL6uAXo7xyJ5UAegcNYOwPNkYy5V2f46N8zy4J1TTM7jsOtgS484pORdUODjhuKww0YKpw5A4UphAaCy/XWtl+XBW/cyPdxk657mGR39OpOu9MG2HVodgBSpA1CYHsBuxjqykADoWvyy/c2huLP9dcTUCPaxL8QrWN/NxwkbpNd7kWKxFbYfEId4BSL5UwegMHsQFs5ZpD0CcCJ+i3AaCVv+spTTQOxKZR2HJMe6v3UYfj9CJE/qABTGmgFwCeEXc1qGATc61nc18IRjfVmyzvLgNQ3pLfNYvcmcgkEdOunKW9g7igd7BCL5UwegMMU8/69sf/lZa3nwvLo6rzjSuLYy/UlX6oFXjHUUsoNAHKgDUJhi7gAo219+Flge/MqqVV5x5H/t1eb2e5lHHFLyHjc+XiMAKVEHIH+DsM9ZpdUBULa//M23PPjxpUu94sj/2kuWWKtQEiDJhbUDsBMw0CMQyY86APnbH9vCl2bgGadY8lFNOKDDK9vfA5ROtr/OvGp58L/ffZe6FNYB1Dc28p9Fi6zVvOYRi5S8x4yPr0DTAKlQByB/+xofP4t0hlYvwz510WIp8BnKY5X485YH1zU0cPfChV6x5Ozv8+d7dDxMnR8pG7OBt411qAOQAnUA8leM8//K9lc4c76G62bOpKGpySOWnGxqauK6mTOt1TQDUxzCkfKgdQBFSB2A/BVbB0DZ/mwWYlzlPGftWn4za5ZTOF274c03PXYAvAQsdghHyoO1A7APUOsRiOROHYD8jMK+fS52B2ASfok2ZlOa2f460wOHhvC/X3uN55Yvdwinc88uX87PXnOZuv+XRyVSNqzrAGqxT69KntQByM8BxsdvAl7wCCRHJxBO5vPQRMgcWE7JYSYS1gAcZq1oQ2MjX5g6lbfXmfIKdWrR+vWcN3UqG32mG/7oUYmUjRew3xs0DRCZOgD5sfZQX8SYWS4Pw4D/cazvKuBRx/qybEvgL8C/gR29Kl2yfj2fefJJ3kmgE/D2unV8+oknWLR+vUd1M4BpHhVJ2WjEvl5mvEcgkjt1APJTLPP/yvZXmCrgIsLq91OSuMBrq1dzzCOPMM1xOuDZ5cs55uGHed2e+KfFXV4VSVmxrgM4CPvZApIHr4Vh5aCGcHqe5RCgXxFGAZJ2IXCxU131wJGU/oKwvYF/EKZMEl2MVN/QwB3z59Pc3MxuAwZQU1lYP3xTUxO/njmTS557zvvMgf2B5aSTr0KKVzVwpuHxPYC/Es5KkQjU28rdXtiHRXcm+b3VYwlxeiX8uRC4zqmuLOoLXElIkRy9Qzyke3e+suOOnLzNNvSsyu3y9Y2N/H3+fH71xhvMr69PMrxbgfMInUCRrvQGVhA6AoU6F9+DyqQT6gDk7jxsme9WEdJdJrkhvIZwKt8+TvXdBxxD6Sb8OYWwS2LLtAPpVV3NxC22YPyQIYzr14+te/akX00YbFq1aRPz6+uZsXIlTy5dykOLFsXMLvgScDLwZqwLSlF7ljCaVqhbCEnGRDLlt4SGsNDyYIQYf2CMsXVZAgyPEHMaRgH34vdalXpZTegEiHRlErbPWryEGSJ5eBnbB/sHCcc3Hmgwxti6fDzheNNQQ1gbsYb0G9ViK02ENTCW4V0pfadg/6yNiB61SCf6ELa5WD7UxycYXy/CyW1eN/vfJBhrWg4hbG9LuyEt9vIwYYupSHuGYf+MJbIDR6RQE7F/qJOcZ77JIb6WMpvQ4SkVAwi/XK0dOJX3ygLgwHzeBCkrs7B9vibFD1mkY/+F7QM9L8HYTjDG1ro0AhMSjDWmCsKWpMWk32CWYtkEfDPnd0PKyc3YPlvPxg9ZpGN3YPtA/zWhuIYCi4yxtS6lkuxnDCGXfdqNZDmU3xOmoERanIPtM9VAaY1CSpFbgO0D/Y0EYqoA/mmMq3WZhi3JURb0AC4D1pN+w1hO5RVgp67fHikTO2P/TB0ePWqRdmyF/cN8WAJxXegQV0upwzHnfUqOwj73WEhZCJwG3JbCtbNUVgDHdfkuSTmoAJZh+zxdFjtokfachO2D3Ij/cNZYQqPtdfM+3zm+mIYTkofEbvAagRsImQQh3PQuSyGOLBVtFZQWd2H7LMXImyLSpauxfZCnO8dTQ8jR7nXTvpfizAjZcnDPKuI3dM/ScbbFTxB+DafdGLctqwi5KGLE9i9gSAevj5SHb2L7DK1BHUnJgH9j+yBPdo7nSmM8rcsSinNP9z6ERjiNRvQiuj4zYFvC0cmx4+uoTAG22xzb9oQDqZK+5jzCoUJSng7C/hmypBQWMavE/gvzHMd4yj3bXy/gGnxfg1zL3cDWecTasg3xnRRibSnLCJkP2x432J2Q7Cnp62urYPmqBdZh+/x4nWgqUhCP1ax7OsXSB99Fbt4jE0k7hbDgLnYjOhs42hB3X+D72BdF5dvwXwr06yK2C4ANEeK5Bb/TKaV4TMH2uflL/JBF3vNZbB/gOvzmsSYbY2ldZlE8+2zTOrhnI3AVfg1Xb+ArhC1zScU8gzBFkc97uz9huD7p1/NFwvSDlA/r+qm344cs8p7rsH2AH3OK40RjHK1LA2EqIeu6Ad8mnEUfu/F/FBiX4HPbE/gx4ajdJmOs0wk32gMM8QwhrLpO+nXVVsHy8jHsn5lR0aMW2cy60OynDjEMIyzW87oJX+EQU9ImYD99sZCyFPgccXdFDCZ08C4l5BKYShihWU4Ynt+0+Z/nA08BfyS8h8cCWzjGUUUY8bB2SLoqTZuv09VCSil+A7F/ns6MHrUIIavcRmwf3k8aYyi3bH9pHdzTRJin1tY1OIbQ4Uj6NX+Y4tyBIvmxnsB5Q/yQRXy2sYw0xlAu2f7SPLjnDZR2tK1YWwV1qmDpux7bZ+Tl+CGLhAVblg/uYuP1yyXbX1oH99QTMvfVJv4Mi4t3gokAACAASURBVJO2CoqHM7B9PpqAQdGjlrL3B2wf3LsN164GnjZev3W5n+xl+0vz4J6HyO5oSNacQ5ytgjpVsDSNwv7ZODZ61FL2rHvu/5/h2j8wXrt1WULIl58lE4HXiN/wv40WFRVib2AOyb8/OlWwNM3H9rm4Jn7IUs4GYV+9emSB1y7lbH9ZObhH8jeYMJKU9Hu1Cjg50nOSOP6M7TPhtZ1aJCdHY/vAFjpv1YuwKM3rZvqbAmJIQiVhKDmNg3ueRznpvVQRpm2S3qWhUwVLy0XYPg/rCWtSRKK4DNsH9o0Cr3uT8bqty2yyke1vT3zXM+Ra1hIWl2m/uT9tFZR87I39s3Bw9KilbFlTz95awDVPMF6zdWkkJNNJUzEd3CP52xbfY6k7KtoqWPyqgNXYPgfaKSJRVGDPvHdRntccCiwyXrN1uTzfJ+3sWOLkl29brAf3SH60VVBy9QC2z8Bd8UOWcjQa+w0rn7zspZTtL82De64lHLgj8Z1JnDMbtFWweH0P23u/nA8eay3i7lPYG6MeeVyvFLL91RDO7l6TZ7weZQrJHtwjudFWQenM4djfe33PJXE/w/YhnZrHtUoh298h2PN9F1KWEzod+lWQHYPQVkFpXy/CVI7lfT8netRSdp7A9iH9ZY7XKfZsfzq4R9pTQZiv11ZBact6uurN8UOWclKDfS4z10xzxZrtTwf3SC60VVDamoTtvZ4VP2QpJx77VcfmcJ1izfang3skH9uirYLynlOwv9cjokctZeN8bB/OlXQ9J12M2f50cI8USlsFpcUw7O/zKdGjlrLxW2wfzgdzuEaxZfubCLzuGHOuRQf3lBZtFRSwH7I2KX7IUi5exvbhvLKL+osp258O7hFve6GtguXuZmzv7bPxQ5Zy0Af7yuXjO6m/WLL96eAeSZK2Cpa3c7C9rw1k44wTKTETsd90tuyg7mLJ9qeDeyQGbRUsXztjf1+1E0jc/Re2D+VbndSd9Wx/OrhH0qCtguXH46yVy2IHLaXvDmwfyr92UG/Ws/3p4B5J07Zoq2C5uQvbe5nLYmuRvCzA9qH8ejt1Zjnbnw7ukazQVsHy8k1s7+NaNK0jjkZgv7kc2k69Wcz2p4N7JKu0VbA8HIT9Pdw7etRSsk7C9mFs5IMrU7OY7U8H90jWaatg6asF1mF7/y6OHrWUrKuxfRhfalNf1rL96eAeKSbaKlj6pmB77/4SP2QpVQ/h20BnJdufDu6RYqWtgqXN+qPrnfghSymqxJ70pvU51VnJ9qeDe6QUaKtgafoY9vdsVPSopeSMw/5B3GNzXVnI9qeDe6TUbAtMJfnPr7YKxjMA++iOzgoRs7OwfQjrCMOHWcj2l9bBPe+gL6MkS1sFS491QfIN8UOWUvNrbB/CRzfXk2a2Px3cI+VCWwVLx/XY3qOX44csxWQIcATwJeBXhAxSLxGOpFwObMB+o/gJ/tn+Lsjx+VUBF5HOwT3PAvvkGKeIp/2Jk73yRWD7SM+pHJ2B7f1pAgZGj1oyqyfhRL5JhIa+ieRvEqfjm8r0XnLL9rcPoRGO3fCvInQ6dHCPpGkIoUOf9Od9BXBcpOdUbkZhf3+OjR61ZEolcDBhKDqNX8K3OdaVS7Y/HdwjEmirYPGbj+29uSZ+yJIF3QkH48wifkPYung2xCd28Zw/ASxM4Tnq4B7JsuMIv9ST/h48iJJaefsztvdkSvyQJU09gUuAt0m34fcukzt5zqOA+1KIaSNw1ebXXCTLtgdeIPnvxDzCGgTxcRG292M9yjlSNo4lTp7w2KWjbH8tB/esTSEmHdwjxUZbBYvP3tjfj4OjRy1RbYv9DOmslgbCwUFtTSBsc4kdz1Lgc/gdOywS2/nESYR1Cxods6oGVmN7H9QZK2HHEycVaFqlbbY/HdwjYqdTBYvHA9jeg7vihyxJqyU0hDG28qVVWmf708E9Ir50qmBx+B621385Omq8pAwEniD9BjrJ0jrb3zhCRsHYMdQD3wa65fCeiBSjKuAHJP9DomnzdZQfI3+HY3/9tV6pRAwnZOBKu4FOupyPDu4RiSXmqYJbxHlKJaMXYWGl5XU/5wO1StHZEXiL9BvnpMu9hBvS7BSuvZCQT0Ck3GirYHZZs6neHD9k8TSC8mj8m4HHU7hmA/ALdHCPlLeehMYi6e/besIon+RmErbXe1b8kMVLf8pj2D+t8jz6RSLSmk4VzJZTsL/WI6JHLWa1pPOLuByKDu4R6dh+6FTBrBiO/XU+JXrUYvYL0m8oS7Ho4B6RrmmrYHa8ie01nhQ/5OKWdra3k4Hbk75I78F9GTl+J0bsOZrBo4czYOvB9BzUh249QwrpjfUbqF+2hhXzl7L0zbdZ8MJs5j7xKmuXrk46tCTMAb5IWGgoIl2rIiTk+i+SvSc2A1cDlxISfcn73UyYminUNMIx6ZKjNDsA2xJW5PZPovIe/Xux6/EHsPvJB7HV7tvl/fjm5mYWvjCHl/7+BNP/8RTrVtYlEKWrTcB/A1cS5jZFJD/HERqhRO5JrfwL+BTh+G95zzmEY90L1UDIpLrWJ5zSl2YH4C7C4T6u+g4bwPhzPspepx36f7/wrTbWb2DaHx7hiRvvY82ilS51OptCWHH8ctqBiBS50cDfgN0Tvs58wpz10wlfp5jsjP0e9hFCB0tykNbisOMJ6R/dVFZXst9nDueTN36RkfvvSFVNtVvdVTXVbL3XaPY9fSJV1VXMnzaL5qYmt/oNVhCGLS8gpBAWEZsVwO8Ii9L2SvA6/YDPEo7cfjzB6xSTpYR7mWXXxBxCMibJQRodgJ6EBWpuw2yDRg3jjFsvYc9PHEJ1N7+Gv62qmipGHjiWMRN3Z84Tr6Q5LdBMGKo8DvjP5v8vIj4aCCOUiwi/KJO6qVQS0uCOJixE3JTQdYrJIdgylDYAtzrFUvLSOEDhfGCkV2U7Hbk35/zzewwft61XlV0avsu2nHvPZYw9Ys9o12zlVeBDwFmEHrOIJON6wrHc8xO+zhnAk2irINhHQw4guQ5byYk9AlAL/Ano41HZHqcczEk/O4ea7jVd/7Gz6m417HzMvtQtXc3b0+fGuOQ64CrgdJT1SiSWhYRjsncn2QZ6C8KUwExCJ7+cfc7w2G6E0Zt3nGIpabE7AOcAp3pUtPenDuP4H51FRWV66xgrKivYYeLurF20kndmvJXkpf5DWDD5N7R9SCS2dcBtm/93Isktnq4lLAwcSFjIlomFRpEtBr6G7Vf8K2hxZU5idgAqCb/+B1gr2unIvTnhp19ItfFvUVFRwQ4f2o1Fr85n6ax3vat/G/gC8A1gmXflIpKXxwlptY8Cuid0jQpC2u7xwP9Sflt6G4GPAtsY6lgD/NUnnNIWcw3AocAoayUDRw7lhJ9+nsqqNJYvtK+yqpKTJp3L4FHDvKpsAm4EdgL+4lWpiJjdTZgOeCbh6xwOPAccmPB1sugx4+MPcYmiDMRsRc+wVlBVXcUp111Abe8eHvG46tarlpN/cR5V1S6DKncC5wJFmYpQpMTNAw4jrA1I0gjC9F+5nSpoXQg4DIcfm+UgVgegB3CStZIDzz4y6mr/fA3fZVv2P+sjHlV9hOSGGEXErh74zOayLsHr1ALXUV6nCj6Off3DwR6BlLpYHYAjCIkvCtZ32AAmXHScUzjJOfQrx9N7iOmpQtglcbhDOCKSrFsIowFJbxX8NPAE5bFVcAX2nRAHeQRS6mJ1AD5krWD8OR91S+2bpNpe3Rl/7kc9qjraoxIRSdxUQtbApFPQ7kZYe5D9X0J21nUA6gDkIFYHYKLlwT0H9Gav0w71iiVx+3zqQ/Tobx6tm+ARi4hEsZSwev0qks3M2Z+wRugHpJfKPQbrOoCdCdsppRMxOgBDgF0sFexy3P5F8eu/Rbdetexy3P7WanYmnFUuIsWhEfgO4ayTJE8NqwC+TdgmOCTB66TJOgJQgUYBuhSjA7AXxsQZu59cfO/j7ieNt1ZRAezrEIqIxHU34Vz6FxO+zuHANELegFIzh5AHxaL4Go7IYnQALAc70GtQX7bcbaRTKPFstccoeg/ua61mrEcsIhLdLEJe+skJX2drwq/lbyZ8nTRoHUDCMt8BGHXwTlRUpJ/xL18VFRVse4C5/Ta9diKSqvWETJ5JbxWsBq6h9LYKWtcB7Iu2U3cqRgdgjOXBW+0x2iuO6EbsaY59B484RCRVMbcKPk7pbBW0jgDUEqZipAMxOgCm/LiDRw/3iiO6waPNqYEHe8QhIqmbCuwJ3J/wdXYnrAs4OeHrxPAiIa+/haYBOhGjA9Db8uCBI4d6xRHdwJFbWKtQB0CkdCwDjiFs4Utyq2BfwmE4xb5VsBF4yliHOgCdiNEB6GN5cPe+Pb3iiK5HP/N03BDgdMJOiuwdgCAi+WoEvou2CubKug7gIJI7vrnoZb4DUNu7eNdwdLPH3g24lTCkV0/YFvMgcC1wDiHfdSkt+hEpFzpVMDfWdQADCTlVpB3VaQcgeRm+ubQ9J+Ad4GXglVb/+zxQFzU6EcnHPELGz18QdgskZQTwKGHk4YcJXicJTwEN2Nqqgwj3RWkjRgdgLYaUjBvrNtCjf3H2UzauXR/rUuoYiBSn9cDZwBTgepKb6mvZKrgr4ajxYrkH1AEvYFvNfxBwo084pSVGy7oaQwdg3co6j7z6qVi3KvXvWHsdg0ZClq3WHYMXUA9ZJE23AK8BtxOS+yTl04TU7B8H3kzwOp4ew9YB0NHAHYixBmCt5cHL5y7yiiO6jMZeRdgnfDzwX4TkITOAhYQhQtOaDREpWMupgg8mfJ2WtQfFcqrgE8bHjwK29Aik1MToALxrefDS2aaHp2rprKKKfUvgCsKCoV1TjkWkXC0FjiL5rYLFdKqgdSEgaDtgu2J0AN6wPHjB87O84ohuwXPFMsL2PtsDD6EshCJpadkqeCywIsHrtGwV/DdgTlqSoHcIZytYqAPQjhgdgNctD57z+Ks0NyfZEU5Gc3Mzc596Le0wCjWYMCdZ6P7ZCmAccPTmMs5Ql0i5ugfYg+S3Ch4KPEu2twpa8wFoHUA7YnQATK1g3bLVvP3iHK9Yolnw/CzqllmzWKbqAPKfI+wDfB9YQFhXcM/mMoOQB/17GDNDipSZeYQG+paErzMC+A9wfsLXKZS1A7A7uvd8QIwOwPMY57Je/Jt1DUh8L91RfDG349N5/O2uhNzdl9L+gputgMsIOw/2NEcmUj7WEU4UPB/YkOB1aoHrCJ2NrKVgta4DqCb8qJFWYnQAlgDTLRVMv+spNtYn+bn3tbFuAzPunpp2GB5y3XqzHWHdwHY5/O3WwL8onRPLRGK5npA4KOlTBc8grLzP0nf0VcJZChaaBmgjRgcAQuNQsHUr65j2h0e8Ykncs7f9h3UrU88B4CGXoxgrCQeP5HNw0UDgNgpfF1BJSO95LHAkYZ60eHNGi+SuXLcKNmPfDqiFgG3E6gD8x1rBEzfex8a67I8CbKhbzxM3/m/aYXjJZRHDicDeBdS9H3BCno/pRVhjMI+QuOguwmEnzxPyTcwkbG26ijB9sSc6RElKT7luFbSuAzgApb9/n1gdgAcJGQELtmbRSh659h9O4STn4Z/dydolq9IOw8uMHP7mNEP9p+bxt+MI8VxKWE/QVnsJjp4jdGLUMZBSU46nClrXAfQmjGzIZrE6AOsIKS5Nnpr8AO/MeMshnGS8PX0uT/826ZG5qP6Zw9/sZ6h//xz/bjQhV/rIAq6hjoGUsrsJa3VeTPg6hxNOJc31O5uEZwlnJ1hoHUArMfdmHwo8bK1k4MihnHvPZdT2ztZ9ev2addx4zGUsf2uxR3VXADWEee5xhMV1sTprLZZtvm5X0wDrCauHC7GBrufuKwjznpZc4Plo76yEVwjbWddFikEkXz0IiwTPTPg6G4CvAL9O+DodmYKtEf8r8AmnWIpezA5ABeHwiVHWisYesSefuP6LVFbFbhPb19TQxJ/P/QWv/+sFj+peB3bi/XN7PTb/u5YOQdIdg2bCYSF35PC3iyl8aHARMKyLvzkxxziSpo6BFIPzgEkU3inP1a2br1Wf8HXauhr4luHxb9P+FGJZip2d7Tyceo57n3YoH7v6M/+/vXsPzrI68Dj+DZcEkiDhWgSMUArowlJRB2u1iG1xqOsFquKutLp1pezWllZb163j2mlru+t2RWrLrHVFratYrCKoW121Iiy10lUCEuRmuF/kkvsVyJt3/zhkhkaT903OOc95nze/z8wZZ5zkvOd98/Ce33OecyEnJ+wGc8lkkhfvfJx1S1e7qvKbwKI0f9ZHMEgA8zHrgdOxGvhcF19rFTAtxc/8Bri+i/VHQcFAMs0UzJ1usefX2UD0pwpegXnsYWMMsMNBW2Iv6t4zD/PBOzmZ6dy/nsoVP70p2EhAS3MLL931a5ed/yHMxWm7hrCrwWAD8G1Mx5yu7wE/61oz+S6wIMXP7MHv8ai+KBhISIOBJcB0z69Thdmk6AXPr9NqIGZvGZsv/Zvwv7NiLIS4fb4duN9VZWddNplZD8yNfE5AU20jz3/nYVfD/q2+DTzossI2Tg0GZ2OG7nMxB228DrxN55cV9cPcAQzt5O8dwUzOS7U6pIHsmpinYCBR6YlZNnsXfr/rk5ih+Xsw17dvpZgbmq56GJjnqC2xFiIA9MV86aWza1xaBo4aynWLvsHpE890VWWHDmzcxbO3/oerCX+tdgPj8bvVpy/XAUtJ/3rqzByDI3Ruk6G4UjAQX67E3PEWeX6d14EbMP9mfXoIuw58EzDRUVtiLdQDdBfPcf5Mz149ueBr05l220xyC/zMfzlW38SbDyxn7WOv0dLc4rr6WZglaXE1HzOcn2rDkARmpCPdeQ62s37jTsFAXBgDPIf/dfB7MTcEaz2+xlexG8JPYm4qKtw0J75CzqBbjlmb7VThkP58dt4Mzr/hUmdB4Hj9Md55aiVv/epl6o5a7WfUnhfw8FkEMA0zA7m9L5n1mM6/M5MmnD4yyiIKBtJZ2bJUcDT2k/iuwvFNaByFDADFmA5hgI/K+xYV8JdXfYZJX76QEed8stOrBZLJJPtKynjv+T9SumItjdXe9vavxHSYvg/4iEoPzGYh04HWZzK7MLtB/gno7NBJEbCN8LuQxYWCgaSSDUsF92M3mfw+7JYTZoWwa+jMXvDLfLejYFA/Rl14NiMnj2Hwp4YxoHgo+QMKySs0e9Acq2uiobKOyj2HObr9IPtKytj19hbqy9PZCt/atZihOWnfbMxywNDXa5wpGMip4r5UcCl2G/qsoevLl8WhhZhnMt2xhNpNK47mA82E/5tlW0mgLZG7q8HAq/i/xipxf6rgfEdtO4aZC1AGvIcZqVwEfAu4DI08epeLmegV+osw6rLy5HuX9F2KeWwU+m/XHYqCQffQE7gX82jO5/XUgttTBc/13N5T270Bc6N6Jbr+vRgAbCT8l15UZStmQwvpvBzMud4/BFZghhYThP+bdpeiYJCdrsTcqfu+fl7DzV11L8weIlFf/9XAYszZNrF/JJlJb2AE5rznM0M3xLPdmIsnc481jJ+oz0qQj2rBzMzWHIP4inKp4LWYScFdlY9ZahhyPf8OzC6ojxHP/VsyzjjMjPHQdzm+yh4cHIYkaeuLGSr8CmanMo0YRF80YhAvfYHH8X9dNAH/0IX25WOWBn8YQRvTLftPtknXtAMjyM7HAe/TtfPsxT0Fg/Dl1GDwL5hgcC76Es0Uf4/ppH1fB09gOvV0XIMZOQ197bZXdmAepYilAWTXxMBV6Jl/HCgYhC+Jk5+5gkF4U4imw12PORekPWcAr0TQDldlOf6XV2a9XOAB/M9O9V0eRLP9407BIHxRMAgj9FLBOUQzOdF1qcDscyOWZmI+zNB/0M6WKsye2JK9FAzCFwUD/0IsFczF7JMS+vqyfT8LyeAbwExaBdCRMzB30nFJVMuBW4EDoRsiQWhVQngtmJ0PS4HNp/x3M1qV0FVRniqYR/bs1LcGM7pRGbohbcUlALT6K0wQyNSZ9GXAP5LeMbfS/SgYhKdgYCeqpYLZphSYgVkxkDHiFgDAfIl+HbgDs2IgExzGDJH9CjgeuC0SPwoG4SkYpK8vZnj+ptANiZndmO2Ft4VuSKs4BoBWeZgL8A46nkHq01ZgAebUK31JiGsKBuEpGLQvqlMFs8luzE6mGTESEOcA0CoHuBhzxvV1QH/Pr1eLGQL7L+BNOn+8rYgtBYPwFAyMqE4VzCalwFQyYE5ANgSAU/UBvgB8/mSZhJsvxC2YpTD/g+n0fZxvLWJLwSC87hgMBgNLgOmhGxIjazB9VdBHxtkWANoajNl2dBxwFjAeGAr0w8xkLcQsOanB/OOsxAzR7MVM6HsXWIdZ0icSVwoG4WV7MOiJOaDrLrK/X3FlIXBbyAboDyXSfSkYhJdtweAKzONR30sF0zZ0YB7TzhvEBROKGD+qgFGn5zN4QC4FfczJxPVNCY5WHmfXwQa27KrjT5uqefPdcg5XeD/fJwl8GbNsPAgFABFpS8EgvNZg0PZ0xTgEgzHAs8A5oRow8LTeXH/ZcL5y+UjOP7vz08KSSfi/96tY8sp+lr56gIqaEx5aCZhR509jRp0jpwAgIulSMAgvLsEgyFLB4UP6cPuc0dx8VTEFfXs6qbO+McHiFXtY8NRODh5tclJnG8uBWT4qTkUBQERs5QJj+WgwGI95NizROMhHg0EJUB+wTTcCD+F5a+ZePXOYd82Z/HDeOPrl9/LyGg1NCe5/cgf/9kQZx084X/x1JfCS60pTUQAQEV80YhBeJowYeF0qOLa4gCd/PJlzxp3mo/qPKNlazZy7Syjb53Qx2A5gIhGP4igAiEjUFAzCizoYeFkqePUlw1h8zyRvd/3tqalv5uYfbeDF1YdcVvsd4OcuK0xFAUBEMoWCQXg+g0EhZtt0J48DbplZzIN3TKBnjzDdWKIlyTfvK+XRF5zN39uPmUDpfflBKwUAEcl0mmOQGWznGMzDzAewdsvMYhbdOdFFVVaSSbj1vo0sXuEsBMwDHnZVWSoKACISVxoxCC/dEYMczB4Hf2H7gldfMoynfzo52J1/W4mWJNd/f52rxwEfYDauS7qoLJXM+ARFRNxRMAivbTA4DtxjW+nY4gL++NhFkT/zT6WmvpnP/O0aVxMDpwL/66KiVBQARKS7UDCIsd69cliz+KLIZvt3VsnWaj53y1ucaLa+eX8EmOugSSkpAIhId6c5BjHwva+O4SffGB+6GR268xebWbhkp2011cDpRLAkUAFAROTjacQgQwwf0ofSpZc4293Pl9qGZibMXsWhcuuJ/FcA/+2gSR3KrAcpIiKZoxFzGui6Nv9fIwYRu33O6Izv/AH65ffitr8ZzT/9cottVZcSQQDQCICIiBsaMfBgUP9ctj9/aSwCAEBdY4KxM9+wPUBoPeYoe680AiAi4kZ7IwYKBhZmTz89Np0/QGHfnsyePpyHntttU80kzO6JR9206uNpBEBEJAwFgzT84dGLunSkb0hrS6uYOvct22ouA15z0Jx2aQRARCQMzTFIYciAXM47K16dP8CUCUUMHZjH4QqryYDjUAAQEelWjmM20NmEOUWvVbcLBp8/fzA5MRynzsmBqZMH8uzvD9pU433NowKAiEg8tBcMsvZRwpQJRaGb0GUXTCxSABAREa+y9lHC+FEFoZvQZeOKC22rGOaiHR1RABARyU6xHzEYMzK+AeBTZ+TbVtHPRTs6ogAgItK9xGbEoKhf7xAv64SDtisAiIhIJDJu8mFhjNb/t9WvwLp7VQAQEZGgMi4YiBsKACIi0hXpzDFYjAkKXVLb0Myg/l3+9aBq65utq3DRjo5k1IQPERGJvdY5Bk8Ch2wqqqq17kSDqaq1OgsAFABERCTGjtj88o799a7aEbkP9jbYVqEAICIisXXY5pe37opvANi2p862ig9dtKMjCgAiIuLLAZtfXrupylU7Ivf2Ruu2b3XRjo4oAIiIiC8bbX555TtHSSZdNSU6ySSsXlduW40CgIiIxNYGm18+UnmcdzbHbxRg7aZKjlQdt61GAUBERGLLKgAAPPm7/S7aEaklL1u3uQUocdCUDikAiIiILxXAdpsKnnntAPWNCUfN8a+uMcFvX7c6BRBMcLJ+hpCKAoCIiPj0ss0vV9ScYPGKPa7a4t3Dy3ZTUWO9B8DvXbQlFQUAERHx6Xe2FSx4aid1MRgFqG1oZuHTO11UtdJFJakoAIiIiE+rAKsF/QePNvGTxVZPEiLx40e2c6j8mG01VcAbDpqTkgKAiIj41AQ8b1vJL5bupGRrtYPm+LFuSzWLntnloqrfYj4z7xQARETEt0dsKzjRnGTO3SXU2B+y41xtQzM3/mA9zQknmxY84aKSdCgAiIiIb6uBLbaVlO1r4OYfbSDRkjm7AzUnktz0g/Vs3+Nk2+IPgD+4qCgdOrNZRESi0AuYYVvJtt31fFh+jMsv+gQ5OQ5aZSGZhFv/tZRn7Jf9tfo+8K6rylJRABARkShsAL4GnGZbUcnWGnYfbOTyi4fSo0eYFJBoSfKtn23i0Rf2uqpyH/B3QGTLHRQAREQkCs3ACeBLLip7b3sNGz+oZcZnh5KXG+3T7Oq6ZubcXcLSV63OOmrrn4G3XFaYSuABFBER6UbyMDsDnuGqwjEj83nq3slMHt/fVZUdWrelmjl3l7Bjf4PLasuAiUQ0+7+VRgBERCQqCWAPMNtVhZU1J3j8xX2UV5/gwkkDvI0G1DcmuO/XZcy99z2O2h/009aNwGbXlaaiEQAREYnaMmCW60o/MSiP22/4JLfMKqawr5v727rGBP+5bDcLluzkcIX1Jj8fZxlwjY+KU1EAEBGRqA0H3ge8jNsPPK03s6cP54YZI5gyoajTqwWSSXOk79OvHGDpqweorLXe2789FcCnMRMAI6cAICIiIVwP/Mb3iwwpyuWS8wZxwcQiBrC43AAAAedJREFUxp9ZyOgR+Qzq35t++b0As4lPefUJdu5vYMuuOtaWVrF6XTlH3A/zt5UErgZe9P1CIiIimWYBpiPsjuXfHXx+IiIisdQbs0tg6M446rLq5HsXERHptgYDmwjfKUdVNgIDnHxyIiIiMTcC2EH4ztl32YvDPRBERESywRjMbPjQnbSvsgsY6+rDEhERySbDgfWE76xdl1JgpMPPSUREJOsUASsJ32m7KqtOvicRERFJIQ/4JeE7b5vSAtyPZvuLiIh02tXAUcJ35p0tVcC1Hj4PERGRbmMk8BLhO/V0y3Poeb+IiIgzX8ScHxC6g2+vlAGXe3v3IiIi3Vge8F1gP+E7/NayF5gP9PH4vkVERAQTBOYC2wnX8W8Hvg7ken6vIiIi0kYP4GLg58AR/Hf6VcATmMcRsT9NN/ZvQEREBDMqMB34AjANmIQJCDZagA3AG6eUJss6M4YCgIiIZKOBwPnAOGD8yf8OAwoxh/EUnPy5OsydfS1wCNgGbAG2AiVAeaStFhERERERERERERERERERERERERERERERERERERERERERERERERERERERERERERERERERERERERERERERERERERERERERERERERERERERERERERERERERERERERERERERAP4fPCyOKgPjNuQAAAAASUVORK5CYII=;imageBackground=none;" parent="1" vertex="1">
          <mxGeometry x="1135" y="579" width="50" height="50" as="geometry" />
        </mxCell>
        <mxCell id="ludaHOZH4W-YjEyEhBym-65" value="" style="shape=image;verticalLabelPosition=bottom;labelBackgroundColor=default;verticalAlign=top;aspect=fixed;imageAspect=0;image=data:image/png,iVBORw0KGgoAAAANSUhEUgAABUYAAAJYCAYAAACuOjwEAAAACXBIWXMAAAsTAAALEwEAmpwYAAAKT2lDQ1BQaG90b3Nob3AgSUNDIHByb2ZpbGUAAHjanVNnVFPpFj333vRCS4iAlEtvUhUIIFJCi4AUkSYqIQkQSoghodkVUcERRUUEG8igiAOOjoCMFVEsDIoK2AfkIaKOg6OIisr74Xuja9a89+bN/rXXPues852zzwfACAyWSDNRNYAMqUIeEeCDx8TG4eQuQIEKJHAAEAizZCFz/SMBAPh+PDwrIsAHvgABeNMLCADATZvAMByH/w/qQplcAYCEAcB0kThLCIAUAEB6jkKmAEBGAYCdmCZTAKAEAGDLY2LjAFAtAGAnf+bTAICd+Jl7AQBblCEVAaCRACATZYhEAGg7AKzPVopFAFgwABRmS8Q5ANgtADBJV2ZIALC3AMDOEAuyAAgMADBRiIUpAAR7AGDIIyN4AISZABRG8lc88SuuEOcqAAB4mbI8uSQ5RYFbCC1xB1dXLh4ozkkXKxQ2YQJhmkAuwnmZGTKBNA/g88wAAKCRFRHgg/P9eM4Ors7ONo62Dl8t6r8G/yJiYuP+5c+rcEAAAOF0ftH+LC+zGoA7BoBt/qIl7gRoXgugdfeLZrIPQLUAoOnaV/Nw+H48PEWhkLnZ2eXk5NhKxEJbYcpXff5nwl/AV/1s+X48/Pf14L7iJIEyXYFHBPjgwsz0TKUcz5IJhGLc5o9H/LcL//wd0yLESWK5WCoU41EScY5EmozzMqUiiUKSKcUl0v9k4t8s+wM+3zUAsGo+AXuRLahdYwP2SycQWHTA4vcAAPK7b8HUKAgDgGiD4c93/+8//UegJQCAZkmScQAAXkQkLlTKsz/HCAAARKCBKrBBG/TBGCzABhzBBdzBC/xgNoRCJMTCQhBCCmSAHHJgKayCQiiGzbAdKmAv1EAdNMBRaIaTcA4uwlW4Dj1wD/phCJ7BKLyBCQRByAgTYSHaiAFiilgjjggXmYX4IcFIBBKLJCDJiBRRIkuRNUgxUopUIFVIHfI9cgI5h1xGupE7yAAygvyGvEcxlIGyUT3UDLVDuag3GoRGogvQZHQxmo8WoJvQcrQaPYw2oefQq2gP2o8+Q8cwwOgYBzPEbDAuxsNCsTgsCZNjy7EirAyrxhqwVqwDu4n1Y8+xdwQSgUXACTYEd0IgYR5BSFhMWE7YSKggHCQ0EdoJNwkDhFHCJyKTqEu0JroR+cQYYjIxh1hILCPWEo8TLxB7iEPENyQSiUMyJ7mQAkmxpFTSEtJG0m5SI+ksqZs0SBojk8naZGuyBzmULCAryIXkneTD5DPkG+Qh8lsKnWJAcaT4U+IoUspqShnlEOU05QZlmDJBVaOaUt2ooVQRNY9aQq2htlKvUYeoEzR1mjnNgxZJS6WtopXTGmgXaPdpr+h0uhHdlR5Ol9BX0svpR+iX6AP0dwwNhhWDx4hnKBmbGAcYZxl3GK+YTKYZ04sZx1QwNzHrmOeZD5lvVVgqtip8FZHKCpVKlSaVGyovVKmqpqreqgtV81XLVI+pXlN9rkZVM1PjqQnUlqtVqp1Q61MbU2epO6iHqmeob1Q/pH5Z/YkGWcNMw09DpFGgsV/jvMYgC2MZs3gsIWsNq4Z1gTXEJrHN2Xx2KruY/R27iz2qqaE5QzNKM1ezUvOUZj8H45hx+Jx0TgnnKKeX836K3hTvKeIpG6Y0TLkxZVxrqpaXllirSKtRq0frvTau7aedpr1Fu1n7gQ5Bx0onXCdHZ4/OBZ3nU9lT3acKpxZNPTr1ri6qa6UbobtEd79up+6Ynr5egJ5Mb6feeb3n+hx9L/1U/W36p/VHDFgGswwkBtsMzhg8xTVxbzwdL8fb8VFDXcNAQ6VhlWGX4YSRudE8o9VGjUYPjGnGXOMk423GbcajJgYmISZLTepN7ppSTbmmKaY7TDtMx83MzaLN1pk1mz0x1zLnm+eb15vft2BaeFostqi2uGVJsuRaplnutrxuhVo5WaVYVVpds0atna0l1rutu6cRp7lOk06rntZnw7Dxtsm2qbcZsOXYBtuutm22fWFnYhdnt8Wuw+6TvZN9un2N/T0HDYfZDqsdWh1+c7RyFDpWOt6azpzuP33F9JbpL2dYzxDP2DPjthPLKcRpnVOb00dnF2e5c4PziIuJS4LLLpc+Lpsbxt3IveRKdPVxXeF60vWdm7Obwu2o26/uNu5p7ofcn8w0nymeWTNz0MPIQ+BR5dE/C5+VMGvfrH5PQ0+BZ7XnIy9jL5FXrdewt6V3qvdh7xc+9j5yn+M+4zw33jLeWV/MN8C3yLfLT8Nvnl+F30N/I/9k/3r/0QCngCUBZwOJgUGBWwL7+Hp8Ib+OPzrbZfay2e1BjKC5QRVBj4KtguXBrSFoyOyQrSH355jOkc5pDoVQfujW0Adh5mGLw34MJ4WHhVeGP45wiFga0TGXNXfR3ENz30T6RJZE3ptnMU85ry1KNSo+qi5qPNo3ujS6P8YuZlnM1VidWElsSxw5LiquNm5svt/87fOH4p3iC+N7F5gvyF1weaHOwvSFpxapLhIsOpZATIhOOJTwQRAqqBaMJfITdyWOCnnCHcJnIi/RNtGI2ENcKh5O8kgqTXqS7JG8NXkkxTOlLOW5hCepkLxMDUzdmzqeFpp2IG0yPTq9MYOSkZBxQqohTZO2Z+pn5mZ2y6xlhbL+xW6Lty8elQfJa7OQrAVZLQq2QqboVFoo1yoHsmdlV2a/zYnKOZarnivN7cyzytuQN5zvn//tEsIS4ZK2pYZLVy0dWOa9rGo5sjxxedsK4xUFK4ZWBqw8uIq2Km3VT6vtV5eufr0mek1rgV7ByoLBtQFr6wtVCuWFfevc1+1dT1gvWd+1YfqGnRs+FYmKrhTbF5cVf9go3HjlG4dvyr+Z3JS0qavEuWTPZtJm6ebeLZ5bDpaql+aXDm4N2dq0Dd9WtO319kXbL5fNKNu7g7ZDuaO/PLi8ZafJzs07P1SkVPRU+lQ27tLdtWHX+G7R7ht7vPY07NXbW7z3/T7JvttVAVVN1WbVZftJ+7P3P66Jqun4lvttXa1ObXHtxwPSA/0HIw6217nU1R3SPVRSj9Yr60cOxx++/p3vdy0NNg1VjZzG4iNwRHnk6fcJ3/ceDTradox7rOEH0x92HWcdL2pCmvKaRptTmvtbYlu6T8w+0dbq3nr8R9sfD5w0PFl5SvNUyWna6YLTk2fyz4ydlZ19fi753GDborZ752PO32oPb++6EHTh0kX/i+c7vDvOXPK4dPKy2+UTV7hXmq86X23qdOo8/pPTT8e7nLuarrlca7nuer21e2b36RueN87d9L158Rb/1tWeOT3dvfN6b/fF9/XfFt1+cif9zsu72Xcn7q28T7xf9EDtQdlD3YfVP1v+3Njv3H9qwHeg89HcR/cGhYPP/pH1jw9DBY+Zj8uGDYbrnjg+OTniP3L96fynQ89kzyaeF/6i/suuFxYvfvjV69fO0ZjRoZfyl5O/bXyl/erA6xmv28bCxh6+yXgzMV70VvvtwXfcdx3vo98PT+R8IH8o/2j5sfVT0Kf7kxmTk/8EA5jz/GMzLdsAADhraVRYdFhNTDpjb20uYWRvYmUueG1wAAAAAAA8P3hwYWNrZXQgYmVnaW49Iu+7vyIgaWQ9Ilc1TTBNcENlaGlIenJlU3pOVGN6a2M5ZCI/Pgo8eDp4bXBtZXRhIHhtbG5zOng9ImFkb2JlOm5zOm1ldGEvIiB4OnhtcHRrPSJBZG9iZSBYTVAgQ29yZSA1LjYtYzA2NyA3OS4xNTc3NDcsIDIwMTUvMDMvMzAtMjM6NDA6NDIgICAgICAgICI+CiAgIDxyZGY6UkRGIHhtbG5zOnJkZj0iaHR0cDovL3d3dy53My5vcmcvMTk5OS8wMi8yMi1yZGYtc3ludGF4LW5zIyI+CiAgICAgIDxyZGY6RGVzY3JpcHRpb24gcmRmOmFib3V0PSIiCiAgICAgICAgICAgIHhtbG5zOnhtcD0iaHR0cDovL25zLmFkb2JlLmNvbS94YXAvMS4wLyIKICAgICAgICAgICAgeG1sbnM6ZGM9Imh0dHA6Ly9wdXJsLm9yZy9kYy9lbGVtZW50cy8xLjEvIgogICAgICAgICAgICB4bWxuczpwaG90b3Nob3A9Imh0dHA6Ly9ucy5hZG9iZS5jb20vcGhvdG9zaG9wLzEuMC8iCiAgICAgICAgICAgIHhtbG5zOnhtcE1NPSJodHRwOi8vbnMuYWRvYmUuY29tL3hhcC8xLjAvbW0vIgogICAgICAgICAgICB4bWxuczpzdEV2dD0iaHR0cDovL25zLmFkb2JlLmNvbS94YXAvMS4wL3NUeXBlL1Jlc291cmNlRXZlbnQjIgogICAgICAgICAgICB4bWxuczp0aWZmPSJodHRwOi8vbnMuYWRvYmUuY29tL3RpZmYvMS4wLyIKICAgICAgICAgICAgeG1sbnM6ZXhpZj0iaHR0cDovL25zLmFkb2JlLmNvbS9leGlmLzEuMC8iPgogICAgICAgICA8eG1wOkNyZWF0b3JUb29sPkFkb2JlIFBob3Rvc2hvcCBDQyAyMDE1IChXaW5kb3dzKTwveG1wOkNyZWF0b3JUb29sPgogICAgICAgICA8eG1wOkNyZWF0ZURhdGU+MjAxNy0wOS0xNFQxMzoyNDoyMiswMTowMDwveG1wOkNyZWF0ZURhdGU+CiAgICAgICAgIDx4bXA6TW9kaWZ5RGF0ZT4yMDE3LTA5LTE0VDEzOjI0OjQwKzAxOjAwPC94bXA6TW9kaWZ5RGF0ZT4KICAgICAgICAgPHhtcDpNZXRhZGF0YURhdGU+MjAxNy0wOS0xNFQxMzoyNDo0MCswMTowMDwveG1wOk1ldGFkYXRhRGF0ZT4KICAgICAgICAgPGRjOmZvcm1hdD5pbWFnZS9wbmc8L2RjOmZvcm1hdD4KICAgICAgICAgPHBob3Rvc2hvcDpDb2xvck1vZGU+MzwvcGhvdG9zaG9wOkNvbG9yTW9kZT4KICAgICAgICAgPHBob3Rvc2hvcDpJQ0NQcm9maWxlPnNSR0IgSUVDNjE5NjYtMi4xPC9waG90b3Nob3A6SUNDUHJvZmlsZT4KICAgICAgICAgPHhtcE1NOkluc3RhbmNlSUQ+eG1wLmlpZDpjMGI2NDlkMi1kMzI5LWEyNGItODA1My1lMjBlMTc1ZjRhZmQ8L3htcE1NOkluc3RhbmNlSUQ+CiAgICAgICAgIDx4bXBNTTpEb2N1bWVudElEPnhtcC5kaWQ6YzBiNjQ5ZDItZDMyOS1hMjRiLTgwNTMtZTIwZTE3NWY0YWZkPC94bXBNTTpEb2N1bWVudElEPgogICAgICAgICA8eG1wTU06T3JpZ2luYWxEb2N1bWVudElEPnhtcC5kaWQ6YzBiNjQ5ZDItZDMyOS1hMjRiLTgwNTMtZTIwZTE3NWY0YWZkPC94bXBNTTpPcmlnaW5hbERvY3VtZW50SUQ+CiAgICAgICAgIDx4bXBNTTpIaXN0b3J5PgogICAgICAgICAgICA8cmRmOlNlcT4KICAgICAgICAgICAgICAgPHJkZjpsaSByZGY6cGFyc2VUeXBlPSJSZXNvdXJjZSI+CiAgICAgICAgICAgICAgICAgIDxzdEV2dDphY3Rpb24+Y3JlYXRlZDwvc3RFdnQ6YWN0aW9uPgogICAgICAgICAgICAgICAgICA8c3RFdnQ6aW5zdGFuY2VJRD54bXAuaWlkOmMwYjY0OWQyLWQzMjktYTI0Yi04MDUzLWUyMGUxNzVmNGFmZDwvc3RFdnQ6aW5zdGFuY2VJRD4KICAgICAgICAgICAgICAgICAgPHN0RXZ0OndoZW4+MjAxNy0wOS0xNFQxMzoyNDoyMiswMTowMDwvc3RFdnQ6d2hlbj4KICAgICAgICAgICAgICAgICAgPHN0RXZ0OnNvZnR3YXJlQWdlbnQ+QWRvYmUgUGhvdG9zaG9wIENDIDIwMTUgKFdpbmRvd3MpPC9zdEV2dDpzb2Z0d2FyZUFnZW50PgogICAgICAgICAgICAgICA8L3JkZjpsaT4KICAgICAgICAgICAgPC9yZGY6U2VxPgogICAgICAgICA8L3htcE1NOkhpc3Rvcnk+CiAgICAgICAgIDx0aWZmOk9yaWVudGF0aW9uPjE8L3RpZmY6T3JpZW50YXRpb24+CiAgICAgICAgIDx0aWZmOlhSZXNvbHV0aW9uPjcyMDAwMC8xMDAwMDwvdGlmZjpYUmVzb2x1dGlvbj4KICAgICAgICAgPHRpZmY6WVJlc29sdXRpb24+NzIwMDAwLzEwMDAwPC90aWZmOllSZXNvbHV0aW9uPgogICAgICAgICA8dGlmZjpSZXNvbHV0aW9uVW5pdD4yPC90aWZmOlJlc29sdXRpb25Vbml0PgogICAgICAgICA8ZXhpZjpDb2xvclNwYWNlPjE8L2V4aWY6Q29sb3JTcGFjZT4KICAgICAgICAgPGV4aWY6UGl4ZWxYRGltZW5zaW9uPjEzNTA8L2V4aWY6UGl4ZWxYRGltZW5zaW9uPgogICAgICAgICA8ZXhpZjpQaXhlbFlEaW1lbnNpb24+NjAwPC9leGlmOlBpeGVsWURpbWVuc2lvbj4KICAgICAgPC9yZGY6RGVzY3JpcHRpb24+CiAgIDwvcmRmOlJERj4KPC94OnhtcG1ldGE+CiAgICAgICAgICAgICAgICAgICAgICAgICAgICAgICAgICAgICAgICAgICAgICAgICAgICAgICAgICAgICAgICAgICAgICAgICAgICAgICAgICAgICAgICAgICAgICAgICAgICAKICAgICAgICAgICAgICAgICAgICAgICAgICAgICAgICAgICAgICAgICAgICAgICAgICAgICAgICAgICAgICAgICAgICAgICAgICAgICAgICAgICAgICAgICAgICAgICAgICAgIAogICAgICAgICAgICAgICAgICAgICAgICAgICAgICAgICAgICAgICAgICAgICAgICAgICAgICAgICAgICAgICAgICAgICAgICAgICAgICAgICAgICAgICAgICAgICAgICAgICAgCiAgICAgICAgICAgICAgICAgICAgICAgICAgICAgICAgICAgICAgICAgICAgICAgICAgICAgICAgICAgICAgICAgICAgICAgICAgICAgICAgICAgICAgICAgICAgICAgICAgICAKICAgICAgICAgICAgICAgICAgICAgICAgICAgICAgICAgICAgICAgICAgICAgICAgICAgICAgICAgICAgICAgICAgICAgICAgICAgICAgICAgICAgICAgICAgICAgICAgICAgIAogICAgICAgICAgICAgICAgICAgICAgICAgICAgICAgICAgICAgICAgICAgICAgICAgICAgICAgICAgICAgICAgICAgICAgICAgICAgICAgICAgICAgICAgICAgICAgICAgICAgCiAgICAgICAgICAgICAgICAgICAgICAgICAgICAgICAgICAgICAgICAgICAgICAgICAgICAgICAgICAgICAgICAgICAgICAgICAgICAgICAgICAgICAgICAgICAgICAgICAgICAKICAgICAgICAgICAgICAgICAgICAgICAgICAgICAgICAgICAgICAgICAgICAgICAgICAgICAgICAgICAgICAgICAgICAgICAgICAgICAgICAgICAgICAgICAgICAgICAgICAgIAogICAgICAgICAgICAgICAgICAgICAgICAgICAgICAgICAgICAgICAgICAgICAgICAgICAgICAgICAgICAgICAgICAgICAgICAgICAgICAgICAgICAgICAgICAgICAgICAgICAgCiAgICAgICAgICAgICAgICAgICAgICAgICAgICAgICAgICAgICAgICAgICAgICAgICAgICAgICAgICAgICAgICAgICAgICAgICAgICAgICAgICAgICAgICAgICAgICAgICAgICAKICAgICAgICAgICAgICAgICAgICAgICAgICAgICAgICAgICAgICAgICAgICAgICAgICAgICAgICAgICAgICAgICAgICAgICAgICAgICAgICAgICAgICAgICAgICAgICAgICAgIAogICAgICAgICAgICAgICAgICAgICAgICAgICAgICAgICAgICAgICAgICAgICAgICAgICAgICAgICAgICAgICAgICAgICAgICAgICAgICAgICAgICAgICAgICAgICAgICAgICAgCiAgICAgICAgICAgICAgICAgICAgICAgICAgICAgICAgICAgICAgICAgICAgICAgICAgICAgICAgICAgICAgICAgICAgICAgICAgICAgICAgICAgICAgICAgICAgICAgICAgICAKICAgICAgICAgICAgICAgICAgICAgICAgICAgICAgICAgICAgICAgICAgICAgICAgICAgICAgICAgICAgICAgICAgICAgICAgICAgICAgICAgICAgICAgICAgICAgICAgICAgIAogICAgICAgICAgICAgICAgICAgICAgICAgICAgICAgICAgICAgICAgICAgICAgICAgICAgICAgICAgICAgICAgICAgICAgICAgICAgICAgICAgICAgICAgICAgICAgICAgICAgCiAgICAgICAgICAgICAgICAgICAgICAgICAgICAgICAgICAgICAgICAgICAgICAgICAgICAgICAgICAgICAgICAgICAgICAgICAgICAgICAgICAgICAgICAgICAgICAgICAgICAKICAgICAgICAgICAgICAgICAgICAgICAgICAgICAgICAgICAgICAgICAgICAgICAgICAgICAgICAgICAgICAgICAgICAgICAgICAgICAgICAgICAgICAgICAgICAgICAgICAgIAogICAgICAgICAgICAgICAgICAgICAgICAgICAgICAgICAgICAgICAgICAgICAgICAgICAgICAgICAgICAgICAgICAgICAgICAgICAgICAgICAgICAgICAgICAgICAgICAgICAgCiAgICAgICAgICAgICAgICAgICAgICAgICAgICAgICAgICAgICAgICAgICAgICAgICAgICAgICAgICAgICAgICAgICAgICAgICAgICAgICAgICAgICAgICAgICAgICAgICAgICAKICAgICAgICAgICAgICAgICAgICAgICAgICAgICAgICAgICAgICAgICAgICAgICAgICAgICAgICAgICAgICAgICAgICAgICAgICAgICAgICAgICAgICAgICAgICAgICAgICAgIAogICAgICAgICAgICAgICAgICAgICAgICAgICAgICAgICAgICAgICAgICAgICAgICAgICAgICAgICAgICAgICAgICAgICAgICAgICAgICAgICAgICAgICAgICAgICAgICAgICAgCiAgICAgICAgICAgICAgICAgICAgICAgICAgICAgICAgICAgICAgICAgICAgICAgICAgICAgICAgICAgICAgICAgICAgICAgICAgICAgICAgICAgICAgICAgICAgICAgICAgICAKICAgICAgICAgICAgICAgICAgICAgICAgICAgICAgICAgICAgICAgICAgICAgICAgICAgICAgICAgICAgICAgICAgICAgICAgICAgICAgICAgICAgICAgICAgICAgICAgICAgIAogICAgICAgICAgICAgICAgICAgICAgICAgICAgICAgICAgICAgICAgICAgICAgICAgICAgICAgICAgICAgICAgICAgICAgICAgICAgICAgICAgICAgICAgICAgICAgICAgICAgCiAgICAgICAgICAgICAgICAgICAgICAgICAgICAgICAgICAgICAgICAgICAgICAgICAgICAgICAgICAgICAgICAgICAgICAgICAgICAgICAgICAgICAgICAgICAgICAgICAgICAKICAgICAgICAgICAgICAgICAgICAgICAgICAgICAgICAgICAgICAgICAgICAgICAgICAgICAgICAgICAgICAgICAgICAgICAgICAgICAgICAgICAgICAgICAgICAgICAgICAgIAogICAgICAgICAgICAgICAgICAgICAgICAgICAgICAgICAgICAgICAgICAgICAgICAgICAgICAgICAgICAgICAgICAgICAgICAgICAgICAgICAgICAgICAgICAgICAgICAgICAgCiAgICAgICAgICAgICAgICAgICAgICAgICAgICAgICAgICAgICAgICAgICAgICAgICAgICAgICAgICAgICAgICAgICAgICAgICAgICAgICAgICAgICAgICAgICAgICAgICAgICAKICAgICAgICAgICAgICAgICAgICAgICAgICAgICAgICAgICAgICAgICAgICAgICAgICAgICAgICAgICAgICAgICAgICAgICAgICAgICAgICAgICAgICAgICAgICAgICAgICAgIAogICAgICAgICAgICAgICAgICAgICAgICAgICAgICAgICAgICAgICAgICAgICAgICAgICAgICAgICAgICAgICAgICAgICAgICAgICAgICAgICAgICAgICAgICAgICAgICAgICAgCiAgICAgICAgICAgICAgICAgICAgICAgICAgICAgICAgICAgICAgICAgICAgICAgICAgICAgICAgICAgICAgICAgICAgICAgICAgICAgICAgICAgICAgICAgICAgICAgICAgICAKICAgICAgICAgICAgICAgICAgICAgICAgICAgICAgICAgICAgICAgICAgICAgICAgICAgICAgICAgICAgICAgICAgICAgICAgICAgICAgICAgICAgICAgICAgICAgICAgICAgIAogICAgICAgICAgICAgICAgICAgICAgICAgICAgICAgICAgICAgICAgICAgICAgICAgICAgICAgICAgICAgICAgICAgICAgICAgICAgICAgICAgICAgICAgICAgICAgICAgICAgCiAgICAgICAgICAgICAgICAgICAgICAgICAgICAgICAgICAgICAgICAgICAgICAgICAgICAgICAgICAgICAgICAgICAgICAgICAgICAgICAgICAgICAgICAgICAgICAgICAgICAKICAgICAgICAgICAgICAgICAgICAgICAgICAgICAgICAgICAgICAgICAgICAgICAgICAgICAgICAgICAgICAgICAgICAgICAgICAgICAgICAgICAgICAgICAgICAgICAgICAgIAogICAgICAgICAgICAgICAgICAgICAgICAgICAgICAgICAgICAgICAgICAgICAgICAgICAgICAgICAgICAgICAgICAgICAgICAgICAgICAgICAgICAgICAgICAgICAgICAgICAgCiAgICAgICAgICAgICAgICAgICAgICAgICAgICAgICAgICAgICAgICAgICAgICAgICAgICAgICAgICAgICAgICAgICAgICAgICAgICAgICAgICAgICAgICAgICAgICAgICAgICAKICAgICAgICAgICAgICAgICAgICAgICAgICAgICAgICAgICAgICAgICAgICAgICAgICAgICAgICAgICAgICAgICAgICAgICAgICAgICAgICAgICAgICAgICAgICAgICAgICAgIAogICAgICAgICAgICAgICAgICAgICAgICAgICAgICAgICAgICAgICAgICAgICAgICAgICAgICAgICAgICAgICAgICAgICAgICAgICAgICAgICAgICAgICAgICAgICAgICAgICAgCiAgICAgICAgICAgICAgICAgICAgICAgICAgICAgICAgICAgICAgICAgICAgICAgICAgICAgICAgICAgICAgICAgICAgICAgICAgICAgICAgICAgICAgICAgICAgICAgICAgICAKICAgICAgICAgICAgICAgICAgICAgICAgICAgICAgICAgICAgICAgICAgICAgICAgICAgICAgICAgICAgICAgICAgICAgICAgICAgICAgICAgICAgICAgICAgICAgICAgICAgIAogICAgICAgICAgICAgICAgICAgICAgICAgICAgICAgICAgICAgICAgICAgICAgICAgICAgICAgICAgICAgICAgICAgICAgICAgICAgICAgICAgICAgICAgICAgICAgICAgICAgCiAgICAgICAgICAgICAgICAgICAgICAgICAgICAgICAgICAgICAgICAgICAgICAgICAgICAgICAgICAgICAgICAgICAgICAgICAgICAgICAgICAgICAgICAgICAgICAgICAgICAKICAgICAgICAgICAgICAgICAgICAgICAgICAgICAgICAgICAgICAgICAgICAgICAgICAgICAgICAgICAgICAgICAgICAgICAgICAgICAgICAgICAgICAgICAgICAgICAgICAgIAogICAgICAgICAgICAgICAgICAgICAgICAgICAgICAgICAgICAgICAgICAgICAgICAgICAgICAgICAgICAgICAgICAgICAgICAgICAgICAgICAgICAgICAgICAgICAgICAgICAgCiAgICAgICAgICAgICAgICAgICAgICAgICAgICAgICAgICAgICAgICAgICAgICAgICAgICAgICAgICAgICAgICAgICAgICAgICAgICAgICAgICAgICAgICAgICAgICAgICAgICAKICAgICAgICAgICAgICAgICAgICAgICAgICAgICAgICAgICAgICAgICAgICAgICAgICAgICAgICAgICAgICAgICAgICAgICAgICAgICAgICAgICAgICAgICAgICAgICAgICAgIAogICAgICAgICAgICAgICAgICAgICAgICAgICAgICAgICAgICAgICAgICAgICAgICAgICAgICAgICAgICAgICAgICAgICAgICAgICAgICAgICAgICAgICAgICAgICAgICAgICAgCiAgICAgICAgICAgICAgICAgICAgICAgICAgICAgICAgICAgICAgICAgICAgICAgICAgICAgICAgICAgICAgICAgICAgICAgICAgICAgICAgICAgICAgICAgICAgICAgICAgICAKICAgICAgICAgICAgICAgICAgICAgICAgICAgICAgICAgICAgICAgICAgICAgICAgICAgICAgICAgICAgICAgICAgICAgICAgICAgICAgICAgICAgICAgICAgICAgICAgICAgIAogICAgICAgICAgICAgICAgICAgICAgICAgICAgICAgICAgICAgICAgICAgICAgICAgICAgICAgICAgICAgICAgICAgICAgICAgICAgICAgICAgICAgICAgICAgICAgICAgICAgCiAgICAgICAgICAgICAgICAgICAgICAgICAgICAgICAgICAgICAgICAgICAgICAgICAgICAgICAgICAgICAgICAgICAgICAgICAgICAgICAgICAgICAgICAgICAgICAgICAgICAKICAgICAgICAgICAgICAgICAgICAgICAgICAgICAgICAgICAgICAgICAgICAgICAgICAgICAgICAgICAgICAgICAgICAgICAgICAgICAgICAgICAgICAgICAgICAgICAgICAgIAogICAgICAgICAgICAgICAgICAgICAgICAgICAgICAgICAgICAgICAgICAgICAgICAgICAgICAgICAgICAgICAgICAgICAgICAgICAgICAgICAgICAgICAgICAgICAgICAgICAgCiAgICAgICAgICAgICAgICAgICAgICAgICAgICAgICAgICAgICAgICAgICAgICAgICAgICAgICAgICAgICAgICAgICAgICAgICAgICAgICAgICAgICAgICAgICAgICAgICAgICAKICAgICAgICAgICAgICAgICAgICAgICAgICAgICAgICAgICAgICAgICAgICAgICAgICAgICAgICAgICAgICAgICAgICAgICAgICAgICAgICAgICAgICAgICAgICAgICAgICAgIAogICAgICAgICAgICAgICAgICAgICAgICAgICAgICAgICAgICAgICAgICAgICAgICAgICAgICAgICAgICAgICAgICAgICAgICAgICAgICAgICAgICAgICAgICAgICAgICAgICAgCiAgICAgICAgICAgICAgICAgICAgICAgICAgICAgICAgICAgICAgICAgICAgICAgICAgICAgICAgICAgICAgICAgICAgICAgICAgICAgICAgICAgICAgICAgICAgICAgICAgICAKICAgICAgICAgICAgICAgICAgICAgICAgICAgICAgICAgICAgICAgICAgICAgICAgICAgICAgICAgICAgICAgICAgICAgICAgICAgICAgICAgICAgICAgICAgICAgICAgICAgIAogICAgICAgICAgICAgICAgICAgICAgICAgICAgICAgICAgICAgICAgICAgICAgICAgICAgICAgICAgICAgICAgICAgICAgICAgICAgICAgICAgICAgICAgICAgICAgICAgICAgCiAgICAgICAgICAgICAgICAgICAgICAgICAgICAgICAgICAgICAgICAgICAgICAgICAgICAgICAgICAgICAgICAgICAgICAgICAgICAgICAgICAgICAgICAgICAgICAgICAgICAKICAgICAgICAgICAgICAgICAgICAgICAgICAgICAgICAgICAgICAgICAgICAgICAgICAgICAgICAgICAgICAgICAgICAgICAgICAgICAgICAgICAgICAgICAgICAgICAgICAgIAogICAgICAgICAgICAgICAgICAgICAgICAgICAgICAgICAgICAgICAgICAgICAgICAgICAgICAgICAgICAgICAgICAgICAgICAgICAgICAgICAgICAgICAgICAgICAgICAgICAgCiAgICAgICAgICAgICAgICAgICAgICAgICAgICAgICAgICAgICAgICAgICAgICAgICAgICAgICAgICAgICAgICAgICAgICAgICAgICAgICAgICAgICAgICAgICAgICAgICAgICAKICAgICAgICAgICAgICAgICAgICAgICAgICAgICAgICAgICAgICAgICAgICAgICAgICAgICAgICAgICAgICAgICAgICAgICAgICAgICAgICAgICAgICAgICAgICAgICAgICAgIAogICAgICAgICAgICAgICAgICAgICAgICAgICAgICAgICAgICAgICAgICAgICAgICAgICAgICAgICAgICAgICAgICAgICAgICAgICAgICAgICAgICAgICAgICAgICAgICAgICAgCiAgICAgICAgICAgICAgICAgICAgICAgICAgICAgICAgICAgICAgICAgICAgICAgICAgICAgICAgICAgICAgICAgICAgICAgICAgICAgICAgICAgICAgICAgICAgICAgICAgICAKICAgICAgICAgICAgICAgICAgICAgICAgICAgICAgICAgICAgICAgICAgICAgICAgICAgICAgICAgICAgICAgICAgICAgICAgICAgICAgICAgICAgICAgICAgICAgICAgICAgIAogICAgICAgICAgICAgICAgICAgICAgICAgICAgICAgICAgICAgICAgICAgICAgICAgICAgICAgICAgICAgICAgICAgICAgICAgICAgICAgICAgICAgICAgICAgICAgICAgICAgCiAgICAgICAgICAgICAgICAgICAgICAgICAgICAgICAgICAgICAgICAgICAgICAgICAgICAgICAgICAgICAgICAgICAgICAgICAgICAgICAgICAgICAgICAgICAgICAgICAgICAKICAgICAgICAgICAgICAgICAgICAgICAgICAgICAgICAgICAgICAgICAgICAgICAgICAgICAgICAgICAgICAgICAgICAgICAgICAgICAgICAgICAgICAgICAgICAgICAgICAgIAogICAgICAgICAgICAgICAgICAgICAgICAgICAgICAgICAgICAgICAgICAgICAgICAgICAgICAgICAgICAgICAgICAgICAgICAgICAgICAgICAgICAgICAgICAgICAgICAgICAgCiAgICAgICAgICAgICAgICAgICAgICAgICAgICAgICAgICAgICAgICAgICAgICAgICAgICAgICAgICAgICAgICAgICAgICAgICAgICAgICAgICAgICAgICAgICAgICAgICAgICAKICAgICAgICAgICAgICAgICAgICAgICAgICAgICAgICAgICAgICAgICAgICAgICAgICAgICAgICAgICAgICAgICAgICAgICAgICAgICAgICAgICAgICAgICAgICAgICAgICAgIAogICAgICAgICAgICAgICAgICAgICAgICAgICAgICAgICAgICAgICAgICAgICAgICAgICAgICAgICAgICAgICAgICAgICAgICAgICAgICAgICAgICAgICAgICAgICAgICAgICAgCiAgICAgICAgICAgICAgICAgICAgICAgICAgICAgICAgICAgICAgICAgICAgICAgICAgICAgICAgICAgICAgICAgICAgICAgICAgICAgICAgICAgICAgICAgICAgICAgICAgICAKICAgICAgICAgICAgICAgICAgICAgICAgICAgICAgICAgICAgICAgICAgICAgICAgICAgICAgICAgICAgICAgICAgICAgICAgICAgICAgICAgICAgICAgICAgICAgICAgICAgIAogICAgICAgICAgICAgICAgICAgICAgICAgICAgICAgICAgICAgICAgICAgICAgICAgICAgICAgICAgICAgICAgICAgICAgICAgICAgICAgICAgICAgICAgICAgICAgICAgICAgCiAgICAgICAgICAgICAgICAgICAgICAgICAgICAgICAgICAgICAgICAgICAgICAgICAgICAgICAgICAgICAgICAgICAgICAgICAgICAgICAgICAgICAgICAgICAgICAgICAgICAKICAgICAgICAgICAgICAgICAgICAgICAgICAgICAgICAgICAgICAgICAgICAgICAgICAgICAgICAgICAgICAgICAgICAgICAgICAgICAgICAgICAgICAgICAgICAgICAgICAgIAogICAgICAgICAgICAgICAgICAgICAgICAgICAgICAgICAgICAgICAgICAgICAgICAgICAgICAgICAgICAgICAgICAgICAgICAgICAgICAgICAgICAgICAgICAgICAgICAgICAgCiAgICAgICAgICAgICAgICAgICAgICAgICAgICAgICAgICAgICAgICAgICAgICAgICAgICAgICAgICAgICAgICAgICAgICAgICAgICAgICAgICAgICAgICAgICAgICAgICAgICAKICAgICAgICAgICAgICAgICAgICAgICAgICAgICAgICAgICAgICAgICAgICAgICAgICAgICAgICAgICAgICAgICAgICAgICAgICAgICAgICAgICAgICAgICAgICAgICAgICAgIAogICAgICAgICAgICAgICAgICAgICAgICAgICAgICAgICAgICAgICAgICAgICAgICAgICAgICAgICAgICAgICAgICAgICAgICAgICAgICAgICAgICAgICAgICAgICAgICAgICAgCiAgICAgICAgICAgICAgICAgICAgICAgICAgICAgICAgICAgICAgICAgICAgICAgICAgICAgICAgICAgICAgICAgICAgICAgICAgICAgICAgICAgICAgICAgICAgICAgICAgICAKICAgICAgICAgICAgICAgICAgICAgICAgICAgICAgICAgICAgICAgICAgICAgICAgICAgICAgICAgICAgICAgICAgICAgICAgICAgICAgICAgICAgICAgICAgICAgICAgICAgIAogICAgICAgICAgICAgICAgICAgICAgICAgICAgICAgICAgICAgICAgICAgICAgICAgICAgICAgICAgICAgICAgICAgICAgICAgICAgICAgICAgICAgICAgICAgICAgICAgICAgCiAgICAgICAgICAgICAgICAgICAgICAgICAgICAgICAgICAgICAgICAgICAgICAgICAgICAgICAgICAgICAgICAgICAgICAgICAgICAgICAgICAgICAgICAgICAgICAgICAgICAKICAgICAgICAgICAgICAgICAgICAgICAgICAgICAgICAgICAgICAgICAgICAgICAgICAgICAgICAgICAgICAgICAgICAgICAgICAgICAgICAgICAgICAgICAgICAgICAgICAgIAogICAgICAgICAgICAgICAgICAgICAgICAgICAgICAgICAgICAgICAgICAgICAgICAgICAgICAgICAgICAgICAgICAgICAgICAgICAgICAgICAgICAgICAgICAgICAgICAgICAgCiAgICAgICAgICAgICAgICAgICAgICAgICAgICAgICAgICAgICAgICAgICAgICAgICAgICAgICAgICAgICAgICAgICAgICAgICAgICAgICAgICAgICAgICAgICAgICAgICAgICAKICAgICAgICAgICAgICAgICAgICAgICAgICAgICAgICAgICAgICAgICAgICAgICAgICAgICAgICAgICAgICAgICAgICAgICAgICAgICAgICAgICAgICAgICAgICAgICAgICAgIAogICAgICAgICAgICAgICAgICAgICAgICAgICAgICAgICAgICAgICAgICAgICAgICAgICAgICAgICAgICAgICAgICAgICAgICAgICAgICAgICAgICAgICAgICAgICAgICAgICAgCiAgICAgICAgICAgICAgICAgICAgICAgICAgICAgICAgICAgICAgICAgICAgICAgICAgICAgICAgICAgICAgICAgICAgICAgICAgICAgICAgICAgICAgICAgICAgICAgICAgICAKICAgICAgICAgICAgICAgICAgICAgICAgICAgICAgICAgICAgICAgICAgICAgICAgICAgICAgICAgICAgICAgICAgICAgICAgICAgICAgICAgICAgICAgICAgICAgICAgICAgIAogICAgICAgICAgICAgICAgICAgICAgICAgICAgICAgICAgICAgICAgICAgICAgICAgICAgICAgICAgICAgICAgICAgICAgICAgICAgICAgICAgICAgICAgICAgICAgICAgICAgCiAgICAgICAgICAgICAgICAgICAgICAgICAgICAgICAgICAgICAgICAgICAgICAgICAgICAgICAgICAgICAgICAgICAgICAgICAgICAgICAgICAgICAgICAgICAgICAgICAgICAKICAgICAgICAgICAgICAgICAgICAgICAgICAgICAgICAgICAgICAgICAgICAgICAgICAgICAgICAgICAgICAgICAgICAgICAgICAgICAgICAgICAgICAgICAgICAgICAgICAgIAogICAgICAgICAgICAgICAgICAgICAgICAgICAgICAgICAgICAgICAgICAgICAgICAgICAgICAgICAgICAgICAgICAgICAgICAgICAgICAgICAgICAgICAgICAgICAgICAgICAgCiAgICAgICAgICAgICAgICAgICAgICAgICAgICAgICAgICAgICAgICAgICAgICAgICAgICAgICAgICAgICAgICAgICAgICAgICAgICAgICAgICAgICAgICAgICAgICAgICAgICAKICAgICAgICAgICAgICAgICAgICAgICAgICAgICAgICAgICAgICAgICAgICAgICAgICAgICAgICAgICAgICAgICAgICAgICAgICAgICAgICAgICAgICAgICAgICAgICAgICAgIAogICAgICAgICAgICAgICAgICAgICAgICAgICAgICAgICAgICAgICAgICAgICAgICAgICAgICAgICAgICAgICAgICAgICAgICAgICAgICAgICAgICAgICAgICAgICAgICAgICAgCiAgICAgICAgICAgICAgICAgICAgICAgICAgICAgICAgICAgICAgICAgICAgICAgICAgICAgICAgICAgICAgICAgICAgICAgICAgICAgICAgICAgICAgICAgICAgICAgICAgICAKICAgICAgICAgICAgICAgICAgICAgICAgICAgICAgICAgICAgICAgICAgICAgICAgICAgICAgICAgICAgICAgICAgICAgICAgICAgICAgICAgICAgICAgICAgICAgICAgICAgIAogICAgICAgICAgICAgICAgICAgICAgICAgICAgICAgICAgICAgICAgICAgICAgICAgICAgICAgICAgICAgICAgICAgICAgICAgICAgICAgICAgICAgICAgICAgICAgICAgICAgCiAgICAgICAgICAgICAgICAgICAgICAgICAgICAgICAgICAgICAgICAgICAgICAgICAgICAgICAgICAgICAgICAgICAgICAgICAgICAgICAgICAgICAgICAgICAgICAgICAgICAKICAgICAgICAgICAgICAgICAgICAgICAgICAgICAgICAgICAgICAgICAgICAgICAgICAgICAgICAgICAgICAgICAgICAgICAgICAgICAgICAgICAgICAgICAgICAgICAgICAgIAogICAgICAgICAgICAgICAgICAgICAgICAgICAgICAgICAgICAgICAgICAgICAgICAgICAgICAgICAgICAgICAgICAgICAgICAgICAgICAgICAgICAgICAgICAgICAgICAgICAgCiAgICAgICAgICAgICAgICAgICAgICAgICAgICAgICAgICAgICAgICAgICAgICAgICAgICAgICAgICAgICAgICAgICAgICAgICAgICAgICAgICAgICAgICAgICAgICAgICAgICAKICAgICAgICAgICAgICAgICAgICAgICAgICAgICAgICAgICAgICAgICAgICAgICAgICAgICAgICAgICAgICAgICAgICAgICAgICAgICAgICAgICAgICAgICAgICAgICAgICAgIAogICAgICAgICAgICAgICAgICAgICAgICAgICAgICAgICAgICAgICAgICAgICAgICAgICAgICAgICAgICAgICAgICAgICAgICAgICAgICAgICAgICAgICAgICAgICAgICAgICAgCiAgICAgICAgICAgICAgICAgICAgICAgICAgICAgICAgICAgICAgICAgICAgICAgICAgICAgICAgICAgICAgICAgICAgICAgICAgICAgICAgICAgICAgICAgICAgICAgICAgICAKICAgICAgICAgICAgICAgICAgICAgICAgICAgICAgICAgICAgICAgICAgICAgICAgICAgICAgICAgICAgICAgICAgICAgICAgICAgICAgICAgICAgICAgICAgICAgICAgICAgIAogICAgICAgICAgICAgICAgICAgICAgICAgICAgICAgICAgICAgICAgICAgICAgICAgICAgICAgICAgICAgICAgICAgICAgICAgICAgICAgICAgICAgICAgICAgICAgICAgICAgCiAgICAgICAgICAgICAgICAgICAgICAgICAgICAgICAgICAgICAgICAgICAgICAgICAgICAgICAgICAgICAgICAgICAgICAgICAgICAgICAgICAgICAgICAgICAgICAgICAgICAKICAgICAgICAgICAgICAgICAgICAgICAgICAgICAgICAgICAgICAgICAgICAgICAgICAgICAgICAgICAgICAgICAgICAgICAgICAgICAgICAgICAgICAgICAgICAgICAgICAgIAogICAgICAgICAgICAgICAgICAgICAgICAgICAgICAgICAgICAgICAgICAgICAgICAgICAgICAgICAgICAgICAgICAgICAgICAgICAgICAgICAgICAgICAgICAgICAgICAgICAgCiAgICAgICAgICAgICAgICAgICAgICAgICAgICAgICAgICAgICAgICAgICAgICAgICAgICAgICAgICAgICAgICAgICAgICAgICAgICAgICAgICAgICAgICAgICAgICAgICAgICAKICAgICAgICAgICAgICAgICAgICAgICAgICAgICAgICAgICAgICAgICAgICAgICAgICAgICAgICAgICAgICAgICAgICAgICAgICAgICAgICAgICAgICAgICAgICAgICAgICAgIAogICAgICAgICAgICAgICAgICAgICAgICAgICAgCjw/eHBhY2tldCBlbmQ9InciPz7sBQJWAAAAIGNIUk0AAHolAACAgwAA+f8AAIDpAAB1MAAA6mAAADqYAAAXb5JfxUYAARU0SURBVHja7P15lFvXfS/4fn9HIlkkRQKsokiKgwqUJWug5AItWbNUh5Jnyy7QdjzEThfYWTdOnPQi1K/Xu++u+/oRvL3S3WuluwVlJddJbnIJxrFjO3YIeh5kE7Qty5ItEaXJsiaixEEkxQFFSmKRErHfH3ufg3MwFarqAIXh+9GCigWgDs4MnC9+e29RSoGIiIiIiIiIiIiol1hcBURERERERERERNRrGIwSERERERERERFRz2EwSkRERERERERERD2HwSgRERERERERERH1HAajRERERERERERE1HMYjBIREREREREREVHPYTBKREREREREREREPYfBKBEREREREREREfUcBqNERERERERERETUcxiMEhERERERERERUc9hMEpEREREREREREQ9h8EoERERERERERER9RwGo0RERERERERERNRzGIwSERERERERERFRz2EwSkRERERERERERD2HwSgRERERERERERH1HAajRERERERERERE1HMYjBIREREREREREVHPYTBKREREREREREREPYfBKBEREREREREREfUcBqNERERERERERETUcxiMEhERERERERERUc9hMEpEREREREREREQ9h8EoERERERERERER9RwGo0RERERERERERNRzGIwSERERERERERFRz2EwSkRERERERERERD2HwSgRERERERERERH1HAajRERERERERERE1HMYjBIREREREREREVHPYTBKREREREREREREPYfBKBEREREREREREfUcBqNERERERERERETUcxiMEhERERERERERUc9hMEpEREREREREREQ9h8EoERERERERERER9RwGo0RERERERERERNRzGIwSERERERERERFRz2EwSkRERERERERERD2HwSgRERERERERERH1HAajRERERERERERE1HMYjBIREREREREREVHPYTBKREREREREREREPYfBKBEREREREREREfUcBqNERERERERERETUcxiMEhERERERERERUc9hMEpEREREREREREQ9h8EoERERERERERER9RwGo0RERERERERERNRzGIwSERERERERERFRz2EwSkRERERERERERD2HwSgRERERERERERH1HAajRERERERERERE1HMYjBIREREREREREVHPYTBKREREREREREREPYfBKBEREREREREREfUcBqNERERERERERETUcxiMEhERERERERERUc9hMEpEREREREREREQ9h8EoERERERERERER9RwGo0RERERERERERNRzGIwSERERERERERFRz2EwSkRERERERERERD2HwSgRERERERERERH1HAajRERERERERERE1HMYjBIREREREREREVHPYTBKREREREREREREPYfBKBEREREREREREfUcBqNERERERERERETUcxiMEhERERERERERUc9hMEpEREREREREREQ9h8EoERERERERERER9RwGo0RERERERERERNRzGIwSERERERERERFRz2EwSkRERERERERERD2HwSgRERERERERERH1HAajRERERERERERE1HMYjBIREREREREREVHPYTBKREREREREREREPYfBKBEREREREREREfUcBqNERERERERERETUcxiMEhERERERERERUc9hMEpEREREREREREQ9h8EoERERERERERER9RwGo0RERERERERERNRzGIwSERERERERERFRz2EwSkRERERERERERD2HwSgRERERERERERH1HAajRERERERERERE1HMYjBIREREREREREVHPYTBKREREREREREREPYfBKBEREREREREREfUcBqNERERERERERETUcxiMEhERERERERERUc9hMEpEREREREREREQ9h8EoERERERERERER9RwGo0RERERERERERNRzGIwSERERERERERFRz2EwSkRERERERERERD2HwSgRERERERERERH1HAajRERERERERERE1HMYjBIREREREREREVHPYTBKREREREREREREPYfBKBEREREREREREfUcBqNERERERERERETUcxiMEhERERERERERUc9hMEpEREREREREREQ9h8EoERERERERERER9RwGo0RERERERERERNRzGIwSERERERERERFRz2EwSkRERERERERERD2HwSgRERERERERERH1HAajRERERERERERE1HMYjBIREREREREREVHPYTBKREREREREREREPYfBKBEREREREREREfUcBqNERERERERERETUcxiMEhERERERERERUc9hMEpEREREREREREQ9h8EoERERERERERER9RwGo0RERERERERERNRzGIwSERERERERERFRz2EwSkRERERERERERD2HwSgRERERERERERH1HAajRERERERERERE1HMYjBIREREREREREVHPYTBKREREREREREREPYfBKBEREREREREREfUcBqNERERERERERETUcxiMEhERERERERERUc9hMEpEREREREREREQ9h8EoERERERERERER9RwGo0RERERERERERNRzGIwSERERERERERFRz2EwSkRERERERERERD3n4naYCRHhlugB3/3+D4fv+/AH93JNEHUPpRRXAhEREREREXUkaYeLWgaj3evb3/vBiAAxEYlBJAzAvu9DH2A4StQlGIwSERERERFRp7qYq4CCtvs73x8RS2IAYgKERQQQgc6/xQbAYJSIiIiIiIiIiOYUg1EKROY73xsCkBBIDIIwAAhMNbAIRCQjgpgAMQDbucaIiIiIiIiIiGgusSk9zdi/7/7uoAAJ3UweEYGuCnXDUCAHkZSIZD7ywfdP/OBHP1FmW4c/+P73TnANEnU+NqUnIiIiIiKiTsWKUZqWb+36dkhE4gDiAkR1CKrDUNFhaEFEMgBS9334g2Pev3Wea4nEAOzk2iQiIiIiIiIiornCYJQa8s1d3x41zeBjQCkI9YSiOQFSIpK578MfrFoNKiI5EURFxAaDUSIiIiIiIiIimkMMRqmmb3xr95AIEtBhaBjwVIbqULSg+w6V1Mc+8qGxqaZnWVLQ00AMwBauYSIiIiIiIiIimisMRsnn69/cFQIQF5EEgAjgD0N1Hio5CFICyYzc9+GG+woVQQ6ALZDwT3+2Z+Teezbt5honIiIiIiIiIqK5wGCUAAD/+o1/HxGRmFKI6wGSBJb4RpWHAGmBpGMf+8jemb2K5N2R6nUVKoNRIiIiIiIiIiKaEwxGe9hXvv6tQdHVoXF4qkMtS+AGmCIFAVICpDeP3Dc+m9ezRHL6X8Lm9ERERERERERENKcYjPagf/nXbw6j1HcogFJzeU8omgOQ+kTsowEOkiR5ABALEJFw9ue/GLHvvotVo0RERERERERE1HIMRnvEP3/lG6bvUCQgiJim8WX9hwoAZCCS+sTmj+0Neh7u2TQ8vmfv3oKIhHXVqMTA5vRERERERERERDQHRCk19zOhAzlqgvSXvzYkIgkR3XeoiAWxqoaiaREk/+DjI+PNnJ/sz3+xRwS2aU5fEJHIXXfcMcEtRdSZ2uE9hIiIiIiIiGgmWDHapXZ8+WujAsQB2CJOCFoRihZEJCUiqU99YqQl4aSIZN15goShm/Pv5BYjIiIiIiIiIqJWYjDaRf4x/ZUQgLhlWQl4BlNyQ1GBE4qaQBSpT38y1tJqTRHkAB3OQoejMTAYJSIiIiIiIiKiFmNT+i7wD//9XwZFkBCRuIiELcvyNZW3LLe5fF5Ekp/91MfnLIj8+S8fHhRB3kSjzrxFbrv11nFuSaLOw6b0RERERERE1KlYMdrB/v6fvjwEIAHdZF6HoFUGVYJIHiLJP/z0J+a8MvPuO+8Y/+XDv8qLiB4ASpeOxgFs5xYlIiIiIiIiIqJWYTDagb7033YOi0gSgO2Ei+Wjy7sVopYkP/+ZT7ZVU3URyerqVsAMwhQHg1EiIiIiIiIiImohBqMd5L/+fXoYgiR8gaipFLUsTyCKgghSIpL6/Gc+2XYjvluWZAHETSgKEYk8+thvRm65+T27uZWJiIiIiIiIiKgVGIx2gL/5ux3D4gtE/VWibigKFACkAEn90R9+aqJ9l0iyTreyun9ZgejuABiMEhERERERERFRS3DwpTb211/6p2GBJEXEtkQglr+pvDOokhlsKS0iydHPf7ojBjH69aOP7RdBxDtCvWVdFLnpxndzECaiDsLBl4iIiIiIiKhTsWK0DT34t/84BEEKnibzqOhH1P09K0Ai/kefGeukZRSRDICEO1CUJYAeSOp+7gFERERERERERNRsrBhtI6m/+W+DAJJ6YKJSRai/ybyvCX3BEkmJSEFEciKS/6M//IOOqLh87LHfjECQEQhEV7wCgoKIRN69ceME9waizsCKUSIiIiIiIupUDEbbwP/9138fEpGEJZIQkTAEsMSC5YSiVo3m87pf0VKAWrovZ1lOWGrlRZCzRPKf2PyxtgpNf/Ob354SywqLwASjAgDxd2/cuJOHJlFnYDBKREREREREnYrB6Bz7vx78uxERSVkiEW8IaomuDvWPNi8QQc6yrKjpV9QTllr6b4GKENUJUM30c6bCNCsieUskD5HcfR/6QMurNH/7+BM7RBB3QlGzF+Q3bty4nocmUWdgMEpERERERESdisHoHPmr1JcGAaQty7J1EFqqDrWkWhN6t1/RwkUXXRQXICwiMRGxRSRc3uzeDUaBivvLR7WH/lmwBDkRKw8gb1k6OH3fvfc0rcr08SeeGBEgUwpFxdkX7Gh0aC8PT6L2x2CUiIiIiIiIOhWD0TnwV6kvbYXuSzTsBJ+WaU9epQl9XkRiliVJ/dMyFaUSH/38p3cCwL987ZvDZuT6mIhEveFnecjqDOJk+UNRHZSiPJwFzKjxWTMfebEkC0jevvuuQALTJ/btOyVA2BOKQixkh941tImHJ1H7YzBKREREREREnYrBaAv9VepLIQAZuKPNS0U/omVN6NMikvjCH//RxD+mvxISkaxlWVFPE/r4H/3hp3z9cX79m7tCIpYtAttUk0ad16kc2b5KKCoCywKcoFLc7SMQC7rJvriPZ0WQF0jesqysCHK33XrrtJrk79u3bwegB5sCYF5DAEj0XTfcMMZDlKi9MRglIiIiIiKiTsVgtEX+KvWlYehQNOwss1Mp6lRyXuTvTzT+Z/9h1Bd67vjy14ZM9WbYbSpvWfHPffoTdQcr2rX7u8NuSGqJLUBYvCPcozQPVpWwtBSKmn97m+KbRvCW5QamBdFN8rMC5CDI3fye99SsLs3lxkYAZPSkS1WqANLvuuGGLTxEidobg1EiIiIiIiLqVAxGW+CvUl8aBZD2Lq9bLeqrFBVYIgWxxP6z/zBatVpy5798fUREMmX9kcY/+6mPNzyS+3d/8KNBALYlEhVBVMSypx2Kepq+e0JRNzA1TfCdatiCiOQEyEL/zG3cuNENS8fGxk5BJOwJRZ3QNXL99RvGeZgStS8Go0RERERERNSpGIw22V+lvrQDQNx7n6efUE+fnhZ0paXEvvgn8bph4Je/+o1tYllJp6m7GXgp/elPbp5xheWPHvrpkBOUAhIViO1WhVqVoSjMz3qhKJwuAdznwzP6vORFJCcWsiJiA4h5Q1HzM339hg2sGiVqYwxGiYiIiIiIqFMxGG2iaqGoUy3qNJv3DLiUExH7i1+IN9RH51e+/q1dAsTcJvV6uuk/+PhIYEHinuzeQbEkCkhUSqFpRNxQ1FNVWi0UldIyekNREcusC7ihq3c/EPcPABFENlzHqlGidsVglIiIiIiIiDoVg9Em+X/+819uvXBpf6p8OWsMuJQTgf3nX9jS8MBFX/36t0J68CMzuJLlDpaU/sTmjzW1yvKXD/9qWEQi5maLICwiUW8oKjrsnXEoKm4waiWvu/ba7TxUidoTg1EiIiIiIiLqVAxGmyCNdcOn//C+7Lmb31WxnFUGXCqISPTPv7Bl2lWRX/u3XUMiyIpYYfH1ESrpzSP3tbwJ+mOP/WYIgrCIZesBohAVIAyR6PRDUTfoLYglkWuuvmaChytR+2EwSkRERERERJ2KwWgTpLFux8QffyJ+/oarfctYY8Al+y/+dMvemb7WN761e0QEGae/UbHcSs107KMfaZv+OXO5sRCAqAjCpnk+9O8SBgCBRHWoan6T0uBNECSvufoaVo0StSEGo0RERERERNSpGIw2wU6s3XP+ykG78Bef9y2jt1rUDLiU+os/3XL/bF/vm7u+vU2ApNs8H274mv7YRz7U9oMXPf3MM4MAkiKIVwlFAaAgkMjVV1/NqlGiNsNglIiIiIiIiDqVxVXQHAteHMfSr34HcnbSrRZ1+t80I7oXACSDeK1Pbv7YdhExVaPifb34d7//wx3f++GPQ+24jp5++pnBp595ZgeAfJ1QFAIJQ5DgXkVEREREREREREFhMNoEAuQEgkWPPYXlf/svWPDiuCesLPUD+hd/uiW4CkiRuIjkSsGrEy5KHED2Bz9qn3D0qaefHnzq6ad3AMgDiHuazxcEyJWFoqbfUUm88MILIe5dREREREREREQUBAajTSCQlM4kFeYdOoqBv/kyBv56J+a/OO5UiwJAJsjX/PjIfRMQxAVSkNKQ7iaERRSQ7A9//NCcBoveQFQg8bKBlgoAbLH0/eZeJxQFgDDAqlEiIiIiIiIiIgoG+xhtkq/I2q0AUs6SOWOwv712FSbvuQ1Lv7wr/KniwcD7zPz2934wIjCDMVllTesFOcuy7Pfde09L++p88qmnQgBSoqtXq40+nwMQu+7aa8cB4LnfP7dHILYnFHX+piCQyJVXXsm+RonaBPsYJSIiIiIiok7FYLSJviprdwgQB9yW4aaJu/vvtACZTxYP7g7ydb/7/R9ug0hSRGAJIGIBAmfgp5yI2O+9Z1PTw0UTiCYAJDyjz5eHohkA8euuvdadn9///vfDEGTLQlHn36krr7zyfh66RO2BwSgRERERERF1KgajTfavJhx1g1Hxh6TOT9FN6zMCZDcXD47P9nW/98Mf7xJBzK0YtcQEo4BAh6P3bLKbFo4++dSTWwEkAROImv5Vy0LR5HXXXru92t8//8LzbtWoeba7r4hI5Iorrhjn4Us09xiMEhERERERUadiMNoCX5e1+wBEy0PRyoBUOf/OiwlJAWQ/Vjw07QDz+z/6cUiArIgVhQAXWWLWszvqe05E7E32cKDh6NjY2AgEKRGJwBtm+kPRgojEr7v22pqVsi+88MIwBFmgIhQFgPQVV1yxhYcv0dxjMEpERERERESdisFoC3zDWhsCkBUgWqNaFCiFotVC07zov88KkPtw8dBYI6/7wx8/NAggZ1kSllK1qDNavRuO2nffNetwNJcbGwKQEoEtVmkJ3Obw5vWhq1Xd/kTreeHFF3TVKHyhqJ6OSGR9ZD2rRonmGINRIiIiIiIi6lQMRlvkmyYchQlHvVWiQK0K0upVpXoQIuRMRWlOgNwHLhyuGhL++KGfDotI1glF4Tat132PiiAnIrG777xzRiHjvn37QiJWCkBcBKgfiiK54boN2xud9osvvjgM6L5Gy0JRAJJeH4mwapRojjEYJSIiIiIiok7FYLSFvlVROaqmCEErAtGqzzE/CwLkzPRzEOTe+7YOSx/62c9GAUmbJvRun6MojVhfEIF91x13jE1nefbt27cVkKSIhJ0R5L1hqJ4vAQR5EcQ3XLdh73TX2UsvvbRHRGw9Tfd/znLbkUhkLw9jornDYJSIiIiIiIg6FYPRFvt3a21IV3qqaI0m8wUBoqX7THgqtcPTip/i+9ssgBz++DNxXHtVGFdGIEsuKQWkpeb1BQD2nXfcPmU4+sS+fcMCpABERSz9uhZKfZj6Q9GUCJIbrtswo+b6L7/8sqkaRXkoCgiykcHIJh7GRHOHwSgRERERERF1KgajcyBjrXErR4GKwDMjQBKALVAxCOzGmtijPBAtrV93PZt/rLwUsupSSHQDcNkKyKoVkOj1sCyrIAL7tltvrRqOPvHEEyEASYgk3OjTbZbvb0IvkBwE8es3bBib7frav//lPRCxy0JR5zd7cHCQVaNEc4TBKBEREREREXUqBqNzZLe1xlSOokrlqMqJIP7hC4fHfnDRmpBAxQDYAsQAhKsGowJMFYh6+zN1/uF7/qoVkDWXFfD4WAq679L87eePjAHA4088MSJAGiJhXyha2a9oAUDyhuuvfzCodbU/n9dVo775dhZKcoOXX76RhzLR3GAwSkRERERERJ2Kwegc+k7VylG3L9GCAPEPXji82/s3P75o9ZAANoCYALZ+rj/wnCoQ9a7uakFqxb+XXpK3otdHrHdeAevdQ5DVK2Gtvkw/Zvn6FU1Bh6ITQa+rfD6/C0CsLBR1KmXjl6+7fCcPZ6LWYzBKREREREREnYrB6Bz7rq9yVFXrSzTxgQuHa1Zf/vTi1cMCZUNXlNp6fTp/O3UgWjsYVVXv907Heve7YK1eBVm9Curl8Xjxob3Z95w7Ot6M9ZQfzw8CyFcJRSFAXkSia9eum+AhTdRaDEaJiIiIiIioUzEYbQPft9aEIColQByo2pdo+v0XDm9pZFrZeZcN64BUVQlKPesc1e6rHobWqjCt9ru5Lwsgb245AfI3njs6675Gx8fHdwCIl4Wizv6TXLt23XYe0kStxWCUiIiIiIiIOhWD0Tbyg4tW7xAgXmOQpYwI4ve+fbjhqshfzF+1H0DETKMgQAFABL7pTi8MbSQYrbzffY2cAHkBctC3wsZzxxoeOGl8/JUQBHkBwmWhKESsAoDImjVrWDVK1EIMRomIiIiIiKhTMRhtMz8y4ShQFozqwZVyAtj3vP1qQ+HfL+ev2gYg6QlGIwDC0AM+2YCKAp5R76fZ96j/dzXlc+vIC5CHIAsd3uYA5KKTxyqW85UDr7jL5AlFnYfTa9as2cK9iIiIaEaGoVubRMwNnvflPHSLkHGupu7AL7aIiIiIGIy2pZ9ctHoHnMpRM7iSp3I0JwLbfmvqcPTh+asGzYWM8/fJ288fqWhu/uiClcPQYWkU5lY/GK0+2BPKnzf7zeq9GHMuyAoDL/w2IyIRve9YZfsSIqtXr+FFG1HvGgSDG6LpCAFImFt4iudmAWziKusODEaJiIiIGIy2rYcuWj0qgjT8oagTOOYEsIcbCEd/NX/VPjgDOwH5284fXd/I6//WhKVwA1MVrTlgU5XN18wtqgBcfO07IUuXYN4tN+Gitatx0drVuPi6q2GFlmRXX7aGF21EvSUEIAVTbW9koYOeMa4eoppGAKQxdSDqPa74HtslGIwSERERMRhtaz+9+LJRAdJlzemdgDQnAvuu80fqhqOPzF+5FUDKM434LeeO7pzJ/OxbsGJYgCikemWpb5vW296NfFif5mPOfbJkCdSZM1k4VaZKsgDy0XNHWUFG1L32mXNSuYK5n8c/UaWt0F8oTEcWDEa7BoNRIiIiIgajbW/PxZeNAkiLlAZK0v1rAtCDGdl31glHfz1/5SCAvGdk+vzN5xqrGm3Ek30rhqCDhwh0v2RRcStPqu9bswtGpebjqtbfK/f3HHRgmlNATkEKN547upd7GXXaaWGKxwsANrfpvI9AV3HWM93QZRS64q2WNAD2PUw0veOmliwYjHYNBqNEREREDEY7QnbeZaMClS4fJMmtHAXs2+uEo48uWLnP9B/qhJL2e5oYCD7dd2kI+vVs6MA0Ck8112wrRqs/LhX3VQ1KSyGp92cekLzSF3x5APmbGJhSG1/LNvCcGIDdbTjvtSo7/Qfz9GwDkKx3CgWDHCKvYXNcNPQRxLyX83jqxjcTBqNEREREDEY7xc/nXTYK0eFoeV+fTjh6W41w9LEFK7eKaS5n/iZz07mjLa8oe6bv0iHxB6XOvys/rE/1YX7K+6RmBakbiCr/ffom3vvy0FWmOWV+3swm+dQG17INPCeL9gsvGg1jGIwSNVe9LygK0J8X0vB3QTEIHZDaYAV297yZMBglIiIiYjDaSX4xf9WoCTjD/oBUAUDutvNHN1b7u98sWDkovtHpFSwgsvHcsTkL+X6nq0pT8A+WAuj5jOi5rPNhvoH7Sr9XD0lrVZFWCUjLf2YB5JTSTfNvPc/qUmrttWyDz4uivQYe2gVdyTrlW8I0p8um9ESNGwGQqfFYATr45IBlvfJmwmCUiIiIiMFop3l4/qohAFmnH0/xjlovSN9y7mjVAODxBSv3AyriCVSTG88d297q+X+ub3kIuo/BBCpHwU1Ch6UFwE1/nN8jKPVj6gsu3Q/4dX6vFpLWqyItD0irhKPlz88B4lSWZm8/f4QXltS0a9kGn5dG+wSCgzBfzjTyljDNaYegv6yIVnmsAA6+RORV7wsKG0AzvugLmdcsoD27+OjdNxMGo0REREQMRjvRr+avGhGoDOD2MwqImyakbj539P7yv3liwYoHxAx6YlZ3Pjp5bH0r5/v3fctHocPPSNlDBQCxqyeP7zXP2wcg6gyYdM3kcV8l7HN9ywdVKSSNmJtdHpaqKf8tjQSeUwekqvQ8mOeaf2dRaoafvfP8EYYzFMi17DSeG0F7hII7UFkdXvMtYQbTD0FXwdme+/LQYQy/pCCa+vyRA7AxwNcZNMefjVIQmwSwnZugjXYGBqNEREREDEY71a/nr/SMVm/WY+ln/KZzR3f6rngWrBiCIFf2vNi7Jo81vXrj+b7lQ9CVn3aVh7MAYu+cPD7hef5W83xH9J2Tx6cMN37Xd+kgSoFpVHn6MK3blH6WAWn150rl4zoAzuom+JK9+61X2QSfggw2qmmHICIEUwXe6FvCLF7LOQcUwECUqFy9fn4TAB4M6HVq9WHaDucj8r6ZMBglIiIiYjDayR5dsHJUTN965YMyCVT03eeO+YKBsb4V+wFEPM/L3DB5rGmDML1gms0rqGSNLZy8avLE9sq/GxiCrl5xpK+aPDHjJsG/67t0yBOS2ubfkcqwVKasCPU+r9pzveGo/ik1Q1SnqlRBctCBaXbT269OcM+mqa5lp/HcAoBlczy/Uw2OVPGWwE1M1BT1+he1EVwz+lrnqCSaF4yGUBnG5sFuNOpvKAajRERERAxGO91vFpjKUWddmlpFAQoiiEQnj7lB25N9Kx4AkBA33gMECG+YfC3wMO7FvoFhpUPbSJWtWwAQu3LyxN46f38KpT5IC1dOngg03Hm279KQ0hdRUecn3Ob7MmXoWbd6tHbT+qrhqPuayumrFFk9wJNk7337MINSajR0qCUOYOcczWvIhBPh6bwlcBMTNUW9LynCAIJ6v2lVMBoy57c4qleoOp83Mua1GZKWbygGo0REREQMRrvBbxes3CpAqmwgJgDIRiePbXKe91TfihFAZcqa3ic2TL4WVPM5vLRwIKSAFBTizguUbd0cgNg7zp4Yn2I6vgEiFBC/8uyJpoc7T/ddOgQgqiBR/RN2/eb19atHveFo6W9qP8f/O6AgOSgnKEX2fRcYlFLdPgKrhQN5AOvnaF5rjRifR2Vfw0DVUwYRBaReMBrkcdeKYHQEusudiDn3ZVDqJqAAHfRG4e/jNAXgfu4Gng3FYJSIiIiIwWi3eGLBih0CxMsGYoIAyXdNlkaff7rv0lPiqd4SIHfd5GuBDLjw0sKBEegQJFzjait1xdkTDV2UvLxwwNfPqAIy7zh7YvNcrNsn+1aYsNStKrXLm9fXCz7RwHPqhqPKV3HqhKSZD1w4zD4Ue/Ratsb9adQe4MhGc0abnsp+VA9AUzCDwVV7S+AmJmqKbglGnS9c8uacN9W5bdA834YOUW0EVx3b2W8mDEaJiIiIGIx2k1zfij0AbH9/owoC2NdPvrYXAJ7pu3QXgFjZ45FrJo/PuInZywsHQuaCJ1HtukgEBQCJ9W+ebLjic/+ifl8/o0oBV5w9KW20rnVYqtyq0mitpvVNCEedWwFAxjS7z3zowiFe6PXItWyd0KFW6JEFsKnF81mvP8M4qleSAgxGiZqlG4JRJxTNQleChlH9C6GCeY73C8Qd5rk5ABu5OzAYJSIiIgIYjHaVsb4VIQBZAaJO/GbWbF6A6IbJ1yae7bvU9EmqvFdCiWsmj8+oOf3LCweGAJUBEKmxGfMCxCJvnpx2dWN+Ub8qu8qKrX/z5O52Xf+PL1g5DDckhQ0gXK3f0dmGo1UCUuc1cgqSBpD9SPEQq0m7+Fq2TugQQe2q0Qha28feHujjoFwautIrWestgZuYqCk6PRh1vjDNoRRsDqPUhL6ajDknOl8cOuFoCmxWz2CUiIiICIDFVdA9hiaPTVhAXKAKKA3CBNEDIKXNlU9G/I9Bagcpde1f1L9VROVEdChaNk2ICWlnEoqi9Pfe6cXaef3feO7oXgsqJ1Bhp7sCt3pXdL+v+nflHSTLvSIV8V6ZqrLfvX/vv5L1vEYUUCkAue9aa/Z/x1rzwHesNUM8MnpKus5jyRbOxzCqh6JTzSMRUS0pmMEbazxum1sSpbA0Vnbu2wIdrCagm9gTERERUY9jMNplbpg8Nub0NeoL3aBiv+tbPnLt5GsTAuTKAsfoC30DDV8g5Bf1h/Yv6t8FIFUlDHVu6cibJzdF3jw54+bdApV3AkRL3+x2XOdP9q0IjfWtGM31rdgPICOAXSV8BoCcSEU3B1XDUbfit87vVQPS0p0R0Rd+uW9ba07tttbsyFhrRniEdL298HRBUSYGPYpzK8Rr3J/F3PR1SkSdzfmyJYXale97zW07dNch6Rrno4T5meRqJSIiIiIGo13o+snXdguQLAVobrP59O/7lod01WhF9WKskWnnTd+fAsQsVAtEFQSID755cstsl0MEeRFAREFEAaIiBxYva5sKj6f7Lg091XfpNuhmwWlBqXLWKlvvpmo3U1YZmoLu7zUlJsyqGo7C/zuqVOe666y0DbzC0GF5JmOtObXLWrNjl7V2mEdK10rVuD+M2gMeBWkQtYPRdBet5xB0f4cPQHcbcAqVPVwoc/8e87wRtCacHvHMl/f2AHRz5NkYhm6SvQfAvhrLrMxju8xzW1m5PgRgq5m//TXmbb+Zt61NnrdBs4/smMY+MorWfYHRSWIzOIdkPOc+L+cLJJurlYiIiIjYx2gX+13fcncwJsAN0VLQfYzmnPv0NkDuHWdP1B2MYHxRv2/Ued9QQzqsKwCIrXvjVCAVYQcXL/P1HWZeKb7ujVM753K9Ptt36aACksoM/FCt31BzWGWLkPiN546OA8BvFqzcoUxgZJ5j33r+qLuuHp6/atAM5GQDsJVCxJm2fwCnWvf5+hs1kXeNx/VjeaUvHNOfKB5kn6Sdo5H++2qNBp8HsL7J8/cAqgew3tcOuq/DWv2ZZhH8oFMj0MdxbBbTSJvb3oC2t3feUjW2fb2/m8qg+bsYKkOmRuXNMqfQnBHBh8082jOctwSAoPqwHjXTi85iGhmzrvYGeI6YLdszP3vQvGCx2j66x+x7G6ts92yNc4dzLqp23nMei6C1fS+315sJ+xglIiIiYsVoNzNN6gtlFYcJgQrD3O/0fQkg+vLC2s3pxxf1b4WueAwLlFvFKaW+M3MC2EGFonrWVKFU0ereonO1Pp/rWz74u77lO6AHlIr7+xEtDWYlusm8vfHcsU1OKGoei5Q3m/e64/yR8TvPH9l51/kjW+46f2S9CKICSQhU1nluWWWud1uX9zcK+OepsvJUXxAmAOS+aa3d/2/W2q3/Zq1ln2vdIV3j/gh0aNMsIXRvtegwdOCcwez7O44j+Ga8O8y8RQKc5qCZbt7Mc3gW04qYZc5DV2oGuc/tgg7H7FnMWyKAeRk1+0gaswtFYfaxLHQgyPOy3rb5Bo5R57bNs02rbducZ9sTERERUQ9jMNrFrpk8Pu7tb9TTp2VKBFl/f5UKIqrqReUri/p3CFSqFIhWBG05Aey1b5wKtOpwzRuFsSqhXrTV6/H5vuXDv/cForUCR5UHEB+aPLYxOnmsIiAWU73rCUdz9V73rvNHxu5+69UHh986ssl+61URQcxccOd1sKoqmtJXmy809ngEQEoB+W9Ya3d9XdaO8gjqaCnoCu5qEk183QSqh2cF1G7i3+5C0OFgFu0bojgjbQdpFPocFfR0w2Zf2IPZNxl3RimPtcE+ssecn4PeR2yzjDwnT/GeaY5R55Y05504qlcC57k6iYiIiAhgMNr1rp48vhtQpZHodYVnVFd+uoGoE3ZWXFy+snjZDoiKiwAVQaq+ZQTKXvvGqWY0jYSIKrjVqfq17Vatuxf7BoZf6BvYA6isP2D2jywPXX2bFCD6rsljVZv571uwYqh8QKabzx2d1jqz33p196a3X91yz9uvrocOiJOQioG0PCvPP8BTZVCqalST6gD2a7L21Ndk7QP/Kqwi7UATKPWvVy4KXVHVDPEa92fQnObTzRaCDlnibTyP25owfzvg6TalSWyzbkOz3DaROV7/TjjbzPemsNkevR6OTrU/ZuEPPG0AO2c4LSIiIiLqERdzFXQ/S1dx2RAnDAUAZXubZ5ufMe/fHVi8zK1C8g4EhNLz06vfKGxp5ryL94JTdKXmkUtCg6ten2han2AvLxwYNn2I2uJ2v6XgNJgX/z1pQJLXTb42PsVy2M5fKciU1aJTueftV8cAjAHY/tDFqwehEDOv4duGSmA6PJWq1aPKt0SefwkAhbDS+07iq7I2q4D059TBnTyiOkYStQOzOIIfHX4UtUOqZAeuPyd4izb4/Jy55T332WadRJo0j0NoTpP8+DSWOQ//+Sxi1lkj6y2KUhP46QbnGUwdbpVvk7Bn3sIBrf/sNKaVNfNTmOE+kjY/e/E8nG9gn9pUtg87x+94jX0PYOUoERERUc9jMNoDrpw8Mf7SwoEk9OjnAJR3ZHTPT4VXFi0bvvzNU3sPLF62Q9yLY1XxXLQgFAX8/XC6GV+TBkvIL+ofVEBKKRVzY0QdEFaJRXVTvWsmjzcWLkkpZLV0OFoIar7f+/bhcQAPAnjwxxetDkGHo7HyoFtVnS2/OsMw2ALYX5G1SQVJA0h9Xh2Y4NHV1sahg5R4lcfi0IFakMdRosb9GXTe4CaNhqJ5sx4zqB7sOQPIDJrjMoFgQ9JUjXnKwF8xHEGVL06qaKT6NG9ed6rt6pyLklMsc9RMazqDZI2ifoVmxqzrevM3ZJ4Tw8xCUmcfmepvM+Y4rDWw0/Zpzk/abIN67z3JWufxOust2cjbZNl8ZKc5rWydvyl/XrkcGq/K9a7HJIAtNfa7Anp44CUiIiIi0jgqfQ95eWH/PhF9oV82Uj2csBQ6PA3ri+OqgShEVPqy1ye2tGKejy0J7UJlwJdceWZie1Cv8YoORJPeEeMBJ4SVspHeUVCQxDsnj0+rYmesb8UpBYSdkFUByXefO7a9mevuhxetDikgpoAYFGL1RqlX7vBRZferGs9XAmWqZf8HHOCFZWtNZ5Ty4TpBRArA/QHNU73XsVEZ4rT7qPQV550yBejwZSaVe6MoDUK0aRbbO1NlHqvtA14h6EBo7zS3YaPTr2Wr+dtwneckoL/gacQ+1A6t06gehNVbJ0kzvU0B7HOOnFmm6VZmD5plsKfY/yKYfpVt0MddEOeo6exDKf3ZxHfc1RqV3rusEfgD0JBZh9PdV7rvzYSj0hMRERGxj9FeIoJElQGDygdUSgAqXtE3pTsKfetCUX2Vo3KVI9MH4+DiZaEDi5dtg6i8QMUr1o0Z2d0z0ntKBJHphqJP9a0Ydvp0RWk955q97j544fDEhy4c3vnhC4c3QyRiLtJz5VfC9QZqqvlcAQQSB1R+J9buSWPdMI+wtrQXtcOuOGY/+I038Kgmh+Cb7DfbVtQPRXPQIdpMmzPvNH+fmuV8xqpsz6lCp4ka2yOEUjPtagrQQd1MQ60Hzd8XptiHGtkfB1E7FM1i+kHXBPQXBPFp7iN2ncczqP6FQCPGoQPaetsjjM7snmI20ih9IdGIlGd/S9Y4X6X5FkFEREREDEZ7yPo3T+4FkPUNHuTrZ1ShZiCqf29pKAqg6uBAAmXPdrqHFoe3AipvBk0yQZ8/ePXcnxUgeuXZE/dfefbEDJqPq5j4A1aItLZfsw9fODT+keKhB+8rHtooQER0ZbBnHlT19S21QlNflYkNqGwa6/aksW6ER1pbBgrVhBHMoD2DqB0SpTpsXTnVg7XkzLLOtkp6ArWbVs9EArPrdzKB+s3dbcw+4B5D/TAxjMZCr+gM9vVGjAe0j2QBbMbsBxvbMsXyJMyx1ysmzPkkCl0N2sjznfUX96yrYbPuMui8L22IiIiIqAkYjPbeBk86gWgp9JoyEAWA9KoWh6JArWB05l69JDR8eHF4vwkGw75lF29ACogebT6+/uzJTVecPTE2i2WIlS9LdPLY2FztA/cVD41/tHjo/o8VD60X3Rdp2tkPprU9dNWod5vYADJprNufxrpRHm1tYydqDzCSCGD6yRr359F5g8QkULu5dwH6WG63vnWzaLwJejWhKfaDBHSoGYSxBl5rqqrRaJ3H8m2yjwT5WvWWKd5j57Lt0F9OJKG7pHDWeRbVK+NTnsds6H5cM+Zvem3dEREREVENDEZ7zOVvntwroi8gSqFo7UDUhIX5uQhFgcrQ1sx3ZLrTObokNHjkktAeAbIiKuJbRs96ANxwNCVAJPLmyVkFO8/2XTpkKjThaZafbZf94WPFQ7tHioe2oFStlZth1aj39wiANAPStpKqcX8EwGyqfAfrBAzpDltHUwWEcbTnQC3xWf59DLWDvhxmF7pW8yBqh31hBBsstnp9JxBscD6B+tWpcfQe2+yXaQAPQIftm1C9f9jxsseynmlw8EAiIiIiAsBgtCeJUzXqaz5dNRB1fo+8tmTpqdeWLN1xfMnS0eNLlras+Z47H25gqyBQkUb//rUlodCxJaFtAuRFYJeHwM7yA24ImxPAvvzNU/df/ubJIC6cEv5KV9VWwagjVjw0sbl46MGPFw9uhK7ISqNOf4B1qka9ItAB6T72QTrn6m3PxCymG69xfwGd14w+htoBYRbBNn0PSgazD2sTM3xsNpJTbIeZijR5fQ/VeY0cmlMhXa/iO2LmqZdMQAebWbN/7oeuHq1VaTwCPVBW2qzHKIKrgCYiIiKiLsBgtAetfePUXnH7GjUBoVSvEPQEqGHRIUhagPyJJUv3nVyy9IGTS5Y2tU9J/7yUgtJGHF+ydAR68KZkeXN5oKJCtiBAcu0bhY1r3zgVWL9jAhUr/dtdp9l23j8+Xjw49oniwS2m0jUuQK58O5TUrBr1igJw+iBlQDp3YUK6xmM2Zhau1KuwzKDzKrJidR5Ltuk8p2f5984o9dXk0bw+GDN1HrOn+NtcncfiTV7f9aafauLrpma433bz+WyT2R4FlL742Q8dgu4BsM+8IWWgA+Q4gI1oz6pvIiIiIppDDEZ7lO5js16VaJV+R303FQVUQkRlTi1dogpLl+wpLF2ydSK0NNDqFbEsyEUWxBJ9E5kyGD25ZGnoxJKluwTIlJqxly2TvyI2K4Lo6jcK24Oc9+f6lo+W+jF11/tUF/Zt4xPFgxOfLB7c+Qf+KtKqO1OVf9YKPLJprNuRxrpBHoUtl6rzWGIG04uhdoVlsgPXT6zG/Xm07yAt2Vn+vV3nsUwT53uizvTDqB/U56ZYnq1NnO/oHK2v7AznqdvthA47o+YclkapMj5j7osCWI/O6++YiIiIiFqEwWiPWv1GYTcE+fIqUZQ1sXd+lleQlgWLgIgNS1IQyU0sC+2f6A/vmBgIj0wsXxaa1YxeZAGWmJ8W5CKBWLV321NLl2wVqLxAxWoN2uQJSAsiSKx6fWLTZa8XAq8iMRW25X2YZq+ffK3j+jb7VPHg2KfVwS066EXSVNh6lk2mMyhWHEAujXXb0lgX4tHYMuOoXWEYx/RHuE7WuD+DzqvKqlfJnGnTec5h9lW50Tlc7lydxyJT7Mf5Oo+nAOzC1IM4zYTdxG1Rzxhqd4UR5akNY9B9124HsBm6mnS7uY/N5omIiIioLgajPUyAdGWVaM0K0cpAVASwxFPRaQEXCXCRFYElcRErIyKF0ysG9pxesXzr6ZXLp11NKpbl3uC9lZlYFhoshJbuESAFQbg0unzNZcoIEFl5ZuLBZqzbF/qWDwp0n6al9d2e/YtOx6fVwYnPqIPbUWqaWCWgUI1MKgwdrOXSWDfCo7FlUnUei09jOqOoHV6lOnC9ROs81q7HbK7Jy51r8vxnZzhfwNQVyTFzbtqG4ALSoTneR2ptjwhPa0REREREM8dgtJc3viDtrRJtNBCFSKlpu1VW0ekNMi9ygkyxYSEFS3KnL7t0/5nLLt1xZvWKkUZnslQt6pm2x8TAsq0QyYklttvcHt7m8r7lKwgQu/TM6c2XnploYoWPSpSvU+ifmW7Ydz6rDk6IHsE+aQa2qjcIUz0RABnT/yib1zffGGqHOIlpTCde4/4c2rfZeT3hOo/l2nSe801c7gKa30fsbOZ/ZwPbJQwdoOYRTEBabx8pzPH2ZuU9EREREdEMXcxV0LtWnJkYf23J0iw8lY1lo6e7gzLpB8VUicI3ipGUho73TMQ85p2AnmAEOlSJn1m7sgBIFkAGIpklB16tuBB3Q1AFKCg9EaUrEk+vWh5CUWWglK0UAKUfE6UAJVDOv53XVyoDSLz/zOmmXvC/tHAgpBTiyl2P7hosXDP5Wkc26/umtTakgKgCbKVgm397ggIFfyRa/vuUbOjq0WQcBx7k0dlUKVRvEhyGrgSdqi++YdRuUpzq0HVi13msmwdridS4P9eC1663XqMN/H3MzGd4iueFoQPSJHRXEskZbtN6r5NtwfrKT7G+9oKIiIiIiKaNwWiPE32haPsHB1K+jLNaICpiIlTfMPbmMfM3ngmYf0v5i4fNxW0MAM5cfllWIBkIMpeMH9YXrpZlLpAVRAl0Qio4s3rFiFIqDQthKDFhqH6eUsoEpACKAqVUQZSKh8+c2d2i1RoTQdhpUa5K6zbTKftFxloTUoCtILb+WT+oEOhc2llYzz+nGzyk0lgXBxCP4wD7hmuO3dAhS6TKY0lMHYzGa9yfR/cNcFLo8n0h0qbzFW7gOePQgXYajfezGTe3NKYfkEZBRERERERdh8Foj3PCuqpVooKMiOQhEoUlthuI+jsaBWBGii+1tS8LRk1VadkLV6kotAFlQyH1+uDqHARpKESUcipF9TyanxkxFaLKvV+HpmKCUf13KiMK8dCp0xOtW6cqqZx14sybXtZMu+4H33ODUNhFE4RKnZ2mPPXUS6gASAZQtmos2KgXQDjVo9t5lDZFEtUHYopAV4TWqj4bRO1gNN2F6ynHXaWtjen3DSQx/a4g4ubveI4hIiIiIuph7GO0xw2cOT0hQM6tEnWyTd1/aC5UOH1/6NTEptCJgoiIDbESsCQDSwpuf6IXiX9gJMvfB6nbD6nzeKnv0So3dzpRiJWCJdFSv6VSOS3nfvE+JoBlFUQkFjpZ2Bw6NdGyUHT/ov5REUTEWzoJQKAK75w8vrudtv0PL1o9/IOLVj/wfWv1PujKuAyAhPhC0SnrPvPQzadjn1cHxUwjXPa3Gcys8i7Jvkebpt42SdbbJjXuL6Bzm9FTZ5sAcD90QJqd7jkGwD6wj04iIiIiop7FilGCiMrACcP8zeZteKpplr52ci90JdmDAHBmzcohiMQgYkNgS3k/o5DKn54fdSnPP9yKUF2qqJvUo1Qt6jaxh1MtmlVKxZcePdnyvgEFum9RqVyczFxv54cuXj1k+ge1FRBTnplutN27lJYlK0DmM+qgu46/IutCCkh529QrIB/Hgc1prAth+lVdQKnv0UQcB3byaA3MBHSQmayxzgdR2cw4BNPtRRUZNH+wnrlgc1eZE/kZ/M1eAJugK56T09h2UehA1e7gfbjAXYaIiIiIaGYYjJLTnD7pjDYP0VWXIhKu93dLDh0dg27KuP31yJoQBDYgMR2WIlwZjDov2EAyqjw9c/qb0PuCUrfZvDMok0JiyYGjczJ4zyuL+oeVuRjX2aDyDj6VmYt52nPxZSMmBLWV6U+wPAd1ulGok1gXzPxnAGQ/VTxYIzxQScBs95IkAMRxYALA/WmsS8H0azuNxQgDSKexzgaQMNOi2UuhdgVoEsCWsvsSqN1FQpKrsyPlUL3vzHALXrteJXh+FtN1AtIhs8/GG/ibKHQ4urHOc7J1Houg+YMf1dsm7I+ZiIiIiGiGGIwSwqfPjBXCSwsiEoblDK5kAZZEG53GJflDE9CDuuwGsOX1KweHIIhDJAYgMv2KUXcoeZPiOaPRe4NSVRqJHqoAJfFL8ofmrrm6qKRbzerOsgIghSvPnmjJfP1y/qpBBcSUEltBxdwuTp116fQE6l3VzjZRFcFEBkBmc/HglBf8X5W1w6qyGrRQXuUZx4FxAJvSWDcCHcxFprF4cQDRNNZxYKZgTECH1PEqj8Wgt+dE2fqvJoPOH7m9UOexQXTvyPS1ljvagteOzHB7NGoMOtxPmlt8iudHAWzDzPocjbRgfUVBRERERESBYx+jBAAQy8rB7cvTAi7SVaNnVq+cUf+Ol7w4PnbJC+P3X/J8fj0siYpYKbEk7+0PtOZNPH2UilXW/6j5t3j7KbUAscKwJPP6+rV7Xo+sGWn1+ju4eNmw6MGjSusU7nhU6Wa+9iPzVw79av6qbQ/PX7UPbp+fKlZ9Q9ebksoBSAkQ/Vjx0PqR4qH7Y8VDU4aiX5O1IQHS4llm81KpWn8Tx4Hd5kI/OYNwIJvGulEetYGotf7D8AdJI6gd/qS6YD3k6jxmd/H2z9d5bKjJrx2d4faYrnHogNRuYLqJNt5Haq2vLE9jREREREQzx2CUzJ4gWW8zeogzaNLsK2EueW7/2OLnXr5/8e9eXg/LisKyUhApVB18ScQ3iBMsb4jqBKJSJSy19GMiNkQyr69fs//1yJptr0dWt2jgHpUsBaGqrOcAlQr61R5bsHLo0QUrH/j1/JX7zQV70nfh7M6Acn+tccsJkBBI5CPFwxvvKx66/77ioelWYybhC80UBFIQSN3ljuPAhBl1PjrNi/swdNP6B3jgztp4nXWf8G2u6nJofhPiVsjVeczu4u0/l8ttz3C+Zmqvec30FOeW4RqPTaB2JWuz19Ugajelz4GIiIiIiGaMwSgBAMSysqVR3q1SX6NihYN8ncXPvDi2+JkX71/8zIvLRKyYiJUWseDevKGotyrU6ffUDUq9IalVOaq9WBGIJAHJvz64esfrg6uHm7XuDi8O+6pFTZWoGzyufzOYQaCeWLBi6PEFKx/47YKV+91AUxDRr6Nqh5++KlHlXEgnBIh84MLhjR+8cPjBD104NKN5/LqsHUa1KitB6o8a7As0jgNjcRzYZKZTmMbLJ9JYt8sM7EQzl6xxfwS6anAQtQddSnXJOsjVeSzWxds+W/fQbC67zrZoVj/CE9DVo7kZzNdU66uZLRViM5wnIiIiIiKaAoNR0kRyTvDoDRtlGv2MTteip57fveip57fAkjAsSZUqRMUNSUvN6a0qlaTiNruvDEh9tziA7OuXr95zZt1lzWiCnfIGkZpbqZmazYSf7FsxNNa34oHcghX7BcgBKoFG+7PzN5vPA0gKEHnvhcMb33fh8IPvu3B4VoHtv1lrQzCDSpWFsYWZLHccBx7E9KtHY9BN6wd5EM/YXtRuUp1A7VAmD2Bnl6yDcdQOy8IAurXrhrE62z6K2tWTszWK2hWQ6RYsd7LOY+E6j2XqPJZo4vzWm3YWREREREQ0YwxGCQCw9OjxCREpuE3STWUmLGnBXnhRDJaV8FR7llWNesNSc5+3WtQXjlZUjnqnZ0OQPrPusv1n1q4KJOg4ckloVERFnd/dyk3dpL4w+ObJaQdHz/RdOvR036UPPNV3qdNMPgEpjSjvVe13zy0vkJRARTe9/er6e95+dfs9b78a5CAyaRGEq+whqc+rmY0cH8eB8RlUj0YB5NJYN8QjecaSNe63UbtyMN1l6yAzxfrp1srkzAz2i2btb1PNT1B2T3E+mcm82WhOkDyM2l+GpdG86tpmCPNUS0RERETthsEoefYGK+eEjCJuf5/RZr7k2Rs37BBLfM3pKwdY8gShJhzVgzT5nyvizLdlksnK/ktN2BuBSPrM2lX7z6xZOauAVHQVJkRUZbWoNF41+Vzf8sHf9S3f+mzfpfvgaepevXm88lWnlpruK0CHiWkA9l3nj6y/+61X7x9+60jgI7h/01q7FdUrCfOfUwe3z3b6M6geDUNXjjIcnZmdqF45GEH1oKiA7mlG70jXeSyC5oWEc63edrQRfLXsVtQO+rLQ1btzKV/nsYkp9pM0gg/Q0zN8rB1FQURERETUZhiMkmdvkJxvACZntPcmOPueG0Jnb7p+D0Ti5QGmE3pWjEwvZSGpU0VaNiCTWOUVpP4qVLf5vZiAdPWKU2cuW7F1ustwbElom1PJ6SgLMetetL7YNxB6oW9g9Pm+5bt0dSdSAhWt1iTfnThqDiyfARC//fyRZXecP7LlzvNHmjYgzr9ba4dgAuFyEmB45KkebXSaYejKUY5YPzPpaTw3g86qVGvE+BTrIIHubFJfbwAuQAenQX3hMDTF8dzIsR5E8Fiv6438FH9bbx4jCDas3IH6IXK7DnyWq7N+iIiIiIjaCoNRcolIwR0V3hs2Buzsze8aAiQLy7L9fYdapWpPyz8fpf5GpQBL8r7m9t6A1PP3vurR0mBSnupRtyo2DEHq9GWX7j+9cnlDwcfxJUtDApUoNZvXVaPuuoRKr33jVNXKp5cXDgy/tHBgh7kAT2MGg7v4R5RH+NbzRzffdv5o0/t73KX7FU2LaRLpW34g/1l1MPB58Ixcn2/wT9IMR2ckhca7L0h26TpITrEO0ggmHB0CsK2Nljte57EwdAg3FMAyZ1G7OXUGjQV9CejAMNSk5c1N8bdTBeixAOYPZhrxKdZDu6p1DEUQXMhORERERBQIBqPk2RvMyPTeINGSSJAvcfaW6BBEsrAk6jZ39968gah4mtSLO7hSatETz64XXWma8/c36lSKWr5R7Cua1VcNRwViKkhPr1i+//Sl/VOFH0l9ge8NQ31N6lPeJ7+yqD+UX9S/df+i/v2AygKIw/TPWTmifJ3fxR3YKHrTuaMb33Pu6IM3nzvawso9lULt5pDxZr1qHAfGzOumG/wThqPTN4HG+nfMYO6bOzfLOKYOfdMAdmFmwVcIwAPQ4ZvdQcsdNvM80zB3BPVD0cI0zx9xMz8zOcaHUDtULKB+/6OOBOoH6HHMPEwOmf0rPsX7z1gbH0e5KeadiIiIiKhtMBglz94g5aGoDgsDcvbW6CgEOYiES0Gnt1rUDTETKAs4PeFoDgAWPvHMzkVPPLtRRGxYknUDUrev0VK46mtaL5XhqH/6AljQAeny/j0TA8sqBtM4uWTpoKnU9AaWXtk1bxTGAODg4mUjBxYv2wUzUrsAEU+F5XRkAMSjk8eWbTx37P4bzx1t+UVxxlozWudiPfsZdbCpzTrjODARx4EtZh4KDfwJw9HpayS0SHX5OngQUwfwMegK5gfQWPg1BF0BmEf7Vvptx9R9+iYB7IfuJ7SRYHgUwB5z/gpPsT6n+wVPxGwnZ34Gp3h+CDrYzdaZl0b37QlMHWxHoQPCHWhsUKZBM3951G9FkDPbqp1lp9jW9Spqt6I7u6wgIiIiojYlSqm5nwkRbok28MaVl4eU25y+NADT4mdfmvUGOnvbxq3uRWft7V0AENNFmKp0YeXsowoQqHDfo2MVF9Bn371hUCmVBFQcSsG5KaWAYo3fiwpQRaCooIpF9z5V1PehqKBUESgW01BIhk5NjAPAySVL9iiIrfQsOUMt6ZfQv8eUkqgC4goSUWYRlBkeqeJ3VZpG0Z2mAEBeAWkFpK+ffG1OK/S+ba0ZUkBWAWHfcgAompDiU8WDLZtHM8hSBo31WReP48DOLjpUa520kwEFJrtQO5jJAdgYwGtsQ+0Qdibnmz2oHlRlAWyawfRC5m+jDT4/b25Zz31h8/dRVA/iGp23Zm/v2Sx3ztzynvsi5mY3OI049OBfQew7zrzkqmyHqeanYOZ7OgHtKBqvYi941lfBc7/tWWeNrG8bM+/fN+jjrp5TmHoU+qxnfdieY6UZ+zZVO7m0wTUAERER0Vy7mKuAHItffGXi9XdGfKFoEH2Mnr393aavNKl36ZUDYC98+PGJs3fcuA2QUiAq5t+CfN8juaoXhAufeGYcwJY3331d0lxUxZ0rPWXBTfDc34vOZaAFSBFiWToQFR3UK1NLLUWBEolDqVghtDQFpXJKVV5gK/fFAPiaIysAorNgVXYJqiqnYVZPBlDpayeP726H/eI71pqQ0hf/4RpX06k/aGEoCuim9Wmsi6KxPlrTaaxDl4WjzZSqs05TPbIOnIrALBoLCSOYXhjYLcsdxexGGo9jeqFoo/MTm8Hf2ph+4OjMe7qB54bNa8x0H8lhdqHoXJxHkg2scxtERERERHOITempbI8oC0Vl5rvI2TtuDJ2948YdpZHnYZq5O83bLWdQpfTChx/fuPDhxycAQERs8Q2Y5DZ1z071moueeHZ80b7fbYFYEYikIeXLU/l75f2W+Te8zfvDIkgCyOj00p9quv2Air+v0ZojzHt/10/IQ4/0Hrlm8vjmdglFPRf9UVRfjoLMUZ9xpmn9ZjT2+mxW37i9qN5HYB7BhljtbgK6OjbdY9vfCUebudwF8xrtsD8VoIPUmXZPstMsS6HJ52AbnROKAjoYzfF0SkRERETtjsEo+YnkKsLCGZi88ybdJFMkroNQZ9T4ssGVROJ9v/jtFv9eadkw/YSKE1Lq+ck2+vqL9j07vij33BaYAZWk2kBPVQZ+ksowFuUhrX9gpEbaH/oC0HJZAeJXTZ5Y/87J49vfOXm8rQa1+a61ZivqVF8JEP9k8eCcXqybUevjDQQTKdMEnxoLNcqle3RdbEGpT9GgFNDYQFdzZaJJy+3sWxE0NgJ9rXUXlBx04DjbL6L2otTnaZDyZhtsQWeFos4+FEdzA2MiIiIiolljMEo+4vQx6q2gnKbJu3QoKpYVFRH/wEqlfxcgEu37+WO+iqHJ4VtGUOVvTLiane68LMo9N75o7PdbIBIRkXTlaPSoEpLCLD9KI9nD0+8qgLpVo6heNeoZYb4gQFoEkXecPbHpHWdPtGUV3vetNcNmwKha4W/2E8WDbVHZaprJ21NchIcBZBmONmQn/IFYAb3TjL6a3QDWQwc9+VlMJw9d4RyBHuSpk5Y7N4vpFKBDwwiA+zG7kO9Bc6xnZrkd4tAVwUENZOeEyRGzrIVZTCtn5m89Zh/azqUxsz4yM9hfiIiIiIhagoMvkc8bG67cAxG7VDlpYVHudw1voMm73jMEZ9RfN0T0/LkAgOQA2H3ZX1dcHE/at+r+SMv3S6VyfT9/bNaDvrx5wzsHlSomoVRcD67kHYzJGXSpCFU+MJP7swh1wRnIqWxAJVQOqKSU93HJK4UkIJnL3zzZ1tU/P7hozaBSKqcgYf/yuctSUED04y3uW3QqaaxrZPCYPIBoHAcmOvQwHa6zXEFuj0GUBoQpILgAqXza5WZSSTiE6n3gBj3f3tezURowptay5FAaDCgzw3lp1fae7nJH6hxneZQGo8qheeHeYNn82A3MT6ZJ+0Q1I559JIragxFly/aT8SauryCPu+m+dqLGuiigNDBVuoXbp+dx8CUiIiIiBqNU5o3rr9ojIrbbv6gIFu17tqEN5IaiImGzYeH7qX9J92Uf2VJrGuc23bYfQETvlsr76T3Vt/fR+wNbzg1XDkGpFJSyVbVg1PO78gWmReCCvq/qaPMwv/uD0SyA5Jo3Cns7ZT/4wUWr9ykg6g92fcuY2Fw82JYVbyYcTaP+ACy5OA5s5BFPRES9isEoEREREZvSU5nyvjilwVHpJ+++eQgiOhSt0n+nGXQpUTcUvff2IdMnqB6cye3jVACx0kEu5+JnXhxb/OxLmwCxIciVDbSks1xflwKoaGoPoGp/o+Zht7n8mjcKmzopFP3hRat3oH7FZbZdQ1HANyhTvX0mmsa6HTziiYiIiIiIiHoXg1HyqzYo0RQm7755FLoJXLhGIFqASGzBnkemCNPM6PXlo8hbku/LPtKUpnWLf/fS3kue27/RvHa+Vn+jpXVRCk51rwBA5WjzKAgQXfX6xJbLXi+Md9Lm//FFq0eh+7Yzqi2bxDthWeI4sAX1R6yPp7FuKw96IiIiIiIiot7EYJT8fJWSmDIYNaFoujw8lNLgTXkI7AU/+9XUfcyJxGqMGJ9t5iK/seEdg2KJratV4VkGVFSNSnloWnUVqjCA3NEloY4a5OcnF60eApCuVQVrdo/4SJv1K1qPZ8T6WlJprBvmgU9ERERERETUexiMkl/FiPS1g1FfKOr9W3ekd+QgEl3w019NWe157v13uc3oy6szIZJuxqK++a6rB9+44aodgOQhiNeqDi2lglLRXl6q3G2EAeSOXBIa7YTN/tDFq51Bi2rvGkD6Y8VDHTdCshmxPl7nKRnTLykRERERERER9RAGo+RXrSl5FdVCUfEGqiJpiNgLfvpwQyN/CyQhvv483XnJL3jol4H2z3n23RsG39x47Q4I8gKJO23iq7w23J5Efc3oPT9dNQcwSL96SagT+rLMotqIyaVFzIkeUbgjTRGOhqFHgiYiIiIiIiKiHsJglPycJvSo3Yx98q73PIAqoain483Ugp8+vGXBQ42FomYasVK1qgUpBZWZoBbt7M3vGjx70w07IMhX9GdaVvVabbAlKQtN3edXpbyZcvzw4vC+w4vDbVmV+NOLL5tqsKWCAPH7iocmOnnXniIctdNYt40nACIiIiIiIqLewWCUfMTXfLxy8KXJu96zAyKJ0h9UhKLxBT99+P7pvOb5D9qjvtHszXRNSJqa7TKdvW3j4Nlbo54m894KUGeZ4bvP2z5eag1G5fQ7ijp9crqTU1EA2UOLw23V7+ieiy8bFSBepSsAzz6B+EeKh8a6Yf+eIhxNsr9RIiIiIiIiot7BYJT8BNGKvjWNyTtv2gEnVKpscl8AJLbgpw/vnP5rSrxKv6KASG7+j/bOeKCfyTtvCp2948YHIJIHPH2IOj8q+hNFqVoW5SPTwxcWu4MxOSup+uj05aIAsocWL2uLcDQ777IhAOn6u4OkPtyB/YrWM0U4yv5GiYiIiIiIiHoEg1HyEwnD35Q+BwBn77xxhy/A9I7cDhQAsRf89OFpB2jnP3zPICB2KYyEd/qpmSzC5PAtocm7b96mm8ybfjHLg1d4q2JROdiSNyD1jMku4vbFmSpNY1rCCsgenONwdO+8y2oOtuRZ6syHLhy6vxt38zrhaBhThMVERERERERE1B0YjJLr7E3X60o5f7Vo4ewdN+4QSLz8+aa6MmcGWZphU2tJoMqgR4AU5v9wz7SrTyftW7cCyANIAt7m+d7KTm8Tek/AK6UAtLxdvDhVsZbElx49PrH0tZP3Q2ADyNfrZ7TG/WEF5A4sXjaHI9arLHyDLVXMaw71R3LveHXC0Vga60Z4RiAiIiIiIiLqbgxGySvqDwcFpj/RyoGKnGpSwYxD0fMfuTek+/yEJ7x0qznT05nWuXvvGD13z+37IZLy9lfqXZxS/6Xwh796MKa8twW998FSqCrJJQePuk37Q8dP7YVuHp+q1c9orX47AUAB6VcW9bc8HP35/FWNDLYU++CFwxPdvsPXCUfTaawb5CmBiIiIiIiIqHsxGKUSkbD56R09KFytIlJ0M2x7wU9/NZvwLC6QsOgx6Mv78kw1MoFz77tr+Nx779wD3fw5UnVOfRWjvn/rwZh0/6MRf3N+lPUvKtklr7z6YPnUQ6cmJsITp+8HYJum+6g6CwBEVLXAND3ewnD0F/NXjaJWJajpFkEA+/0XDo/3ym5vwtHy/S0MNqknIiIiIiIi6moMRskrWjHqOpyc0te3aHrBnkc2LfjZrEJRiNuM3lR3lv5Lz//+T+sGc+c/MDx4/v137wKQhYjtGf4dZQM4eboLdStG84DEF/726fUCyUAkXVpO93/uXAJSgFR2JeAVPn3GqR7NzGBVpPMtCEcfnr9qSIC01N0miL/vwuGxXtvx4zhwPyqDUJtN6omIiIiIiIi618VcBeQR1T8E1QJSI92XfWTLbF/orfveNwog4ruz9DqpWn93/kObQlAqAaWSzqyWusfUv4gASpVNV9+Rh0hy4a9zpb5LBSkoiehlVoByJmh+14Fq4pKXD0xZQbns9JkJAJtPLFk6apYhPPWaMK8FpPcv6sf6N0/ubMaG/dX8VSFVY7Alz9qL33vh8O5e3fnjOLAljXX6n579PY11kTgOTPD0AAAImfNEGP7uGOwG/758H8wBKJh/7+XqbbvtDM/2Ro3fq8mbW/l2zwHgsUTUJkSmNYLkkDn2I57Pb+XvBbUUzPFf7f0gD2CcW4OIqHFKKa4EogAxGCWviH+kdakSiv56S0Cvlaxxf3bed39StWLx/IfvGYVSKQBu835RgHKSUWdWVZUP5CKphQ8/vt1759n33DCCYjHu/q0TioqTpQoAlbnkpVemFVYOnDm98/iSpVno6tHoNP409fLCgdwVZ080o2IzizphhgDxe94+vLObd+401nnDnvKLObvsAi7seV4awOYePB8MmfUSNRfBdgDTtBvcV52LaOfGi+bmbWPv9m005JitHHQYkjPbOwcGpkTtwnmv9J7/gzgvxKZ43Hved84P/MKMiIiImk7a4duGaX5jTU1y9j03KFiWaYJuAZaY0dgFsKxE395HHwzidd66733DALJVRyVSsOd99ye+D8LnP3LvMBRSgIrq0FPpClBzU1A6DPXeV1SAKhZMkJrq+/ljvovuszcPhaCKeRRVWKkiUFRAsQj9b/27Kqo8lIpe8nx+xhfsx5aEHlBAQrmzKPonpDTLzr/14wUF2O8IMBx9ZP7KHQoSd1/DnQ+lX1shuentV7d38r6bxrrySpYwale8zYQdx4Fuv0AbNBeuNkohWbtwLpIz0EEag9KZhR22J/Cw22z+8mbbZrmNpzQU0PGZAwNp0oY95/9om81bruzcwH2WiHoeK0aJgsVglAAAZ99zgw4rnWDU/BT97xxEYn17Hw3kQvWtj75vT42L8uy87/xkk/u8+943CCAJpeJu+FkWiuo3hmJ5MFpQSqWgkOrLPlL1A/TZm4f2QBVtHaKaYFQVdaBaLJqQVNmXPLd/1mHY0SWhYaWQUUC4gWAUSldNRN5x9sSsP/z/ev7KUQWkfa8BXzCatt96dUu7759mhPgI/M24vT+bdTGWNz9zcRzoxm4GnDA03oYXw1NtmzR0UMoArbYhs31jHbZ9nW2cMbcxbkqfWu+h02WDFXm9fn5ImPNDuIPm2zkv7OQmJKJexWCUKFgMRgkAcPY9N2wFJAVL/MGoZapHdeVoWkSSC/Y8MuMg4q2PmmrR0tb3XaTN+86P9wLAW/e9b5v5wB72VYXCH4pCKf3GULqlAZVc8NNf1ZzHs7dGt0KplBOG6urQYtm/VXLxsy8FVkV55JLQoAIySkm0gWAUSiEHwL5ycubh6KMLVg4phZzv9Xyvo9LDbx1pm1DU09Q9ai7SbLSmaW8WpT4RswDycRzo9rBt2HNB3Oky0H36MuAphR1xs20jXbJMebONM2AQDjAYpZkLmfNDogvODwVzXkjzvEBEvYbBKFGwGIwSAODsTTfsgiUxbyiqg1HLP8K7CGBJEiKpBQ89PO3Q7q2Pvm9/6cO4b7tn533nx5ve+uj7hwGVAhB1+wqtCEZhglFP03ml0gCSC37yi7ofjs/e/u4hFIs5KAVfMOptQq+K2cVPv7ipGev58OLwDgXEGwhGoYDMVZMnZtS35WMLVoYUkFcK4RrBaPruOaoU3Ym1gwoSMRflEQTXf+VUcihVgWbRGwFouVHo/n0jXbhsWXPB34sXyN0UdkwlAwbhDEZpJueIBJwvnLtPAsCD3MxE1CsYjBIFi8EoAQDO3nT9KVhWuMFgFBDJQ6z4gp/8ouGLqrc++r5R6G/2gcoORm1zYR93R0+qF4yWQtEslErO//HPp5yPs3fcGIJSOSgVga4K9Yahzr8LCiqy+KkXmtaH1aHF4VEFpBQkPEUwCgVJvnPy+LQrVx9bsHKfAqKe6XiD0fRd55tfKfo1WRtSQFQBtgIiRUhEKWU789NEBZT6JMtDN4Pv9aa4I9BhUqTLl9NGbwU9TlPYeA/u03nokL8Xm9MyGKVGdXsg6sgC2MTNTUS9gsEoUbA4Kj3h7E3XVx/IoX52FQGQPff+u1ILfvyL+xs7gyNZY5p56Cqg6h/aRfTo8/p/MMloHkB8/o/2TueiLoWpgiGR2OInn29qx/5r3ijsPLh4WQ56AKow6r+vJX/ftzx39eTxhvu3/M2ClTtU7ebnTQlFv2WtHVJAxA1CFaKqNRdhBfhHts71YBVoPYPQX0bYXBVdZRg6FOzl7Rox+3YSvRuQEtXTK1+IEREREc0Kg1ECFOwaI8RjysI+hcT5999tQ8Se/6O9NQNF02dopM4Fbp3X8FWMFgAk5v9gz7QugifvumlUFVW8/rMksejJ51pSPbP2jVNjBxYvi0Ahi6n70Ew/17c8es3k8SkDv98uWDmqalePpe8MIBT9trVmyASgUQVxKkJboQCGoNOxDTowou7BQLT6+0farJc4WAFJxC/EiIiIiKaBwSgBUDHMrmlzFED+/Adte/4PsxVNlt+6731OUy7vawI109iqCgBSgKTm/+Cn06ronLz75iGoYqr0EqraS6UXjT3X0v6p1r1xauKVRf22Xq66TWHD0BW1G+tN7/EFK4eUnlY16TtmEIr+4KLVgwriVIAGEIJKvW1cLotSv6BsDj+9i+IMOm8Ucqq/TZPozSbzjYqYc0bGvN/wSxPqRSPQoWiYq4KIiIioMQxGe9yb774uVFExqpTuU1T/gooAU3n+UeofNgwge/6Dm2Lzf7jHX7GjVAoi4crJlU9bVf0ngLRAkvO+/9C0L3Qnh28JQak0VN2LhBxEEnOx/i9/8+QEgC35Rf151K/ui/6u79IHrp18rWq3BfsWrAgpqIyCVFvO1O3nj0zZ3cFPL14dUgq2AqJFHYCa5vCNlA7Xpyq3abk8PNWgcRxg1Rcviknbhu7vHzBIMehKuSQ4GAv1lgdQ8SU0EREREU2FwWivU4ihTgbaSCbmeUoYUNnzH9oUd5q6n//IvUMor3KqCEerTFDLAkjM+95Ds6kUTKFm5ZwCgAIEsUWPPzsxl5sh8ubJ7ft1OJqu87TEs32XZq+bfK1af6MZVO+SIH7b+aNVux3YO++yIU9/oLbpIxQq8F2s6m9Z+INQVnfN3lbUrhimzjNkzgdRroppC5tjIWbef3h+oW4WMp8BbK4KIiIiouljMNrrlIopAcRt4iwAkDKBacQ8x60MrZ6TqlLepZ+XPv+he/Lzf/CzvVBIK1EQBW916VQt6fMAEvO++5Pds1m0yeFbRqFUXPdR6i6v93UAiL3w8afb4qJ5/Zsnd768cKCAGhV/zojyz/RdGtkw+Zob5Ob6VmwzlZ7l4rd6QtGH568aNgGorZREFVQY/tHqg921StMswBOEjuIgq0GDtwNsZt1N2D9sMGxz3kmAgzNRdwqZ99coVwURERHRzIhSau5nQoRbYg68OXRNCIICLAsiFmAJoH+GF/46N3H2jhtHIZIUkQhE4NzEcv5tuWGneB43dxQgkgYk4QSgAvGHo5UKAFLzvvuT7bNdtkn71iEolYVSYSgFpYpAUelgVCmgWASUii/8zVNtd7H80sKBIaWQVUBYQVCEEzK6IWbm+snXNgPAWN+KEQVklIJ5nvuchALyJjC1zSBJblhZVOa5Cp5gtPx3z01J9fvLgtUiAKWQV0BWmTD0s+og+wZtLoaiJTY6e/Ad9g/bPGnogHSiC5ZlD4KpDuz046XXDaF2a5FekwWwiauBiHpFO2Q4RN2EwWgPe/NdV4/CkjTE0mGnZQEimYWPPbnZec7kXTeFdLgpSTcY9Yag7g06XNUb1ASgYqpCBb5w1HlO5UVrct53fzLr6s1zm24LKR2KRp0gVOkg1BuKphY+9uT97bptXuwbGNLhooSrBKMAECtCnAAyXCUYNYFmjQAz2GA0Z+Yjp4DsHxQPstlq6zAU9bPRuUEP+4dtvpzZRzo9HGUwSiHo1jU8X2hZMBgloh7CYJQoWGxK39un1ARUKbQ0zcwz3mf0/eK3EwC2T959c9pctNtVW8E7o+s4gadSZgByAUTBeR0FpcNR52QukoNuNh/YxZlSZf2Ket849L/T7RyKAsCVkyfGXuhbbqsafQya+xu8KAr8i4ecuQjJAsh+vHhwgsfSnGAo2j3YdL41oua8aQNgJTt1Kqf5fJirgoiIiGj2GIz2qDeuv2oQClEdWiooJU6mman2/L6fPzYOYNOkfctWqCoDvIjo0NPb12i1cBSA0k8qCCQx77s/CbQp+7lNt21Vpl9Rt1oUKJVPzuEI9NN11eTxsd/3LbdRvf+wcOV9tQPQ8krPaVGlIFSA7EeLhxiEzr1RzH0omoPu/sL5WU8EpeaeNjefT7sH3M72dbb1VKIoBTbtuK3D5nwWB7Cbux91oGqfCVrJey7INvB8u/bnFiIiIqK5x2C0VymV0HmlCS31AErphb99um7o1Zd99MFJ+7YsqlUylgpDSwM2lYejAKAkBUFy3vceCjRgO3fP7UNKqRQqZsqNA3MA7IW/znVEsPd83/IhpUdVnmJb1trE0wxCS0/MwROEfqh4mEFoe3FGK2+lPPSXJs6+EUR3CcPQYWnU3Owe247tNmhK3mxfZxvnEEyT85BnG0fMdp7rZQ6b/TkODspEneWBOTh+sp7bTM4L5f3GD1Y590e4aYmIiGiusI/RHvTGde8IQZCHWGFxB1yyICKxhU8801AFzblNt4UApCESQ9nAS+IfhMn7MwuRxPzv/yzwJozn7rk9BKXyygy25FaLlv5dgFL2wkf2tW3zyZcXDgzqEeMRMwMmhWsPdCS+fkTL+xc1gyBV7V/Ud7/+t+4jVEkWQPa9FxiEtrGQuTBtxUVkHjqATSOYILQRw9BfBtgzvPi30Rl9JrZLKJoxt2wLt7Gz/La5xeY4FImj88JR9jHam0ZQo1VPE2TNuT+D1vTJG/Kc+2OYfjcBWbCPUSLqIexjlChYrBjtzTNpDJBwqe9PBSiVX7jv2YabFS7Y88jEpH1bVkTF9DTNAyLuiVrcilG3T9HsT7b+pzF8/2fNWKaMUlU+SDuhKNCWoej4ov4RHYIiptT0woHypvHTaCqfh1MRKshseutVBqGdI43mh0jOBfFchEV7UQpqBs0FcgLdVU0016FoxtzmMgycgG7GvhvA/dBV0HHMTUiaNj9ZOUrtft5It+h4SKK1X5Q454Sd5rYFOgSOYWYhKREREdG0sGK0B71+zfr9IhKBZQGW6NHkLUkuyj23vZG/nxy+xVctKuIdfd5fLSrmp/m9ACAy/4fZoJvQP6CUSngrRf3Voogu/NXjbRGKHlocHlSQWKkyVCpHfi+r9Kw62nxZxah+Xs3K0IIZNT4DSPbO869y1PjO1Oxqoby5IG7HgGgYOjiLT/E8G+1dATdXoWgBQAqtrf6dzX4eRyPdiAQrjs4JR1kx2nt2NfmYyJpjoN3OD04laRL1vzTJghWjRNRDWDFKFCyLq6C3vH5VZBhKRcwZtdT/plLpRv5+8q6bhqFUHlAxfxAJuP15OidqpaDg+z0MpRI//PFDgS3PuXtuH0WVUNQzH/G5DkWPXBIaefWS8AOHF4f3Q4dPKf1B3wxGBX9/oDMZKElVv0hIAIjefv7IsjvOH9l85/kjOxmKdrRUk6cdRfsGQ3uhq4giaH3/qkFe4GfR2lA0b8KOCHQ/f51w/O8GsHkOtnUaOoAnajdOFyPNUDDT3tSm5wenknS9mc8cdwciIiIKGitGe8zrVw7ugSU2LIFYlq7mtCS9+KkXtkz1t2dvv3EbLCRFrMrKULefUaCictS5Sz9YgEhk/o/2zrpq9Nw9tw9BqazbryjgqRYtAgrxhQ8/3vKg57UlSwcBsRUQK+r+QkvVoPBUe6ryqk+p/Ddq9BNa2cdoTkGyCsi859xRVgB1n23QFTPNuCiOo/NG5x6EDrLssvtttG8FXFBVfo1u15S5dXpXGbW2dbPWmw1grM3XCStGe8s+NOcLlRx02NhpX5iOorKCNAtWjBJRD2HFKFGw2MdoD3n9inXDUMrWaZp3xPj6lWhnb40OQiQDqCiUQEHBjTxFzID2zn1On6WeCXieA0EYSsUBPDibZTGDLWWqh6Kq5aHoySVLhxQQM7do7WpPs+ZqvZc1/h6XhztyvGRuPHeU/YR2rxB09W/QCuiMEKiacXMRPAId/kXafH53oHWhaNrsL91yTnC29TCa38du2JxXI120/qizjaI5oWgnnyd2Qncrk0BzvjAkIiKiHsNgtJeoYhJiuaGoUoAoyS5+5sWqwcg3vrUbH/0//78jppl9uOZ0dbhaGn+p5vPEeVICswxGlVIZKBWpGopCtSQULYSWjkCpGQ2cVH0lTikL00/ouyaPjXGH7hlxBD/4RAGdG4p67UZpsKhYm87jVkzdN2oQ8uZ1urUCcC90QJREc74ocITNPrWRpx5qA83Y19PQXZN0sgno7kEyaG7f20RERNQD2JS+R7x++ephWJKFJYBlAWIGXrLEXvy7l90L6a9/c5e7TT76v//nB2BZCbdZfNlNyu/TfwiIpAWwIRJx7wNKzey16IKHfjmjUGbSvu0BwPQrCpQPtpRe+PDjTfnAf3rl8hCKxZgqFm0UVUwVi+FSF6tSNjq8OE3coZT470epGX0Rpb93F8U8r6iDjoxpIp+9bvI1VjD1pv0ItkqugO4IRcuNQjcNbaflGoYO2ZotAx2K9so5Ytgsc7iJr5FG+4ZHbErfO/t50OePDHQfvt3EGaBpJ3cZIuoVbEpPFCxWjPbOyTMp3k4pdYlndvHv9u8FgH/9xr9DRId5H/vL/zQIkYwSKyp1TroVFaK6cjTbl/31lnObbhtSSuXqRN5xAPdPdzkm7VtH3VDUO8hTk0LRM2tX6TBUqRiKKuYuuFJVm72X9//pv79yoKXKv9VBKIDMNZPHOVASjSD4psMxdF8oija8KB5EayqZ4j0YCOw1x0UWzRvMKm6mz7CF5ko84Onl0Jrq9Vab4HFKREREs8FgtAecWb1yGErZpum8NxhNfvXr3/JV7H7sv/zHEYikYSHsax/vl4cnrFFwwlHJQ3Rz1gV7HhmbtG9NKtP/U5WANIZpBqOT9i1DUCqlX7QUjAYdir6+fu2gCUPjKKqo9/WU+9OsGlVj6aqSGutSMgCyV549sZt7K1U5ToKUBCvEWiWN5lY0FtCdlb+NmoBu7r4DzQt7Umi/KmTqDaEm7NdxsO9cIiIiogpsSt8DTl926T6xrCgsC2IJYAkgVnb3/5HaJGb9iwg+mvxfHoBYCRH3ObrJvOU2l89BrAwEycqm9SiIWHbfL37ju4CcHL5lH0Sino3tjQejC/Y80tAF5+TwLSEAeSilgwYnoNTh7axD0devigxCFWMoqjiKxahSCigWgaKCMj9RLOp/X9D31R1B3qkKVd4m9m4z+qyuDEUm8uZJVoVSPacQXLiWB7Ceq7QltqG5g4Lk0JmjSXfi+s6h/fobZVP67jcK/eVKUJLQfXISEVEXYFN6omCxYrTLnV6xfBRKReGpdBRd6hh3QtGP/q//rxAEWVhW1Iwdb55TBGA5g9cndWVjMVu98lHifb/8TbWQMwGlsr4Tuf+ibMpgdHL4lpCZRrisShTAzEPRN669YlAVVQxKxb3rSHcO6vl3RbWo8ixI+bqoXhWqgKzSzWqzl795khUb1IgRBFtxmOQqbYkhND8UtcHKL6/t0MF/ugnTjkIHrwyVqJXsAKdVgK5+JiIiIqIqGIx2sYnly0JQxSSUBaUUxJQxqiJS3/mrB8dFBB/9T4lhWJKBJWFVVBBL/60JQwGoHBTigOSBYg6QcJWXii/81RNVm4H37X107+TdN2drfMi3f/Hwww/edccd9RekWEyZi1NvIKorRX81vVD0jeuvHIRSMSjEVVFF9QrxB6HKE44qZ52598FUqqLi5lJueJEBkFnzRoHNMGmuL4zzYB9srZJu4rRzYChay84mrv+kOZ/zXE6tEgtwWimeM4iIiIhqYzDapXZ8+WvA1i8klGVFpKhTTqUUpIgCLEmKCD76H/+nrRArpZM9PXKSd2h1BUkufvK57W9GrwkpVczCkkiVesj0wl/n6gcuSsWhgxmTuJZGpp9qOSbvumkrlIor529LP+MLf/VEQ0HPm0NXD6KoYgqmz1Bv0Om2h/fe4FbXOk3ofUGpWT/l1aHWBz4ANW9e6sJ3v5dadWaCTVxptuwAp5Xk6myJbWjeYEA5MBSdyk6z/hNNmHYKwCauYmqBIQTbWiDFVUpERERUG4PRLvKP6a8AACzLwua/+JNBCJKAgrIUpAgACrD0BeN9/8uf74AlcTcMLSrAcitFc1CIL376eV0dU1RpCKIo6vzUqSoFkF742JNTVmz2/eI342fvvDELiC2ApxxVIlJn4KKzd944ooqq9IG+1JfKlKHomxuvC0EVnWbytkJZ+Fms0mS+6KkWVbq01q0g9VaUwuSiS5dCPvABXPTBD8D64Aedly4sXbqUoSgFIRrgtDJcnU03iOb2c2mDoWgj7ocOleIBT9eG7veRldfUaed+njeIiIiI6mAw2gX+4b//i1uE6QykpJRKA2KazxcBZQFKZaGQRbGYhSVRVQTE8gyvrgAUkVz8/H63L7U3rr9yh1IqJu7Y8xZUEYAgt+iJpxtvxq6QhFJZJe7vABRu/H//T8OP/PrXe2+79Vbf08/eceMQiki7JazeUPSRfVUvTM/euCGkdDP5mG4uX9k0vtrvvvudQZaqVJOaatG8/PEfR6xPfQqyYYNvAU3aG+UeSQEYCnBaOV4Yt0S6SdMtgKHodG0x5+Kgz8cpMGii5osEOK0sVycRERFRfQxGO9jf/9OXfb+LCCwRjHzxP4xAYHsHW1JKFaSo0kqQQ1GFBQAscZrXA1YxJ0UrvvilcbcPtTeuvWIHiioOqwgFp7azCEBygGVPZ14XPvz43rO3bcxDSaSsSDRc3iT97O3vDqFYzMJpSuYNRas02z9744YRKMR0KKrCFWFmsfbvblVo0duE3glI3RA1Bx00Z8KnT4+f3r69xkjhCmAwSu13YZzh6my6YQTb9YGjAIaiM2VDd+ESDnCaYehm+hyIiZq97wYly9VJREREVB+D0Q70pf+2E2JKRHWFaKlS9GN//oUQICllmqtL0alkVHllqbQJQU0FaREoWoCF5CUvH/Jd6L1+dWSrUnrkep2Fmmb0ghws2Ityz07/Ql2pDKASbj+mehmiInAHbjp7a7RaKFoAJLbw0dxe93k3XT8EhQSgYkohXNlPaHmz+LJQtGhCUW/zeacvUX3LACojkMzSkxPly5qrc+ES4R5KAYgGOK0cV2fTpZs03QQ44M9MTUAPYJMNeLpJs73ZZQo1SzjAafH8QURERDQFBqMd5L/+fdotriwFoqZS1LJ0E3p90ab77lTKjKmkIArRUpN6gSoq3ZeopeKXjL/q++D8+jsuH0VRpSD66Z56zoIS2IvHnp9Z9ZJSaXgHxTCVoCKCRx/7DW65+T2AUikA0dIw76oAiL3wsdzY2ZtuGARUHApxKBVRTlN3lAegcCtB3YGWinX6F9U/C1Aqo5TKApJZeux4vWXM11vM06cnhpYuDfFihNpFgaugqUbRnC9EUmB/lrO116zHRMDTTUI31ydqhmhA08lxVRIRERFNjcFoB/ibv9tR0Yeot0rUCUXv++KfDANIKM/fOoMdqaKpG4WCoAhYVgoKySUHj/gCwNcja0ahVBpFABbgDLgEQUEs2IufenHGTToXPjo2dvY9N+R1iCBO4hqGaaZ/9uZ3PYCiiqOUiuYBxKGK0bM3Xp+GKkb14nj7RS0fSd4TlBadkLR8oKWiG4YqpTJQKrPk4JHd01iU/BSPh7nX0izZAU6LF8fNlWzCNHPQgwjR7N0PXTkaCXCacbPdWTVK7azAVUBEREQ0NQajbeyvv/RPbs+eAoFY4oahgHhCUsFHvviFkIKkAeWp8NR9iEIAcfsbLeaVsuKho8f3lr/emXWXmVC0CFiim9nr8ZYKAOzFz748+ypIpbL6otIJNxEVADd8ccsofNWkAKByALL6qaqUl/qqRPWTVVlA6m9KD28oWoAJQy8ZP7x7hkuRm+JxG7pSiagdsH/K5mlGtWgBOsij4MTRnCb1rBolIiIiIupwDEbb0IN/+48VTeYh8AWh3opRXQmKpAARVTYtb5N6KaoMROKh46cqgpIzq1eMQqm0Hqkeul9RqwhACiha9iUv5gNpGq6KxRzcuFcv1w1/Gh+GIO0OQO/8XznhgLdC1PNTqVJgWtGU3te8vgAFHYa+fHB3AItRmOLxMPdiop6QbNI0WYkYrL3Q/YLGA5xmHPrLPH7xQEEKcRUQERERtRaD0TaS+pv/5v5boEeYl6qBqKcZvQg++GdfGFZAQrdOdxrMe0lBoBLh02eq9ld3euXyUaVUWopFwLKgTDN6KaIAgX3J/vHg+sssqhxg+j4FAIUIgIzpDNW5z33QDULdHyb4RFmFKFBeJVqqDH3xld0Bb6qcUsodAKuKKPdmoq7XjGrRLIAHuWqbIgFdiRsOeJocoZ6CxM8PRERERC3GYLQN/N9//fe+Uebd6lDnP7f5fGW/ou//0z8NKUEGgA4JBdDxqFt3mRUg/rOdXxnH5o9VvPbE8mVbUVQpwAy0VGpGr0PRVw4FPIiQypWawANw+htFsexpnn8oXxUpqoWiyhuGAplLns/vbtb2Wro0NDExUTD9maJaQBrhXk1tZAgcmbgZ4k2YZoKrtWkmoAdiSga8DzAYpSAVuAqIiIiIWovB6Bz7vx78OwDwNS13g1CBr1/R8nDU1FimoSQsUqqqVOJMUSWzO7+83Xnuv2e+45ue/fnP7kBRxZVVhBQt/ef6ZfOQYuySQ0cDDVPeuP6qQXXhQtzXlN6Z6YrfVP3KUafJ/CWXoLj+ipz15Fjykt/v393CTZeHCUCrVI9GuGdTGwlzFQRuCMEOkAXo0I4BdnOloMPnoI6JCHTl8E6uWgpIkOcAfhYhIupSdVouEs31NZL3c3ZD4644BWdzicHoHPmr1Jfck1r5zduE3v8clKpFAbz3T/9sK4CYzgwFMOGo6NAult355THTPaknTNX/3f2Hn96hBHE3ELWKkKIAlpVTCvav//lfJ34igvfde8+sl/WN694xCiAGVYw5TeZVvXN5RSDqHjHugVP88H24cLcNdbcN6KZn9kmRbP+y/lb195b3XnSUV4+ePj0RWro0xL7nqB1EwMHAgpYIeHoFNKe/UvJrRtVoDAxGqX3P/dTdQuYzcBiNd8OQM+85ebA/ayKqf24BGi8EyJtbAfyiv9eMQreisuu876TNrW3zEQajc8Abijo/3QpR1GpCXwpFAeDeP/2zIQUkfc3mdTiagUJ8785/nvAFouZ29+c+GwJUGoKYHqSoaOo3BUqsnKBoP/KVf5twwtmHfrbHH6xa+rn23XfVXcbXr14/CN3vaVwVVVjcLkRN0lnvWy7vNwaq1GOqunwwd+G9HygUP/1ZG0uWVAYVSsVOnjoZ61/W34qTcaH6rLsBaRQMo2jm8rw4bmuxgKeXAgfxaZUUgq0ajQEYZMBAbYpdqXSPQXPRGTU3O6Dp5jy3LPeXlgh5tmGkgc9pOXPdkTX/5ucFCnp/tMvOL0F8RsqZ6xnn3MLr4tYYnsa5Je/ZRrkZfJYdMZ+rI2Y6Sc/5Cih9aRdHqTAhiTYdT0HaoWy1V0rBnUDUWeZSdai4TdwtsSACtw9REcEX/viP8I/pr7jB6D1f+GJIoLIi+pscgTLRJpK/2Llju5hplFeh3vm5z4ZEn5iizt/oMBaAJTmxLPvXX//WhM5eS8319fYRiAU403YfN2GuZVl41+c/FRIgpkQSEERLE4fb9yk8P+oyu2Xxqne61aG4bHVyYGBg+4kTJ7YCSIrUOGmLJPuX9Te137eJicI21K86skOhMN8AaKam2r+mIwtgE1dpYEahv/EMSsF8oOCFTus8gGCrfhMt/pC3J6BQxOaFSls6heCC+zhY0dzJhsw2jKF1X3IWzOeGjLnxvSkYIbMt45j9IGs5EzLw2KbZnltstHbQv4zn/MIvlIM7t8Q8t9nIm3NLI59pnWvVvNmXpvo8OWyunyLm5xbvg22RSTIYbQ1vKOoss2VZbjAKAS7yhKEigj/7D6O+v9nx5a9BANhf+OIOAeICZYJJAFDZtW8UqoYfu3Z/F3d+/nNDgEoLEC1llW44mn70m7u2QFAKap3qVV8oav7tadYvEET/8JNDEElAJAZBuBSIlv8s/3d1atVluHC3jQuf/ixw2Wr3zwAkBwaWbweAkydPhMxBFauxU+UAxJtVPdpAMJoMhcIclINmaqt5YwrsNMtVGphdCLZiNAkO4NNqgwi2KjsHYGML55/BaHcLavui2sUHdcT5KYHWhqFTBRlpALs7bD0GcYEbxPvzoJlOPODly6LyS+8gPzvmAazv4eMwqC+oEmif6jgnnE+00bklg84L+IN4j652/M703BJDsONJNDJvzrkmg9KXPXaNz8dZlL5g8+Y3vs8n7GO0R1QLRZ1qTKfU0xIL8DShLw9FAWDLH30G+xf1jyr3zVV0s3NBQSA1L9Rv//znhhWQESDs7HK6ZbsAQPqxb/77tEPRjZ/+hP52wpKEgkQhZgAip818xc/Sq9aOaCQNIHPu37+TcA4u8X688fxdf//ABIDNJ0+e8H774Pk4pKIQyZ48dTLZv6y/GW9Iee7Z1ES5gKc30oEXNe3I+VY2KAUEG4BTY8bNBzU7oOlFweb01J6fL2JgMNophlEKRNtJzNzy5iKcVYrTCy3iLXzNTICfKSI9/NlxBMEFTZke3Renc25Jmmv5FFih3ui1SBLBj3cwnfeqlPkcvdncZ2OKgjHoL5kmzN/sMvtjDm3UrN7ivtVc5aEoUNbvJ8Q3uBIEVUNRAHh54cCQUv4mnEr3MGo/vPO/Vz2RHLkkNKoUsgoIm+e6NwDx/jOnt3zw/e/1z4OT1gKeQaD04xs/ERuKfjK2QxWLeSiVRlFFoYpAUUEVFVSxCFUsAg3fVA4KcVEIv7zru1te3vXd3f7lq6+/f2CvuSitPBiVCgNInTx1cs+pUycH2/jChahcrgkfPqj91mOaHwLnTJrHGLWpID9fhM1FPrWvYegKpGybn0ci5ry5H7pLGaptq/kcF2/x6zpf+vF9bXaC2m4ZzO0XpoMAdqDU1Lmdzy1JM5/bePqoa8Ssp8Qcf34u1Dg/5FHqRzTp+TyTLHvfiKM08GyoXVYug9EmqhWKAvA1oRd3+CPBF/+k+nnrxYUDIQVkFQRK+cPNR3b+9zERwb/9u/9LvcOLwzsUkFaA+ze6AT0KCogPnDntfuv7gffei/fdew/ee889eO89m3DvPbbb9+nG2MdCG2MfHY1u/ug+qGIORRVHUYWdEFRdUOVhpwlJvUGp7zkFFFUKCpGXd39v48uZ7+18KfO9Ce9gU16q4h9+/f0DE/39A9vNidX/gUCXZdsKyJ88dbKVJ1ubRwDNwkTAF8fxdnrj6WBBXySkuErnzE7UGESPF5A0x7IBT4/7ZnsahK6ayXbYZ8aIuTDeA91PIZWEzHpJIdimrdMNLXjumN02jLXhtpjuMjyA9g9Ey4Whg7L90F8YkX+b7oAO28NzOB8j5j0ggeqFHXnoylDntt7zmSZedp2bMMvSNvsog9Em+X/+819W3OcdCEnf4R+R/otfqL1fKIWsUs6B4Iaj6Ud2/tNOeKpOv7Xr2zi4eFno0OLwHgXElTI9kMINRwuA2Jd6QtFaNn7svqHofR/ZoS441aHFqK8i9IICLuh/1whAze9OQKoySqn4i5kfLHtp9/fvf/nb3x8vVaaan/r3iouCRnqd6O8fGO/vH9iEUpMfd+UZyZOnTu47depkEB/k8lDcz6mpcgFPL8FV2lYXCVmw6fVcywQ4LRv88oGCEXS/r3HoEI7axzbzHh/r4GWwzTKwwksbMuvDboP3tUJA0wqj9yrO4wFNJ4+56YagHSoKZytiPiM/wM9VgFkHWbRHgBifwefnrPkZLbvfKVBom/dBBqNNkMY6XLz/YNXHvM3oAadyFPjzL9TuAur5vuU7AETLKj9zj+78py2lpu46Yrz586NDCsgpiA04gagbjuaUQnTFmYm6AxKdXLJ09OSSJfuUQk4BcSgVVhecylBVCkJVEcoNQk0AeqEUkpoANY9iMYmiirz0nR9ufunbP9wpAojlba7vCUXrDBHTaA7Z3z+wG6Xm9frDQSkcjSogd2qW1aOhUHjcnSkGpNQc2YCnl+AHjFl/2Az2rYLmWibg6dlcpRSQXMDTS3KVtoVBAPvM9gh3yTIlzTL18ueLIfOZLdIG8zIR8HtbrMe2ZbxDP+OFoCvQM110bkmY46qXK9OdL1yibTI/UfgHU2pEpM7nmmw7fXZmMNokauEC3+/1BlyqF4o+17d8VAFxBU/lJ5BXgP2ZP9gMEcvtB/Smz8W3KiU5BUT08zx9iipJA2Kven2iaoXSa0uWDh5fsnTb8SVLT+nm9xJ1m+07YawywecFVbVaVF3wVYlmUFSxJYePrV9y+Nj2l77343G9HuqHoiKACiBp9DSvj7ofEDyjnSkgeerUyf2nTp0MplS/MiCN8iigWcoEPL0wL45nJcg37gLao0P+Xre7jfcR6m1BX1THwaaJc220zS5wg75YzvdogOGEouEuPX/E0Tuh92CAx2e6hfM9bI6/WJeeW7LozX6N2+kLF0cEjRfuDEL3txw3v6eqPCdnfrbFOYaj0jeBQGHR3t/g/A1X+++vMuDSX/xp7VD0d33Lh5XvxCoQqAIUYu+YPDEBAJ/6xAj2L+oPQfclGgMAUaLDRXGapqvk6jcK26u9xtEloWEBEvpvVdWlAaBDRacHAKWglB5xXsSMPC8KgOSVJSkBMkuPnfAFsNFo7c9KTz/zjFk/pddTUE6z+lnp7x8YR2n0+hSUijovpszBferUyTSAxLJl/dMaBEWhSoFraRWGeSTQLI034SIqYT6sjXH1Tpsd4LQy4KBL7SIT4MWEzdVJAck2YZopABu5aufEDnRWX38zETb7bQK9M3J9O4aigO6OI4/gApVYj2zTRICfK1rVVdJWdH9/9WGU8pBeObeEzDJ3Wp5gozJQKphjq14xQhTBdyM0bawYbZIFL45j6Ve/Azk7WbVadKrQ79m+S4cUJOP8XhpNXuJXTp5wQ42XFg4MKSU5ADH/iPMCpVBQQCz3rW9UhKKvXhIeffWS0H4zYn2sosK04iZQyl9BqpQ7wFIaRWWHThbWh46fenDpaycbejN4+ulnKkJREXFGk69WOZqf6fbo7x/Y298/sNEcmIWy6tE4gPypUyen9W2UUirHlvTUZOkmTDMDNqmfyQeUaMDbgNpDNsBpRbk6KSBjCL45fRS6zzZq7XvHHnR/KFoeYIz2yLbNtHFwkQpwWrEe2X+DWs5Wfcbbgd4axLNXzi3OZ9NO/ExZKPtcXUBjX6wU2mHmGYw2gTPC/KLHnsLyv/0XLHhxfFrVok/3XRpSQEYBYSesNOLvnDzupu0v9g1s1f2JIqKUAMoXZuYAsce++bXdAPCDH/0YBxcvGzy0OLzt0OLwKaWQhtPkXpWPWl9qtg9UCUh16JqHGU0sPHFmS6hwuuGU/6mnn8ZTTz9dWl+eUFScD+8muCwLR/Oz3Tb9/QMPQn+DmiwLR8MA0qdOndwzjcGZCspUzzIgpSZ+CAhaBOzfcrrsJnzgofb58BkkNlemdj7/J9CbTRLngjNght2j+26372cZtFcT12rzF5QYuv8L9eGAtmcBza9q7LUvXHrt3LID7R2K1jtOcgA2QecqOZS+LKt1/gibn23RkpHBaBPo8BMQUZh36CgG/ubLGPjrnZj/4viU1aJP9a0IKSCrPDudCUdTV08e3wkAz/ctDz3ft3yPAlL+MNQNRzMKsJ/81r+OiQhu+MRnBq//+Kd36L5JJQkg7AzKpJS3H1JPNagTgMIfkEI32bf7z5xZv+z0mQfDp8803BzUG4h6+xR1K0Xh9D/qvGDVcHTWPP2PRqBUpvQ6gDKjbJ46dXLbqVMnG/4QUB6QKgAThQKr8mi2Jpp0cRwzb7zUmCA/oGTBZvTtZAzBflNtc5VSgBeAhSZNlwF+czlNrKM9vv92a5+j2zrgXD8ODsI0HfEA9/tm6uUvXLzruFvD0RG0d+Cda/B9bcJzzoigdjcVNgIofAsKg9Em+CMccOsunZhv/ovj6H8wjYH/4++w8Nf7sOKL/2vVv1VACpCov1k80tdOHr8fAJ7rWz6i9A5ku9Wk/nA08fS/fWXz09/86sT1n/js8PUf/8wepZBXSh9kVZvMK9/ATp5wVD+3uHoN3vrj/zEHIDxw5vSWgTOnp9UHxJNPPYUnn3rK/b1WKHrdtdfimquvKVshvnC08OKLLwa2nfr7B8b7+wc2m4My69kGgB6kJnfq1Mk6I1FXBrZuQKpD0iiPBgpAsokfAhmONibID6AZrs62kw1wWhGuTgrIBJrXTDJjLsAoeINgKOo9t3ZbODqEzhnIMsjPG4ku31djAU0n1cR5DPHc4kp34bnF6Ve03c/p0QbX/bhneRKorBp1Bjtrm+siDr7UJJ9TB/FVWesGo87PeQePYP6XdwEA/s3Sj3+yeBAAkOtbscP0d6mHWdLBW2bD5Gtbnu271AywpNwTt8BUiUJBFPIQxK44e2Ls5U9+fhRQcSXei3kpjcruGeTIfRXljqykfyqgeO89KG4eQfHeeyBA5LJUalpVTr4wtMro8+Wh6FROFU6NBTEgU7n+/oG9ADad1CFoCqaLAQARATKnTp3MQg/OVKXMW5VtYc8jio3rKRDOG0u8CdOOe96wWMVYmx3whwpqL7kAL4p4wUJBSpnzczjg6YbNxUgcvTOYRasubDNofb+TOVT27VYuYm7RFs5f2Hx+sbvoM0a6g+Z1pzmHBLG9oybIGO/C43Y0oHWUbeL6matQNG9uzjmmXc4tzvqOdNm5Jdzm8+h8JkkC2NzA85Pmc0bY/N32ssecabYFBqNN9IfqIP7VhKNuQCqoCEu/Za3FFfPOb1UKcW++JvokFH+679IRBaTF9DnqrVQ0sWgGUHGlEHtx4UBGARGBmJHjvXNUGmFepNSnqK/yUUmh+PFYvvhnX4hi7ZrS3UD4wIFXRtetu7yhD9BPPvUkysdtrxaKVgtEldIhhEjpDnj6Z3355ZdxxRVXBL69+pf17waw+6QehCkF0+UAAFt09Wga/tHrc6XApHZAShQA542lGeLmw0w3XbgEaTDg6Y1xlbadbIDTinJ1UoCcqtFkEy/EogDu56ruqOAiDx3AZjCzkXwHzXu+Df2lUDMvxqNmH97SBdt4tAPP8ZkAPz/GADzYhcduLMDzaTO3YyvPLVnMrOunkOe8YqO5rWjCZl43dcE+OIzO6K7C6aIjZs6HO6fx/IR5L5hAqcuANNroyxZph6o2ke4Ok74ua81y+kNR59+D894aFai0hVIxpwA5AWIClRJzoPgC1lJT/QSAggBJgYq4zxPP86TyNZ0hndxV/54boe6+M3f5f0luHB8fH4IevEk/Xvr77Lp1l9c9+YyNjZnws/SHzqBTjYSiAHDs2DFV2jfcu3OnT5/Z6OwrzQhGvU7q/kUTKKvUEP1tWQr+b0xq7dn2smXL9oIoGA+guU2ZCuaNi/us3wiCa+aR7ZIPcN0YaBQCDgKaGYDvQTBVzDaP947ZP3NNvsDMmvM/vxyb++Oy3nt0xnz+DPr8MmouUps5/zEAu1u4PYK4wE2iVOEUgg6NwrOcZt4czzmzTXOexyKe49wu+32mnyeGyl5jNnIANvL9v+bxuaxJ87gDze93Mm1uQX8mcAKwWBPn3Xucdsq5vvz4DWKazvkk63mNaueWKEoVvjM5tzjnQuc8NeZ5D8mh8ovWYfirQ/PmNQpmHiaA9mhpy4rRFqgeTGqXz3trFEBalRq1QxRySpDWO5eESw3mS3+rIDlAZQEkxG367WmAr4ss3QGZ9B2+udKfGkbug/ofPgdcc7U+Kf6XJAYHB8fGx8fzgIooJW5YqwD7wIFXBtetu7wi2c/lxjzL6w9FnZdrJBQ9euzooIJyB6gyxaIAUHCb4wuwP78f6yPrm7bN+nVV6PaTp06m4AlIzej1SdEHf775n8mIfG/8sSZeHIfNG1WrP2C0u2jA4QO1nwlzPo8EeCwRBbl/xpt8/rDNMRADw/KZeADNCxULKH0h36zgeqe5ORewzViWNDq72WtiFuf2vNl+GdSvjvIee87nMKe6N4aZhUtjAb6/RdF9zenjAe7fzbAVzQ1F0+aYb9Y23W1ugyh1q9GM66MMOrdF1ugs1kveLHt6iuWv9r7ure6dzj42gdL4LDlzbnwQtatH96IUtI56PsvE2u39gIMvtcCnigfhVoOiFJCum/fWsNKjvAMAirqOs2ByzJRyRo936zvdQZEKACIKklAmFPWNTI/KQZQAKf2++jIU/+P/jOIje1D8yyTUNe90pp+pdoJX7v8AVVYhuW/fPjcUFXFGlfeHoiLihsMbrrtuqv5EI/p1SqGi+QIh77yGr4y1yfqX9U/0L+vfbuYraT6gwqx3m3s3zcHFcbMlob+5HOQqdy8EgpLj6mxb+QCnxfcGCtpeNL8frrC5YNnG1T3ti9pEk6adMe9B21t0AelcwCYQbBW9s3+lOng7z2Qb583F/3oTHMwkfBo3gcNmcy2SnsE0UnO8HtpZUJ+rm7FvDzXxmMma/WkLWhN0j5tzS6wJ5xags88tM9kH8+bv1kNXaM4kFJ6ADq23mPNzchrbZsx81s2Zdb8H9Qd0HDHPSZt5j6INg2wGoy3yyeJBNxAVAKsvfmtIKWTKRp+HgoQVEK0y2rw3HHUqF6uFpr5R533TuO7aQvF/+/+h+KNvQ/3RH0ItWeKZQ5WNRCLjlScYVV74GH/lwCuDgA5Fve3sUaVS1DtY0obrNky9opSKlI1Eb+5G3huKCoB8Pt+y7ecEpP3L+pfBUy3q3XZELbpoSbbgdZw3u61c5YFW/+W4OtsWtw21u2SL9tMkgH3ovhF/m6FZwUXBBAibMTfVeQ96PgcEHQAMd+B2nu7gPAXoAHE9gu0+YNyEGFFMr4I8E+A8xLro+HVGxZ6tbBOO0xCaM1q3s29umqNzy27oQDYb8HRtc5x2mmFM/8v0pNlvgxw4cQL6C7jpnFvGoLvWcOYnAx2L7Cm7nTKPRcx7wEa0adU5g9EW+oQJRy+7+O0hBWSV5022vOqzarDpub8sTK1yv5TuV0grIKq+vjOjRu6DUsrtx0E5paVA+pcP/6r0TjE4OAH3W0llnlc6IHUo6q0K9XQZUGUE+oZCUT0rkdKM+cLRnDcUNS8wJ/qX9e+EUml4+sIo3yZETbS9SR+WyoVR+hawl6tH7QCnNc7dt20V2nSfIfJeuMTRnGqbclHoUIzVo/WlEXzXGTmz/nfP8bJ5K4KClOzA7ZyYwfZ7sMnbZjpdHo0H+Lkxgu750iQR4HmgGeeWSMDTzJtjeq4H0JqADmaDXm9J6EC5W/fBPJrfgmAc0+9ObTt0/7oxVFadFsy1pA39RdHOdt4YDEZbbKUbikrY29wdaDwcrXxu1fsLCkgqSOTg2/O3qKd+XVBQce+8eMLRwqFDr+60LAuP/PrXNT68+MLR+MDygUG3OtTy9ysKlELR6zdsaDgUdT6Mu3mjPxwtlIeiAsH4eGtzhpMnTwyePHlij7tulALKOgtmSEotEEfrKtycCyNWj87+YpfaV5argDrAGFpbsZWErh4d5qqvsA3BjxKdNu+57fIl2gR0dU+Q50e7w/anoWls53bbfuXzFuRn0G4QxLm0gODDnpEmnOdzaL/my1sC3i8j6KyuHkLT2M7tuP3K7YYOSTdDB9+bzL+3o0P6Lmcw2kK/nL/KVynqqeicQTgqZVWjzvMlr4C4AiKH3563/dDb88ZFj9aU1M9zwlBfbJdRmz6O4qf/BMX7t+Hh+avw8PxVOHTVLeNKD/Dk8vQ3mnL6Dq022NL112/A9Rs2zGQ16XVTFo6+8eabe8tDUfOCLdt+J0+e2GpOTHbFg05AqhiHUssuVmy0pnLIOS5TPXiBHOSyFrjb9owIVwE10d4WBxNR6GDsAXReNU6zDCL4yse0CQracXCiGIL9ci/ZQds60QXbzwktCgHuD93w+S4S0HEbpFATpulcu7bjvhl0OJrooH0w3gXbr6swGG2Rn8+7bEjpD5bh8mrCmYWjAPxN6LMKiB15++L1R96et/PVt+dNOM3bVz+7d9B78HnDUROQpgSAHDkGPG4GUvKcYJR3zkozHusfWDZcrV/RG66/fhZrStmAp5m//ke+VigqAF458EpTt92JEycGT5w4sUcppOBvMlX9QyJDUmqNVoej3gvkHbxAnrYsV0FbC/Lb7AhXJzXZTrS+aisB3ZRvlKs/8OAibQKCXvm8YaNzvmSNdcH2C3q/jaD+QCudIKjzZyrg+Sq/1pytHNo/VEsguC9ewh30HhXvku3XNRiMtuJqa95lQwoqq5QORYH6o8j7H68fjipIRgH2sbcv3nTs7Yt3O+MTiXh7GUVcVQ6i5B5wr15z+5h3YCinHlWg8OpVt4wBSHvDUU+T+vTb2/8Kb//DP+Ot/8//hskb751VKHrkyKuePmt84WjembHyUNS02MfBgweasu1OnPBXiZq8s2BOZhnu3TTHxtD6cNR5M8+j+5vXR7mLEVGbmotwNAwdruxB7zavH0Gw/Qhn0Bmh2gSCrRRMdMAyJzB1SJXrkO0HBBvoxzr4GA4FNP9ZBNttwlDA53Tn+rXdQ7Wg+89Odsj1RbRLtl/XYDDaZHsuvsxtPl87/Jw6HC16q0P1c9IKiLxr8tjmGyZf23vP269i09uvmkDUCTaBVU/vDTkfPrzhqKdqNFUehorbWN+tHC07wbjhaOTS1F9uu/AP/4ziQ7rY5jcLVuK3ZbfHF6xsaF0pIFLZWyegFLKRwUjNUFSa0Jz+xInjQydOHN8DqBSgwuUnqf7+gZ0sCKU20awBEhq5QE6hu5vXhwOcVpa7atvLB3zhRdRscxGOwrznZNGbrQdSAQcX8Q5a9r0BLn8M7T+w41SfAQrorMH2xgL8rBjr4GM4FtDnu3Qbn1ucfXOig/bNoJY/0gHXJY2cW+JgKNpSDEab6GdOKKoQxpThZ/3HAaAIKSh90ohEJ49tGZo8VvEtlf3Wqxh+61UMv3XE6X4zoYqq6sGnoAqvXXfHzmphqFt1KsCxd94yDiCpyjoAMOFocuWLvxkqC1LLglWFxxeswOMLVuCJBSuwz3Mrm6FoZWGrQulNXGqGoiIWDh06NOttduL48dCJ48e3QZX3JaqcNyx7YGDA7fiYreapjT5Q2JibAX6i5gJ5F3p79HrqfPmAjwuiVthpLvQLc/DacXPc9Mro9aMIrquMgtlunXbhmwxwX4t3+P7QidsvHdB0wujc5vSxgI7fIAddGkawIXsn7pvbA/wc1unnlgTae6ClrsRgtEkeuni1v09R1UhlaM3HC0p/EIkULlx0/8Zzxxoq27/0qWxIQSUAzwj0/uQxBVQPQ8ub1kMhBYW8qhZbKmRWvPibkEDBMjfvvy2zo1nw9V0KAG5AmtMhqe1MtOxV8gAwOHi526VpeSgahOPHj48oHSwlfRvGfHgdGBi4f2BgoOabDENSmmNOH2CZOfyg6Vwgd0sFUTTAaRW4ixJRk+zG3HSr4gQkSQD70f39jyYDnFYc7Tl6eSOfNVIML5BEh4y0XCYd8Oe+TjMY0Hynm7A/9fq+GeR6iHfwtUgGwYbu1CAGo03wk4tWDymFrFLi71N0+uGoG4ieuWBtP33BmhAA2XmXNTorCTil2qpqOJq+7fzRmmGo93b86lt0/x+q1Azfk2BGoJCyPM+3UBa0TnEzi227c+7pS/VIZGgs17cCub4VOHnVTXVD0cOHp181evz48cHjx4/vMSeiSNngWBkoRAYGlu+u/MvaCSgDUprDC5bNmNv+dZLonv5HwwFOi9/8ElEzjUFXM+bm6PUj6O7+R4OsFs1Ah9mdKoVgQvgIdL+KnSaP4AfdaeXnxExA04qj88KnWIDHQFCCrBbNQVdedqqdCK5qNNaBy19A51e7diwGowH70UVllaLO8EeYVjhaACQJIPL6BWv76xesCcDfVH3vFOHoc889F4Ly9C3qvID7Wip91ZVXjQPALeeO4pZzR3Gz51ZtMKaTV9+s+xYqC0dNABgfeOG3o/WqTuvdVuzPDZVXo5pfs+XPPXHVTSh89LOY+Nyf4I0H/w6T3/o23nr0t1BnzlSWpNZx/Pjx0PHjxx8wJ+DyN6SCAhIDy5dvHli+vE5TBG9PsERtYzvmrmklUOp/dD86f+RS6h05rgLqcBMANiL4aqbpsNGd3askeOHr289SAU0r3qH7Qif3/Rfk+SHWYcsexP6WRbDV3vE2ndZcSfbovglzXmW/onPkYq6C4PzQE4oCbhN0KBE4cagzsrzuK1N5fgdEh3EpAVK3nT8y8dOLL/P322km6Nz3i/mrcNf5I1XnpahUwhIJO9NWUBAIlFJOtWXdN8Wbzh2tuM/0CZo0J5qIM00djgpEkOp/4be5U1fdNFYvn6z+mLJLq8LzDIVctedf+N3zAIC3H30czt8BgCxZglyfp+9Spf866lme146/FgKQMN0MhKVyjrIA4suXL6//pqfKF0hNuZRELeQ0rUxj7vo7jEBXJmTRuc0GqXcUuAqoS2wx590Ugq18n+5Facx8buz0i73hAN9Hu+XCNx1QgGF32HJn0dnVvs7nw0JA54YYOqfZ71BAx3E6wHkaRHBhZhrd0TppZ0DvXZ12bsmjs6t9Ox4rRgPy/YpKUU8doZqycrSggKQCIneeP7L99vNHJgDg3rdf9YWivgGSzAO/nL+qYl6e/d3vdPCnyvsDVU6T+uw7r3rntPse2XjuGCKRyASAWGWBpIJSCEMhs+yF34YqR7mvfyu9USmUVY7m/M8t9VXqvbn9l545448kRW8Fpy/T1147NgqlclAqCaUHpVKl1yxAB6KbpgxF/YuOauuDVaTUBsagq4dSczwfNrqv/1Eiona/uLQx95XQSTMPndx6IKjgopsufMehr3tmK4rOqixOdsn2Swc0nVgHfa4L4jguINggOKhzSwHBVbW3g0wA0wijs7p1SYLmFIPRAHzPWjOqFLLKhKKAPxitE44WFCQJSOTu80e232UCUa9Nb79aMxR1fv9VWTiqVDGllDKDPqnKfE7N7s0wEomMAUj6m9TrCSuFCBSyFaPcT3GD8o8A7wkrs+VN+qvfqgelzvpac+DpkTUHnt5vPghEPCvLPQErqEh+zYadv12wsqH1UBF9Vmx0orZxP+a2aX2nXiDb3HWIqIO1y5djEXOhuwed17w+FGB40W0XvpmAptMp77U5dO6gNuWCPCfEOmSZg5jPdMDzFA9we3ZTE+xeO7cUwAGX5hyD0Vn6jrVmVAFpQMJK+TOxWuEoLlmMeX/8GSz8djpjv/Xq9uG3Xq17IrPfelU3L6/Sd6fjEROOPvPsM6YkX3nmoRSOKqj8mXfdPesDLxKJbIcemKhaOBpd+vzjO66ffA3eW61qz/BLuSETqHoCRV3BeXL9u8YbC1erB6WrXnlqeNUrT5UGVqocFCkPpWIH1mzY/MqaDe52+O2ClfiN5/aYuVVTJwvN8QihNrLbc3HaDhfI3db/HBFRu7ofpcr9uWSbz0bbOmjdxQKaTjde+PZaeJHqom03HuB1SqIDlncEwQyeFuQ+MITgBnRLd+E1C88t1FIMRmfh2yYULYVi4htN3eH+fskizNvyaSz85j9g3v/4GcjyZdlGX+vut1719zcKfyjoBqEKSSf4c0eh9yd2STFNywMQB5CrEY7GX3nllR3eJ2+YfA3XmVtZuGv75rMUjmanU3XqG8xp/MnhleNP7oFu5mOrsib65rWSAKKH1l6/2wltLU9db/n6BoDHFqzEo+aGKv3UeEPSgYHl7DyZ2o0zan0Mc189GjMfyrf2wHrPctcjojm213xumesLsLD5/LUPnTEieYwXvjWNI5iwPdoBy1pA9wXbQe2TUbT/F91BHMdZtOegS2l0Zx/+mQCmYXfIsqb5EWXuMRid6ZFqrXlAmZ3YXxnqD0edKG7elk9h4b/9Peb/8aeBSxY7k8lN5zXvOn+kolrUWx351NNPD0Hpk6wyJaqlcFQBCgUAmaA2uulvNA6gUCccHfX+zXN9y/Fc3/Ly/kXdk5bb8t8dkb6xpvPObXn+yeHl+af2KIWsUrBRViLqNM8HED287vrth9ddPyFOJa6UmuGXB6TVfmLuBjQgmi2nenSu34jD5oN5JzavnNbpkrscEbWBCbRP9WgU7V89GkJwwWi3XvhmA9oX2v7SrxsvZwOcVqwHjuOgj2GeW+rLBTSdoQ44Djk4bRtgMDoDu6y1OxSQqFUZ6g1HL/qgjYVf/6+Yt+VTwCWLPIElcMvNN0975Lg73HBUVet3NOVtNu/MlVLK9GmqUmffdbcbBAZyta/7G405K6BKOJp2wtHf9y2v3r9o+bc5TpapdP+i104e992qNZ1fln9yZCDvVIgqd3qloFUBShUAxI9evmHT0cs3jFVr1l8rIK0x33U9PH8VHp6/Cr80N6I2vEDegvZqXjnapes6wt2NiNrIXgDr0R59XibRvtWjNi98WxZetPsgKZku/RyYDmha8TZezhhmX8xSQLAVw0E1o8+je/q9LZcNaDpRnluoEQxGp+Fb1trQt3QoGkdpRPka/YpKZtHX/hYL/tOfQy67VD+mTEipk7oZH+y3eytHTZC38LcPDSulA8HS6PPwzBUKCkh5+yh9si+Q5vSIRCJ73TfEOuFotXBx8Yv7hpUqVnuzKrx+xdCYBeD5vuW+B67xhKTh/U+Nhvc/tR8KGQX8/9m78wDHyjJf/N8nLHbTdFdYRBoaK+2AqNBU2Hc6DQgIaKdxV5wO44yIjkMxym+u4/USxuV6p2ckXJ1pHPV22mWGwYW0yip0p1RkUzoN7rKkmk1UINUs3aDk+f3xvuec95wkteUklap8P1hWdVVycnKSnJzzzfO+T8atDXUmVoUqCgBSf3zloeuDYHOc6tNJBKTR4flR0fD0h7vuix/uui9+sMu++MEui/mCol48Qa7N4Hok7QH6tWDneiKibrjcnpyXZ3g90nYdeu3DsSxPfCdU6YPwoob45jzsNaUYH79eHfkTx+u4GPM6Zbhv6dq+JdUnr0FqE4PRSfpmYsmAmoO2XKgyFA3haBlAZveR/87Lvi+HVx2qcIa0G9V21ue4F5/wgzur4P49Go6q1gt/Onz52FSrHie9x0ml1mOCcHTeb+5ZHa309N6sVOvutgEiw+hdjz3+2MBjjz+2+rHHHwt3mQ9yUPe2ywDST6WWXfLk4LKx8Rs3tQhIGy4b3nYa+c/bmTdbJuBV6ypGdtkXI7vsi/Iui1HeZTE27cywlGb8BDndA2/QWXswNMSHhIio40YBrLD73uoMrkcSvffhGMOLicVVrdbL4cVcfvw2xPi6H+7B+zeIeILRQo/uW4pz+Lk5hngKNjI9fB8r9n5SD2AwOgnXJJYM1IGyAukmlaHev6sKZN5Yf3TFufVHR1Q1BQRzfSISjqq2/yZ07AtPQADM+8n3VwOa9pYdpWZu0UKzDu4/n/fy2LaTDUeL8O9yYzj6st9svsxbj4N2PAlVzarTdclZ/3I0UHzs8UcHHnv80csArQJaBJBqqNhUf3NXAWT33Xfxin333XfL65zGT4c0Nn8aPyCNVI/6Ya1qGk3a3NuAtAYEQSrQGI5KaKWNjTsvxsadF+PWnRfj1p3344uPZuIEeRWCoe0zJYW5PbSeiKgXA5JeGD2QhSkymOkPxwYRT1jXDye+cTxf0j18/8pz/PErxfja7TXZmB7/uKfCyMT0utsyx5+bcZyLpHr4/s31fcuswmB0AlfLkiFVVFVNKNpk2HxNgVy2/ujSlfVHnU9NNa0aHtjt/2yG1Mdy0LnLnTcPaF3z7q34DZeC+UZLh7zukLFoxaN0YHu99NojL8D44Wh+l19vXnfgjiex9eGtQ2p3Vk3C0ZI/TcAD9w4++uij67SOGhR5qDdPjAKNw9lrAPKL9128dN99F7cc9uIFpIfs+AMOdb5abaNmASnc+Wq8gNR5zJs1yGpdjaqhsNSL22/ZeT/cstN++L79IuqSEQCHw2uuNnOKANbN4O1X+VToK6mYX0NEs5E3vL44g+uQxswPrU/HtJxSHzxn4ggvkgwvZkwhxvfQXhvtMxzTsWichmJ6vs/15yViOgdJ9fD964fHcNZgMDqO/5Ily9VUipqdV7jbfA3mU/XUqvqj61sdUDlzikaH1FdiWs1hVaSilaKRcDQPAMt2/L5p4BeXB+bvBaB5OKqhOBm50dGt10LtMHrvKwhHqy8ceNjovPvvXTnv/ns32XAiZ+6Xuxj/3nr/FQCkFi9efPl074MXkC7b8Xss2/F7HBbZZm6g2ZINSKPBJ9AibPX/3RiORqcRuHmn/XCT/SLqgvX2gKIwg+uQg2nMMRNDK6sxLovzpva+FDcBEYCgOV96Bk/ckvZYcqa61qd54jsrt3fcapj7HaNHEd8ooVwP3a84GhzVEG/TJe5bpiau52Wvzn/L94cewmC0ha/LktV2TtFktFLUHqil3lx/5PLz6o80HR6jqkk0a8zTUEU5fZs3bx5U1WEA0LoXLDYsu4ijMv4benRYt0Dxq0hzo6l6cP5eeHD+XqHwsP7aIy6A1+3Un/szlGpm1VR/upvGb1C1628rD6nWS15DqfC29bvW+xWxgKb2W7zfJYsXL459uNJhNiAdsl/pHb8HpGmRaGhH5wWfQJvhqDQfjn/jTvvhxp32ww077YcbdtqfL1rq5AnyJZjZBh1pzP55R9N8KhHRLLMFZv7RHGaugj6PmRk5kOmxE/teVp3D963SJ6/1QkzLyfbQfcrFsIxSDx8PlkGTlerR/SbnF+0hDEab+KoccJkCxSbD5suqSL+1/sgFb2kRiHq0jrQXVIaqRmM/WNRkcKPhcNRWYOYB+HOJNms41I4H5+/lbx0R9wvQ1x1xOZyGTOEt4G0bRBvIA0DKm6M1Mu9oeBuraXS13+L9V+23eP+ufpq7eOt9Q5F1aQhKWw2Zd/8GTD0cjV7f267XJ/bDdYn9cV2CISl1xEw36EihN+adI+rnkID603p7Mp+fwYBjE7pbeZ+OaV/QDye+ce3zlvfgfSv3yWu8hPiGLa/skfuUi2EZhR7dtwBzf35R7jepqxiMRnwFS9aZoefiDpuvAsi+Qx9Z8XZ9ZLI7oWTDcO8mQ+qn657Nm5erP7zcC0LhdKJXACgmjlox2rzJUPvd6R/abU8/BG3s3m6X+7ojvG71taAxkjbZLgiFo5Gh9dFwtAogs//++6/Yb7/9Z2oet2STTvTBvYqEowhtI23obt84RF8bhuy72xgIL9+7DW8jfi+xP75rv4hitmEGT5CTmL3haJJPnZ6X4cEuUUtjCOYfLc/Q67OM7oWjceyzK3zaMLyYRa/vUkzLyvbA/VkZw2u4gs6Ej2nuW7p+P9M9eN/KoJ6yMzeBUcQBAwItK5A26Z1ARGqAFt6lj0xjzkqFqvhzTaqKP6za/1s7VPMQE96KDRdFxHyHAiI12ODCC+N+OW9vvHbHH/CreXs3zDH623l74aAdT07uCGG3Pf0oMBrSuQaff8r8kEqtr1arFbsDSJrNqxD/GnZ7CCAaLMjku7bCUgBVrYok8vvvv//6GX/C+Mmn1yYpHI4KpCwNzwh7cTtXrffo+X/zNqJTXSsiLf+N4KLBtpdwKKsAvpPY3w+bs/VH+WKnOE+QSzCfpme6eNtJuy/JoPOflpdjvG9pmFCZiGg280YPrLb7/2QXbzvt7Jc7WYkZV+ViDb1ZBRm31By+b9W+Oh2Op8oyCzNH8UzKxrCMQgePY3tpP9UP+5ZkD963ftq3zAoMRgEUccAQgKJC0hK0RyoCMny+PjKtAy8TVCq0LkDCC0cBwA1Ip+en99yzWoGMmBvxbjEUjqKuhV2OPW3U3GIwfPvXdj5Rd9i2++8JX8G77elfPnodN+J7pReKenu1VGrLQ9VqXrw3mSbhKFTCAaG/NFQB5OsHH7ZeeuQ5o2o+eQo1RxK33tNUhbr3MLShtDHUbBmOIrxciJgA2V2fJo+BNrnZkg1JAcGq+iN88VO7vPnnLob5IKZbBx5JdC8c7bUDYeqMOCfmL3NzUh9YD/PhWBHdrRBLo/PhaFz76xx6qxnNbAhBRnpsnfopvBix9zcVw+tnJWbuw+CBGF53NXRmftG4wsw0jzVmvSo3QW/p+2C0iAOW2x1fEgBk8T7VxF7J3Pk/2zjS3mj3SOmj96Oaf4hoZjpv/nff/ZMBrWtBRKACiCpUJFp3WANQiIae4aHbkb9NInEctaEonOX5kZwz7PuA54JQ9MEHHxwUQQ6QHKCpUMxnw1Fz9SANVPUvU4UgL68ZWu+u60z7hZmvNWnW1d0eoZC0lgBQB3DkC0+Yx+5lr2gIP49/8Xf+VW7bdd8g4HTDUftzKB61laPNqlJhnxfRv0afzt9OLPF/92aGpNSeKxFUj3brBDmJzoejtZhP5qm3T8iJaGrGAKyyJ/vFLr6O0vb2VnVw+cT9MDD3O9I3nhrHM1VSFjMXjMZxHFoCG+NQZ9W4CXpLX88xWsQBq+2JdVJevid2fcc5xd2v+qf0+T/b2PanlcEcmXZO0eYd46exXM2rajI0Lac6LY20DgCFoaGhsaZzftpKRiA89yXgNVJqcVQQqhQNN1ly57484LmnAQAPPPDA6gceeGATgKoq8oCmvElQQ1tinHlHVZGEohbMyalN6iC751fz9sYvbcUt0Ph4us2XHn/lsi2Hv/B7PxQFmjdccp344u9w0ou/w8n2y2xX8ZsxAdHmWWhYdrP5Rls9D1zfTCzBN+wXURsnD6vsAWm33uyT9iC+U3POVeb4CR915vGpcHNSnxmBCRMLXQ4/1nHTE8V8ehyPHLrbLC162+3q1L4sw6cYWWye1WP6tmK0iAPWeTvOXVa9vrbLiUfk3vaRv92Aq6+K9XbGGVKfnuqy7rrr7kEohlW8DkvOsPygcrSmWi8AwGt2/BG/Ds0nGglE/d8DcMK3qK277Qk/ZHMuE7349i13Df0WGBZIVlWTZli/BsP7vUpGCdYmWj0aGloPJFWl9NIv7y0BGN7ptYfNyKe2v5m3tx+DOqFixlnPhi2S3vH7huWEu8hPXAF7slNNCgDlXRaH5g+FqC0nbbUWjWs40d8VwDWJJVAF3q6sIqVp8ZozFbt0AJiG+WR/RY9vlxSfGn3z+NS4OakPjQG4BKbgoIjuTB+Ss7cX99zzaT6chP4cqjyK+OZXz3bgtTmRwRjWvQKGVnNNkpuAJtJ3wWgRBwzYk+hM4uhl2PU92cpOS16Re+t5K2PeAXqzQ4aH1JsGPArVqZ+EKVAUfzl1mIJfCYWcChSOOPxwv/T/4B1/xG/m7RXujm7/Fg1EmwV1WxfsYS6D6GXM756r3DUIICuQYe/E0r/nfigaNA3yZ7+UYCmth9bbpalkAWRe+uW9+Z1fe9iV3Xqu3D9vLyjQdKbQZs2nnIixEl3W5pftY6tig2sc7VSTTkbmT4/7P2/cebG/Aq3mG514SH3TGVD9v18tS/x/v5MhKU39wNqbe7TQhdvLALgMpiFUnOKe62yIB9s9K93Dzxui2WSDPR4sojtTqxQ6EGTwJJr6WRGzNxiNY59T4FOAx3jUf/pqKL1tslTGy/fM7JL/EHb9//6mJPu9PBN/KAqYgzRtGFLvTEo5pRfonXfdtRLQTCgDU4WqHXZu/l094vDDL2/2ILuhaHg4fHSIdeDhBXtEhmCboezP3XPHwHP33Ln62c13XgszcXBBoalwt3RvvtDwd3ibIFhprxqzCqDYamg9gKQqCn/+5b2bt27d2tEufA/O3wsPzN+rcXvZv9twOgUN7kZkYH0tukx3OUD786We+ufHcdqfH8fpf37MX1jTIfNTHFLv/03C6/ifsgRfFw6zpym70u7rKl24rTxM8Bi3Gg/M+kKqB58vRLOVN/focBduK4n4hv8SkSkgiuO9LIvuD6dvd59TQ2eaLnkyfHoR2DirJ/VNMFrEASuxYH458Zaz0rt+/n8h8boDC+9466pVb3/Lqo5MrKwafkNRLwR05hst/+CHkwr4br/jzgFVLaozR6cfHtpJLW1Al292/QN3PBkKQL0q0cagTLF1tz0ARENRE4g++9M7Vj5zzx3rFFqFCTGzocDTbbWOcDjqfUW3B4K5VwupVOoC+4ZR9u6fM3uqt/3SCpS3bt26buvDW2N9s63uticestMGNAsIxfl96CTaSUadkDfM2d6JyPyg7Tr9z4/h9S+Zr8hNtgy9p3IZ97JflyX4mhyAr8kB3HvSZG2xr+tSF26rE7dRiXFZaT4dela6B58vRLOd9+FYtQuv38u4uYliMRbj8VS2i+s9hPY/5CyBTZeI+lJfBKNFHHAxjjy0tNOnP5xMvOVMKJB759vOu6TDN1tRpyISbsAXhKOTPBHTvKrbBT0cjtrAsXLkEUe0HK7wF9ufbKgSBaIVpCYIfMSGooBi7O7bhrb95PYrxn5y+0MASlDkACT90FIj1aAtwlEAtWhA6lS6AtASAKRSqZFUKrUCQA6KatPqURME56Cobt26te0D4a277RluLiVmugM/CA01mFIsfOi+1oGsSUYbTgCaVex2whkvPYYzX3oMZ7khqYRD3cYgVEPrGQ2FG0NTE8R/BUvwFTAgpUkfZHejeijVgZPjSswn79R74hyFUObmJArZYvd9nX5t5GHmF+S+mqh9hZiWM9zFdc710P0mollmTgej67569UAxddw6DOcKib+/AHj5HoAi9+63v7nj853UVSvqDZ8PDakPiiRVNTvRcn58+x1DqhiGsywjEo7W6xO+8bSqEo0Oqa/d9aPB2l0/umzs7tseArSiqsMAUnXV5sGnAlpvEo6aX1UVmof9xLBhaL3JOStLU0tDjZVSqdT6VCq1FEAeilq4etTeiiKpivzWrVsf2rp16+qpPkaPLNgDDy/YA3BDUISDQbd6FDYgVWhaoWhcJ1/N/cd98/ZpmONVuvD8P+ulx/CGlx7D2S89hladtaZaMRoOTQWAYj2WoMiAlCbnSnS+a/1wjCfHQLyVThk+BXpSukefL0RzxRjMvNPFDt9OXMtP8iGjPrclpvezdMzHZOPJtXn9CjgPPFHfmrPB6JfX/+eAPvNsWf/HhTkceQhUtaaKzPnvfEu3JoEua3hC0CbzjSJT/sEPxh0OXq+bDvONQ/G9pQJQlI4++qgJmz0sff4pAOHh8V5e9vQdPxh8+s4fXvz0nT/crKpVKPJBg6holWeLIfN153LQMoDcQQcetPSgAw+6XKG5cYbWtzyQ3X3ZYZcDSEGRB0xAitC9N42sVFHcunXrpOcffXRBEo1D5rVhLlFxqi0P3P4kDtz+JABNuuPno/+hocIsHLx6AWs3nf3Sozin/ijOrT/asgoUQNNwuHloqg3/LuIABqQ0GRtgAsJah5afRItpRdo4UI7Tcj4Fek66h58vRHPJBTHvn6My3McS9+exKcS0nGwX1nUl2v9Ao8CnPFH/mpPB6BfXfW1IVSu6YLc0FsyHPQHP/OW739a1TrFnnn7aqKpWveZIrlDIWW9dNfrD2267GECmXq+71w7NU2oNT+UB9wLRp28vDz59x8jFT98xshlAVVUL3gliMEzevV0nHNWm4WgNiiKA9KsPevWKgw46aD0A/Pb+3w7AfornBptOOFpqtb4CYOGyw8YWegEpkFdoq4DUm390U6uA9PHdB/DYgmTD/KnhIfPh6tGl25/Cq7Y/6d5c5CRaEQlKa9H7AIQDx/SO38/Y6+Pc+qN4Y/1RvCkSkk5meH+zqtFocMqAlCbBm3e01qHl5xBfhULc7xsZPvw9JxPzc5uIWrsc8Qx5bSXPTUwxqfX5/S/FeEzWadkYHusSn/JE/WvOBaP/8f++NqSKsqqm/MpEILf6/Ld3/2RFUa47neObzTeq2nxH/oMf3TYART5cZQn3el44mj/mmKNHJ7tKT9526+BTPy5f/ORt5c2qqGrdC0ObdI8fLxxFKBytwoSzqYMPPviCVx/06i2R7ZCLhqjO/Sq96lWvarn+bnC56NDDxhYeGgpIqy3mH81EA9InFg7gd7sP2EDPTh+AFl3nnXA0ZatsQ3fHVKg2bUcPAPst3s+//7+Y9/Jw0yt0Zxj9ZL2p/ihW1h+NbPPpV426GJDSBDodjg7HuKxKDx28U7wGEV9H+jI3J9GkrEfn5h7MwDRhIaL2jCKesDCNzg6n9wtw2lACmy4R9bU5FYxe9aWvDKlqGU4pvarmLnjPOzbM0CqVguk2m883CiC7qTzS5M1Ci2rvh9dgqUn1aQ2TKPu/5557Bu+5556L79m82VaG1gvwKkND84OOH44Gla5179JFVc285uDXLH3Nwa+58uCDD276hqLQ4ci8o8GyJ3jD9as4/TBTsejQZWOpwdTlqcHUUgA5hZnP1V1yNCB94ef3LW+YY1WC4ePmexDCvvL5p/HKJqGolXK3SSQkrTXcB6AhHO012fqjWFV/FOfVH5nU5SeqGnUxIKVxbEHngsKcPViOQyXG9UrHuF4UT4gSlzI3J9GkXYnOzTk6zM1LFNO5bO+/JuM4jizwoSbqb3MmGF37xfVDqlpW1aQXIKpq7r2r37V+ptbprDNO3wCgZubedP/SMN9ozv3ryA9/tNxUkoavp9HqU0Xu2GOOaRpG3n33Twbv/slPL/7JT+/ZrKaiswDVtB+Bat1Z7uTCUXvZCoBh1Xpy32OOveAVxxw77jDTX//61ytVNeUtJzI/aQ2TCUYRCeKcBC41mFqfGkwdDiCj0OJ4AekLP7/voRd+cd9q7/rNqkeXPFfDkueenuihTUV/4YSkoQBFmnZ8155+LZ1XfwRvrj8y6Q71GPffAQak1MJIhw6Yk4gvdC334EE89d5jUebmJJqSC9CZeRxz4AdQRHFYj3hG9nTyuKfdY8gKOA0OUd/beS7ciX/7wrohrWtZEpL0fqeqhff91XvW98DqFQEM2yH9ACQU7KkqRDAMM+cSyj/4wYCqFkUAVYGIQlVs53RxAkspn3D8saFK2DvvunsQQFZMFWVa1GmpY4MtqELF9hPXOkQSdj0A1BWSMJ3GYW9LzMrWFFoSlcLi44/f4lU+AiYwe3rRQmcYumBgbFv4zco2bLLLMj+rAEDpwIMOHHfYgiQSCFYQfrepqNRgagTAyOjoaN4eEOeAoHmU+Z+kABRf+Pl9BQAFCIq7vnbZqLeJFj876ff91Dh/q3o//Gre3ghWWuz/o8dj0cCbnerRaxJLxnmQgjs1mfvnhaM5PMw9MHmuhKnci/vAOWsP6ttV7tH1ovZlYlzWCDcn0bT2hxXE3wm+nf1sBfE0ZSsins7e/aLMTdCTSmh/qHoKZoqLuAPIwRheq4VZ+lrh62XyuB+mCc36YPTzV60bUkUZokknkSm9/6//8pIeWcUCbDhYh9oSXRt4wgsokdy4qbz61BWZ9ao6LIKUCUVNHtgkHK2JSA4Abr/jjiFAMiLIqWpaxAzWFgVUFJMJR836SLNwtKSqxf1POHGDXQL8oeBO1aX5QfyW62N7DAAiePz2OwYVmhEImoajkInfiHZK2FDULEOggLYejL5o2aGjUFyuwOXP/OxnK+2BsX0z96phJQkgL0D+xV/cV4Sg9MoDXjmp6RYeeeThIXebjbfjDSJmwA1HD93xh1n3OnubDUn/W5oFpEHkO5XQlwEpReTs6yfOk+MsTNVQu/NGjdp1S/XYelF7Vsb4fOMJCtH096/5DoQTWUw/GK3FtA5F8AMTmv0KiKeBUg5A3Ofn7a5XDbOz6VIZtqiKiOIxq4fSX/nvXxqqa72sMKGoHWpeQXe6303KWWecPmrnPXXm6mzajCm/cdPIkNaRD4bYh4eFqwbzctbr9eHbfnz7Q2bothZUgwZK/qW8yztD8IM+SqH+8G7H+Yqq5gAk9z/hxFX7n3DihlD3dnGGVYsACYHslIAkxFR37iQmzEwI7IFuaAi9mVZAAaB60EEHTfipoSQS/hfcr4ixPQZQG1jkh7YiwKJDD92w8NBDL7AnvrngxFWD7WkaQ5W2bt360NatWy/b+vDWiSYHTwXbrG6/Qo9VBQB+O2/vhmHn0qPzi07F2/URvEMnmod0ajWxHF5P3ssYnekmnInxIDTuk3aaWXE+BiVuTqLpH9Ij/iH1GW5WolhsQTwVd5047mn3nL+E7n5IXePTiag3zdpg9Mp/+9IATPf5ZDBMHTUocu//67/ssSoczQfBYxBIRpoxpQA3QA3C0YZu9NAczPD8VGg56s4NOqVwtALoMIDUkpNPPnzJiSev3/+Ek8ZaBaIQsUGoDUMTXhgahJiP/fDHg8260Tv3rzC5Z6iz7J2ckNQxttce4XWy1bASBKRjCw89dP3CQ5etgAk2h+19drdxShV5KKpbt27dvHXr1oubhaSqmg7menXnZfWD0pr3O3G60AcNnuaGd2qzOUjHb8I0Hs4/Ss7JcTXmZcZ1clyKeb2G+XDPuDhP0krcnEQ9tU9MAlg+w/cpzYeV5ohCDMtIwYzUiMsQ2h/JU+jydqzwqUTUm2blUPrPfu4/BuqqZREkvXk3Tegmwx98f67nJk9+w5lnjNxw081lVWTMkHVFHUDCH4ptBpZDNenPLQo7QFm8YNSZm9QbJg9BvV5HIpEID7n3h6zreMPqK2KG+JSWnLJ81A3uokPm3eHypkoUoS5IErSO9xeiQE7VCwaDhfgTCCiKzyx5BYIx+YKFDz/esO2COUa9YFX8+Ua37bs3UPcbLJkh9qoQNcPt1fvZ326KhYcuG93zmW1XArhydHR00J4YZwDNmouIdyBbEKCwdevWCgBvuP2oRg9yw121cMABrxx5YP5eTgDtTZhgvGYWDqMHgG8mltj4F/59C9/zYNKA5v+enCIO4NB6yiPeTsWZmJazIeb7mUZn5tuiyVmN+IbRV2GGAxPR9I0gvrk93f3sdIay12K6/SQfVpojiognRMzGeDw13Ob1K7P4GIz7FqKYzcpgVFVLAqTdiS4VWvrQ+/+qZ5tZKJAXaNnkdOINLkcQeLoNj7xwVP2wUe08m/7cpNMLR0uiKEOkdOQRR4wCwB8XLvI2ofNd3YyzaSBqli2RluXmbw/fsmkAqsMitv+6OuGgeayK+5++Yiw6JP6ZVy72Q9TdRx8zv/Qv4zVsMqHnM/vtY7ZJAoCKDUPN5dSOkRcFUA8C0uQzz4Rub3BwcBSmQu3K0dHRAQQBaQYw87wiHJJWoUi6eZ+2OJAWpwuRhrbt7FBK7G/DT2kSgjYS2Klfp9CEqfWRF+ce7XMl+1qK66AvHfO6ZWNc3jBMV2bqvlzMzwsial8B8X4wNt39fwWc7oTINRbTMVA2xuOedtelMIsfjzSfkkTxmnXB6L9cedUVADJ1VX8eAIHU7PDynnX2mWeMXH/TzWWBZrySynAzJqeFjROOmmZI5jLTCEdrIlK2b2SlY44+umGKgYZA1P4jmKvTVoImnEA0PNGov/7BWHsMA5o06yLeVAHmzyqAoCA7tRp0bQLOZwf389M1dZoveX/3g1JnvlbYSlHRYOoAczlg4Olt4z4+g4ODYzCfYG4AAFNN6oWkklZFCna4hjTbgMGBtI29xQlHp1c92U3X+UEoUJ9ojZuknkFrqak3YWqF1aN9f/Ad5z49rsrMOE4Kogf1w2ATpm4bRLzzDxa5SYliUYp5eSmGF0Sxvte1ewyUhBlO327VaLvNE2uYmQ81y3waEfWmWRWMrimsXa2qw0AQuNnwJnfxB/56NpxYDitQgdYhkggyPkQCT0S60Y8XjiIYnm7D0ard0ZePO/bYCd909npmG55auAgNVaJ2rs6Bp4PNuu3lewKS8CtHJTzxqP+zqgk0zPp76ytegFk54OzXb2nWQMm/dTdVE69SFH53+lBQ6g+dN+uk/jhvgdTrWPTU09M7a3aqSQFgdHR0yB4QpFXDJaNOc/rKQ7vt6a+regmzmtDwoB1P9tST8cad9gsNjXceAf9ZOZVQ93x9BF8NzRPafiDM6tG+PjnOxbi8ZIzrVYtxeUmYYJSdRbsrH+OyquB0CERxiasqzZOZ5vUqPfbeQ9QLNsR0DJRF+8Fou8eIJczuD6UzfDoSxWvWBKNrCmuHYEve3W7tCpSH//ZvNvT6+n/vhptW1uuaEZEaBEmowptv1C8tVDfwNKGoH46qF1zaKNT5mwjKdgdfPuH446Z8gibizzzaOGzesegPT4X+/cz+rwhVj4oIHrru5tWiSHlTgXrTBDjVo4XWoajDaTgVVIraKQKcoNSfW9Rezq0WXfTEU/Gc9Y5WV9sT6VRk5exq+Nup6s8N2+ruzKBbdt4vND+ov05TGPfuXlSAUIf6r8sB9qEKLqUwoWa7jZVYPdp3yjEvL43pzTPX6qQ9F+O6Ddv3NlaNdsdgzI9fgZuUKPb9f3aG16HG8IKoxSF5+3N75tDeaJkBzN5h9JUYlzXAY0ei+MyKYHRNYe2A3REno3/TeE9wYrPhu9cPQJAVkYwAWagm/aDRDoGHFxbW1Q5VbwxH/SC0LkDCH2JfFTFBKIDyySee2NZOMdRcKREMnRcZv9pv4aNP+D8/m9rfW1BenfDSD9FM9WhtcOXZ6ycXjDrxW2QIvRuU+kGol8QqsPDhJ2J5DKtVG4gqUioa2WbRRkPmzc6vtrRlvxLqXtV9m3Ze3BCERnPQ4JGa3Iq+rf5Iqwct+oxyjoAetkdT0w9IWT3aV8YQbxOOZMwnBXG+7yTBqtFuyse8vBI3KVGsyj2wDnGGF4NgczaaO4poPxgFTLC5vo3rtvv6nqmRHnEGmWnE86E/EWH2VIzmoyfItmo0/+G/u7BnDja+veF7gwCyCZGsQjNesyAVW/EJGx2J+GGURsJREWcYPbxKUakBKENRgqCcOeXkWO9zctszqCUX2UpRby7RhPl5knavPop777tvNVRTpjLUVqGqP7weIrZadDKLVWdAt9lo/lB6ROYUNdvW/Lx79dG2t8dDNhBVIOWvqqJqf0qZ1WsalFai8496w/4P3N6dYfQ/2nVfOzzeafDlVt9CmvaPH69qdFXLIDTwn7Kk6dWjIWZcASnD0b5QRW/OzzZi1y0V4zKHwarRboi7WrTEwIModnEHFsunER7EuS9OcT9Bc+z1WYnh+CyL6Qejw23edmGGt2EZ8VSTp8FglCg2PR+MrimsXd5iB1jrgR0bvvHtDUMikhMgo6ppb3i8QGxVqASFom44aisJxQ1HVVEHkLDzcdpwtHzaisyKTt8PSSQaKkYhgmf2ewUWPjbpCsy8fz/Fj36Doe+Cgnhh63jVqKrORJcShJDOkHmoV2EbhKMQxbNLlwCqUw5IH3rowQH7PMsB6gceth1VXsxzrRqsY2SVRWs7ve7wMWdSAjgzH3TU7bu+okn3+BY3Ou762PlgAbyxPvntd3U0FJXwQ9hMu8PrGY72hQp6tytwIeb3n6RdHjvUd1a+A88DIopfDTM/P2dc4UWG4QXNMcUY3v+ymN5Q8EG0F8rWMPMjPaoxLSfNpyJRfHo6GHWG0Dc9IfnIxe/venXNf13z7QERyQDIJhKSVUXS68Ajdvi3SjAXpjdk3qsSVZh5MJuGo7afeSQczdyycdPFp5+64sqO3rGERDrQJ2xIOrmr33vfvatNoGgD0Ug4CqB46OsOHXvukAODK7VoSh+Epna6AbhzinqBqHcRCYej9g/PLt3fryzdvfpYy/V+8MEHBwEM24ZRSbNaduEiRUDzS1NLRx+qVgfdg3RpXO9KEISquxR/Dtc43fWyVzRtnBTatn65qEziYRScXX80prXTSd1iu9WjDEdphk8K8jGfuOfsiQYb+XTGEOKtFq0y7CDqmApmfn7OuMKLDDhVCs29Y6BCDMvJYupVo+2+j5cw86Nz4ty3EFFMer1iNI/mwxVr6GKlxtf+65uDdr7QrKpmgKDC0w//vE5DflWoBD2VgqDNhKfudVqEo2pvw9DCLRs3VU8/dUXHmkx5FaOhqlHvaxK0rnmELi5+kyx7P/IAsODn9/vXeX7Zq5usiNO2R71gVv0pMMUZVh+EpMH8osHP6l/v2cH9AAC7jwYB6f33378cQE5Vcwhta0AVZQD5Vy1dOuLcwYy7LdzKUPtTxQ8hI1WZqefjaQJ1z8v2aawMjQSgzR9cZ8pW53IC4IyXHmtrnf67xRB6CPAenVxo2U5AynlHaYZ0ogmTd7JxODdvR8R9zJDnJiWa0yoML4jGPQbKtrmcYXQ/GC30wPYrx7ScFDiHMVFsejYYXVNYO4jWc4gULx2+qKOf9hS/evVyEbFhaD0lCObGVLcxkKnvtGFYeD5Rr/LThqNlEakoMOz9HV5Xeicc9ZLBOhQJexu2s3vxlo2bMqefuqIz1URuwyVbMep1mp/wyLGyZbUqUrYc1s5RGgRwqlo+bNmyhp32bvf9BgDw/NDB4VUBIqGo2ClHww2YxEsI/WJRNyCNfNUVz75yPzy+cWS1QIZhhx8EjyUAoCoiuVe96lUNVUCqSEs0AnQ2jbqNl/z/l7b7Lt07b59QZahOoUlSs2HzAuC0NsNQzzcSS1DXhk0xbe0Mr2f1KM2APOIPRtMALgOri+J2cczhRBXTnxuNiLqrOs3rVWJch5UANvChoDmkiPaD0TSmFuwtR3vzu1fRG6Ny4ty3ZAFcyacjUft6uWK0OM7fCnHf2BfXfW1QRDIikk0kEhnYIZJ+cGnSShMe2uuE/uaHm/7fygKUFSivWnnuCABs+O7110IQqiz1ygvVCwK1bhofNYajSUDLnQpHFz3xRzyz3z6AVznqD62f+Lqqmg8qZ231K0LVo/lxF5DYCaEEz8/+1J9LNAhL7bbyklGv+ZI7kt4NSeuKx2+61TTcEAwDSKpzW/bRrKpq/sADDxzvRDejDSGj8wuRSvA78YfUv/L5p6f8WPx83ssbOsl7T7NmHeUbO8yj4RKZP/+uIy9ScaZ9dZ2v0wsp260eZThKXTSK+DvUAyZwLYFD6uMyiPirO4vcrESzal89HXFOlZEBg1GaWzYgnkaUWUw+2Gv3eKvQI9tuDPE18cyAwShRLHoyGLUNlzIt/ly5dPiiWErGr/rSV0zjJEFGFWm/1s8dFu8Hl/ZKXuIX/lsNQBmQMqDlt5y3suGEtvSd61YrNNu8U71ARGuqkpxEOOpVjsZfMRttwORVj45j8+bNqwFNeSGx2LlRnerR8tBhy1oeXG4/8hC7XZ1h6m6zpdBQeq+ZVRCI+nO4qvhBpbdVH7vu5uXmTdQOl3duwyaIVYXmDzrwoAkrf1Q1DTQMuffNX5beos4aBJW+k/OreXvbINSZm7TFZd2+8n4AbStp1bnWyS/+rmOv0W8mlrTs4fRufaTt5U+3epThKLV63+jQcvOIPxg1T2XzHsgu9fFsy2SMy6uBTZeI+kUZ8VSbZwFcws1Jc0wJ7XeIz2HywV42huOBXtq3xHH8mMX0mlgRUUSvVozmO7FT+/xV6wYAZEWQsfOF2pOlcIhVr9eR8Con1Q25FGpGzlchUoZqGZDKO9+2atzKnm9v+N6gqhZCnerD4WhFIcMiKKlionA07VSOxrsTbNKAaaJ0T+1j5bdZUiBSPdr0BHL70cvCyWIos5QgCAWCzvQaVGJ6DZiCoNn8+5FvXT9g32iGoaa7fKQJFABURSW/76mnrIeqqZRVYOHjv296H++///7lqs1jQLvscpO7MaH75+3VEIYiEnqG5g5tUTXqOqGDYaj/fE4sQR3N10NivJ3pVo8yHKUmah1abqeqRtNgl/o4XIb45/cb5gkIUcfF9bqtxhBexLEuKXA4Pc09BbQfjKYxueH0q9Heh5zFHnvvLsd47JgDq0aJ2tZzwegE1aKA+XRq8nvsz39xuYhkIMjWtZ5OiIkYQ02RfLZ+U4LGQTYcLQOoAFIW0fL573jr1HasqkUVSZoQ1AlHTf5XEyB77hvOHL3uxpszACreCHK/KrVL4WgQiiaccLR11PXTe+5Z7YWPKuKEo371aHVoaKjhIHD7MYeZRK1ZNao3h6jX4t0GpIJg/lCzbbzGS+Z3D1/znSHz5qxZAEkJujjZCmBARKoA8vudeep61BVIiA26E0C9jm2LXw7UFYue+GPLA/QWAWnZrK43zN9Ude7/XPMs5sH5e/nzhk77sYr8+9gXn+jK6/NaWynqTCARSkjfEUO1aOO7/cMMR3liPNMnx+MZhvnEPhn7U98cOHMuy+lZifiH0Ff5eBB13EAP7fvLMe/TGYzSXDJqzo9N34Y2j6MmqqjOtnkbxR7bdnHuW4bBYJSobb1YMTo8zt8mHEa/prDWnytURDIKBIFk0O/dhG0qzRoq1QAThIpI+YL3vKOtOYa+ee13LlbVjMnyvApRG47WAUlI5tyzzxoFgHPOOmPLdTfenFOgaLJTWxXZrXDU6Uzvh6LjDKVXRd4vZvQaTyFUPdpwUrr92DSC4LMJNxD1yyO9Ukmz/Xb7yc+x/YhD8NDXv2UqgIFhUfum7D2e4XlEq1Dk9zv3jPWm2jQBJOp2+8OGowKpm5vats/egNax6A9PecvKhFfRHU6vsAcF8MJRaEObJmzdbU/UYUf9uw23mnaUH+ffzpyeR73wxAy8PKfQ/CnWswmGo30oFfPBe6eMwVRN5Duw7KLdv3C+0akZ6tBJ0DA3LVHHpWNcVrXN64/AjDhIxrAuWbCDNM09hRjeb7MYPxgdQHvBaBXxzhkc13FpJab9XQqmMdUIn45E09dTwajtRD/ejq/c4norYaqLMgDS0ao+d17IutaRQAJ+KlVHFQmURaQMoPK+vzo/thPQb3x7w5Cq5t1mS2onhBQzPDy38pyzQ7d3zllnrL/uxpsxxXA0e/qpK9o/0EqI2S5OKNqqK/3dd//kMlVNeTGhKeC0g79N9Wj18MPTocqa7cd5+34v5Issu2FovXjj8UPh6M9/8fOhB81Q+ayIJL2w0ax9aEx+FUB+yaqz10MVmhDbQAtAPQhH/X9L3fwMBeqCbXvvCVXF7yOVa9FKY4GU/VkXLK9a9JEFe/jVoeLeN6+adapnCzt+P2Ovz1Ji/3HXtxPVoq7pDK1nODprDSC+YLTchfW9HKYaKNWBZZftexvD0ck/d0qIv4K3DFZ7EXVDOsZlVeI4/EF8Q17z4BQpNLeUYlhGCuYDzS0tTwHaU+jRbVeMcd3yAFbw6Ug0fb1WMTrRjq8KAGsKa4fsiWIWLYZbuuFo0MxGAEFZoRWBlAGUP3BhrmPzjaiiKGIqVqPNlgAtrHrTuU2H5E0jHK3E0a1eRMx6hrrSNwajd91194BCh00S6M3FCkSqR/PudbYff7h7Q61WwHnAQlMZ4IEvf918WigYhiLtz/nqNn2CH5BWRST/yre+ab3fSMuunibQEI6aSlF1qkZtJbEAT9x+x3KvyjdYz/BB96LDjxgLT5KqeGxBMtxVvlUVqNM4ScJ97kOXXjaDgSgAfGecUDTcAKobO4mHGY7OfdkYl1Xt4vtXuQPLTdrlpsC5LScy4Gyrbh+fEFE8MjEuqxLDMkqIdy7APFg1SnPHGOKZaz2H1lWj7S672KPbroT4gtEMWDVK1JbZFoxm1xTW5jH5SpAagIqaOSDLF3/wr7u2s7j6G9deZjqZe0OmQ+FoaVX2jePOpTKVcBRAUsQfVj/tcHTB/Vvx7KtTjU2YItQMXU+an+34c7H1mmb1qkcefrgf+m4/4Qj7k0w4Cnv+bT/F9hOPhFctev9/fCU8d6i6jYmASEBaFpHi4LvOs0PmJQhDFWboPJxwVAAT7NYhiQS0XvfmIjWXsc85ewv+L0Ld7e38ouo9FNpka3nNu6Kppza7ZPCv1+74Y0+8KL87QaWoAHhr/ZEu7ygYjvLEeNLKXVrnEXuQm+3AspMIKkcZjjbnhaLpDiybQQZR917Hce5D4zju34D4htPDBiGr+FDTHFJC++FlFs2D0cE239eLPXzcFOdwem/fcjifjkTT0zPBqB1Gn2rzZLlqT4wqAMofufj9MzL08L+u+fZyQPNB0aq4xYEVmeSbR/NwVBu61ZtmUUiKaOWWjZtyp5+6YvrNIZp1pnfcedddg4AOq43wvPWyuS1stJcHYANOhzhD3f2uPQCgmPfDn/gX++1VRa+zfA6qaaCxs3wkIC2LIH/I617nHwA/f/jrYNJPJ4O0gag/Mt+vHjVD7E3FLIBEAlKvQ0WhauYXdacUiAylL5vbiFSAitclCs56TlQ1an48uEcC0dbC90NmaC2mOrR+loWjm+xBYj+GYAOItzqv3NWnpXkfSnZg2WkwHB3vOVNGZ0LRCsxUCUTdsNweC/drk69sj+77SzG+L2XByi6aWzbYY59UG8tIoflw+nb3CcUe33ZFxFc1mgZwMdiIiWhaeqlidDo7vqo98CkDKE/UmKkb/vO/vzWgqkW/ejJo6gRAayKSPS/7xkmf1LrhaNAOvB4KRwVAwoSjENHiLRs3pU8/dcUl07oDkeZL0TlGVTUPICk22PQzQG/guEr16KOPWr/jpKOgTtVmaPh8ZJnzfnC3OfusbFkugpxqPRfcrni3a68aBKQCKUFROPTQQxoOLnfb/AsAwPPp1wRbP1hc5LsNJxPibV5ABI+P3DYA29TJfxz96VH9+1CeeBR5YwAa2uQADtzxZE/uIL43iWrRN3e5WjRqKtWjsygczdj9Wg79N7fkcIzLqqK7lX5j9r2s3KHlp2GCuiw456hn0IYW6Y7tYoi6f6KcQX/ORZmPcVlx7ocLMe8LinafxQ+5aC7tt9p9/WYQbzBaRe9/AFFEvHOg5u0xEUe5EE1RLwWjmUlcpoJwENpzBxR11YKIpBAK8tT+UzJvPe9NU95ReeEogKI2CUfVDGh3w9HhWzZuSgHITbVjvV8tKo1zjN5+x52Dqsh5gW8wJagNP0316PCOk48yw/4TCW+h7g2Ebu+XhasGN0NyIpIDkFJvYk5RO6zdv6K5LVWISBFA/tBDD5lwW+5W+RUA4Pmhg0PD6INu9KbRUiggFRPout3oBe78p0E3+r2POnosiL4jFaGRqtFgAUHV7Kuef7Jndw7XR0LRZgHpTIeiQXIxJ8PRNIJwtF+avgwg3mC0NAP3YcQe5A53aPkpsCGTZ8hui2SHlj/MbUwz9rZm3gOyfXSCuxrxzg8c5/5/i7PfjWs/XgAbMdHcUUT7wWgW4WrHgTZfc4VZsN3imqPVk7T7Pg6pJ5qiRA+ty2QOhoYvHb7okkuHL9rQi6HoV//zmpVQ5KDqNwIyXwCgube9eeW0T7DOOeuM9aqaA1BTO2xdtW4COjW3VVeF+iGsZgGUb9m4aWhKNxQNRd0h5KpFL+RVhXvfvHrR8mF//4ENfqLZ9Mvcxi8KV63+ReGqawFUzbQD9VSoYZZXgBrcRs2+waWWHXroBcsOPXRKJwq7bfk1drv3N14DriB0jVTIRgLhrL8+kf+ssl1UeDh507HlGvpz6vmnsPT5p3p2x3DDTvsjGoVKk6/eOoucfNg5lflJZ5h3gLPOHiDOdXnEG3IVZ+h+XIJ4mn6M97yo2CChX6222yDZoeWXwOFoNLPSffQ6H0C81aJVxP+hRtzvJzmYYa/9YgDAZr6s56xRtF+lnZng37PlGHCqCh1471jXZ/uWa/kSpHb1UjCanuTJYE/6ytevGVBF0YSVQCQcLbz9Lavani/q3Decud6+SfjhqN94SAGtazSwTANavmXjpskfVIdC0YQfjP7oth8vV9WM+h3jnVDUL/O0B7UtQtGffXbt0M8/u/aKn3/235+GahGq2Wjndj/shQ1f66jBDN9PHbZs2SWHLVvWVuXEbvf9Bgt+dj+8ZFRaBbgJMfOLqn93Q2xAWmqso2w+8FwAHPDc03jl80/jlT0ciIbuxwTJ53k9Ui0aPsuYsw2WcvYEeeUcfj9ajviH0c9ktV8WpmFHJxXRP6G5ewC8rsMnPFVwCD31hqR9rm+CmTZiriog3mrRQgfWcb3dN8R9v/sh+F5pt12aL+k5LY735eXOz5k212W2TFXhVaTHfd7QD/uWIQRTTBG1JTHL1rdn31BVtaSqSRNM1r2R9FCg9M63nXdJXLdzzllnbLHbodIQjqJZOIokoMVbNm5ad+vGTROePEeDQgm60hfcCtggFPWrR8tDH/ngSDRgvPdfPj9w75rPXXzfms9vVtWKKoZVkfSzRruAxoBUqwByr73k/XscfPH7L3/1hy6M9c1twc/vx4JfPAA4FaTuej98461DqkjV/fusCIWkitorjj56pFkVpb8o+33/52rY/7narHmR3bjTfhNeZlUPhqLBkcDDkwpIZ1HVqCcFU8V27Rw8QR5C/MPe8zN8n0a7dKCWsweFy/vgmGW5va+5Dt5GDf3b+Ix6V8Y+9y+bg/dtdQde08UOrWsn3lcK9j1wLhoAcIV9f0/yZTznldD+B8KZmM77i7Ns23Vi31LE3A5HL7Pviym+9CgOPRGMrimsnewJXboXN+K6r159sde9PAgLFVrXjpzAnXPWGaP2jaPUNBzVcDjqDeVXoHzrREPrm1RP/vC221YrTHd4VUW9Xg8No7f3edi9/pY1n1u55Z8/d60qalAUFJpWrUOd67pZoxOQlgHkXveRDy597YcvWu+Fs/PKt3fksVvwywew+68eQnT4v6mODXrJK4C6N12B+Sp705I2qxIVAPs+O4bFz9Zm1Q7h5oZQtNl9k1lxX+ZoOAqY0KZqTzbmQqXggD14i/OkqYaZmV80agTdqTxMwew758pzotlzZJ29j50+AB4G5xWl3pS0J88PzaGT3dUdCDCK6NwHG52oGk3afdtcCzC8D7KG+dLtG2MxHHtlWvw8FVX0ftOlZseL5Q4stzhH9y2bMfMFEDTHzLaK0UyvrdCX1//nkKoWgmHzgA0pa6qafffb39yRg7Nzzjpj7JyzzlgFIN8qHPVCPPNvANC0ApVbNm5qPaeRUzkpAtxduGpAVQuqCM2vGakeLR7+D3+3ZfM/f25o8//5v1dU/s+VT6tqycxzaq/hzRnqDZd3w1Wz/iUAmUMu/dCK1136ofUNAW0HPXfIX5jKWLfM01t3rfvD+yNBaalVPih2Gz2xcHblE9+3oWirKljvbyt7uFo0ag6Ho7AnG1WYT0xnawXpEDozvK6A3qn4W4/uVS54z4m5chA8YJ/fVXQnYB62jxdRL0vZfcpsD0gv7tC+sdMny53YFyXnUIAxCDOypQxWcvWjdl/TGef4sJ1jwNko18HH5Io5ckx4hd23pPlSo7jNtmA0uaawtmeGm3xx3dcGVLXoh4Tww9EagMx73vXWjncSPeesMy4HkFFFzdZu+gEe1KlyhFvhicItGzdtunXjpsYwJdKAyBv6Hho274Sjtnq0ds9nrtwMaAVQM1S+eXOmxoBUtahA6tD/cfGqQ/7h4vBQfHQ2GH3+sIPx3LKDEB1OX/3ODQOqyGioWNKrjDVBKYASRMLD5tE4Lefvdp8d4egtO088fF4AvKn+6Cw8ypjT4WjSngRWYSrqZtNwvIvRmY7itR48KL4A3QtHk3MgNHED0Ty6MwSzCDZbotkl5bzWL8bsqRb3GmUUOvQ67vSxd6cqu7z1n63zRrv77Sxfnn1rBO1XVQ+hv4bRe0Y7ePw6DDNX9WwdVeTtW4b5EqNO6ZVgdCo70FyvbDxV5FU1rc48lDYcHf7Ld7+ta0PxzjnrjBEAKVWU3NDRrGTj0Hob8mUUqNy6cVN4vionmLzzs2sH1TQ+ig6bj1aPDpvt0Hi5cHMmPyCtQc3J7tFHHXnBUUceMSowYaxI45yfL7vlR7Fur+1HHILnD3+tzUPt7cG5bYXfdEnrcOZR9RdR2f+k48ckFNhqy9t7fPdZPLJVmv4468zhpkzRfWMFZnjJ6h4++BmyB2cFdCbwGkZvzg95QQdPpicKTWZLQDoIUw1QRfcCUe8k6gIeEtIslbL70xpMqNbL8w2vRueCs1oXT5pz6FxzPe+9fLbMGx39IIuoGMM+LdXGbc/mOcLziH+6Dk/GLns2NXJdbY9ju3lMSH2qJ4LRS4cvmsqnu9leWOcvfPmrK00g6A4rV6hqPveed3R9KJ43tF6BnF896nV4b9Kx3oaWSQXyt2zctPnWjZvMAZgdQg8IVLXgBZstmy41Vo+2as5kGypp7thjjt7jmGOOvvyYo48O3rjchk+SgLhBZUy2H3MYth+1zA9Cmw7XF4FCs4rgP7fpkg1Ki+7lm9PQqj+2IInHFvTm/vzWnRdPeBkBcO4srBYNn2k8PMGR1AGYI9L2wNA7Se6VA6Ahuz4VdG5alDJ6eyh01t7/bocmRQBPw4SOvVZVPGAPfDcjqAbo5s6yCIaiNHfk7H7woR57vXsnt8UOvr7zXQxERtHZEDBlH8d16N2pcmbqgyzqfcUYjmMzM3TbM20MnS0CS8JMX7eph/ct3octT9vHM8WXFHVDLw2lr032YGFNYe2Mnuhf9aWvDKqq3fG6gaOW/uov33n5TK7bOWedsR5AWhXlSc47CgBp25hp3R3/+u8DEMHtaz6/HKrZULVnw/WaVo82u1xZFZnjjj126bHHHNMQWrx4VqZpQOmFpO3afvzh2H5cGsGQeXeovlM1an8XNNLyH2FEgtJSsI4TzMnpL9psk0d7LBzdtPPipuvtEgDnzPJQNDhj7Jtw1D1JLtkX4rUwwy27eSA0aG9zM7rTTTzX44/HGILu0t2WhAkdK05oMlMVSUP2ebHJPm5FzMx8UUX0dyhaRuijv7746hepyOvd+5BsoMuv8yu6dHJbRvenwrgSnR8FkEMwVU6vhBir7fFEFd3/IItmh9E2XxvT3VdUMfuaLjUzgs5PCZXpwX3LSrs+NfDDFpoBojrzx4kigjWFtZsw+U+HypcOX7Riptb33/+juElEMt7Qb1thWUkkJPPXuXf3TPn+9TfdvNIejCb9CkzAFkuKDe3EKXoUiJ2fT0SygKTN44NQJan3mPl/g/tz0LVcRIoikj/h+OPGrQh+8Q3OQxmEtQCAXW+c/vvqjpOOshWzCtSdMfH2Z63bEtC6Qut1QOt44OrSUDS0CA+ZR3XwtMxS1E0DKbxkrmsqdE2daHAGJs7vAVWvLZNg/+eenvkz4l0WB+sG8X+uh84gBW946dE5t+ObKADtgaH3nd4xV+3zvGy/VxBPpY03L1Ta7s/TXdxmOcyexjkDdt+c7ZH1KUeeC3HO0TdkT3Lc50SyJ3YDszcUncrxEkUOOXt8/Zaj82FbdN+/JcZ1917nmS6+zmv2dkdn4PEasO+n3bqvJbvv2tDl+5ix71fZGO5rt16DcRxH5QFcDpqO1Zh+9WYV0wtHhzF35gofQHebDJXt41VCd6ciWDkL9y1xHIOVAazgbsLZYfdAJrlzD22P8hSeZJk1hbXLLx2+qOufCv3bF9ZdBkVGQ++3UhNBtpdCUQA4+8wzNlx/080pAHmFDpsSToGYqkhbzqgIgk2FQpIC5FXVDzpVBWJrQoPfmcDQfFfncqipaEEghRNPOH7C7fHi2aeGD12c9ZnuIc2O5cfaNLIeLEOcZYrY7wqo3QYi5mdoNrpvjbxQS6H9r0x9JRXAIwv2wJIZDEdHdlnccvO67ypnzcFQFDDB5xysDp2KlP3KRk4uK8539wC1an9ORw5cvOUkMbMdIouYXd3ExwCsgvlkPNcD65Np8v7rPRfcxz/6fEg1OXnxniMp9O7wpxzYfZ76V7rJ/roa+XKPzdFiH592fp+cwfuTxcyEot6+PIPujQLwAoSafWxK9nuc938A4YA7w5cMTcN6TH8u+ekeOxTn0PYbQzD9Ujf2r+5r3duvlBHfB2ee5dy3UK/qtWB0KvLoctL+ubX/b0gVeYhCVOCEo5kL3/ue0V58gM8+84wxAJdcf9PNRQUKAs0Eoaa5BwmEQ06vUtAPUkWh6oSJ4v3OuxUBgIqIFk4+6aQpnmx684iquyxAgV1v3Djl+7sjc5zTJcmZo9SrRBX4Yaio2CzU3h8RaF2zkGZTh/q/KC564o/mHWvvPeyfJNSZKaBo/uGVQiF4eMEeOGDGwtHourVa17lrvHC0iAP6pWGTK+kcpGRn0XpXMHsr/y5AdxuGTDU8mWtq9rk9AiKKBhGpWbjeuR54PW+x61Hs8vt11nmvriGoAK5FzqmqCAenQ07QkkQ44J6tzwPqTSV078PfImZ306VmRjEz0y9lI+cBZYQLJ2rOfmdLi30LnHOKDPctNBv0zFB6AFhTWPs0pvapSPbS4Yu6Mpzkyn//0gCASkISKXcYOgS5D7wvN2sqT66/6eaVAhQASTUMrQecqQHMHyTyGMEbei/e76QIoJg55eQpH5i+eM5p4V9o+B+7Xj/5YPSF0040w+PdFvK2atQMmW8+pN4dTv+br1wzaA8g4dxd9/5XD1t22FL3dsf2GPCX3ziUPhiiXkcwlN4dZg8VvPL5p7r6HPjBrvsG6+r2lnLWDwDOeOmxvtgJjlc5OoPhaD/NhdeOij3gmu0Hw6sx/coKmvxzJYuZqyyLE4fSt3HI2ePr142h9HPn7bu3PhS7GJ2fF5Cvwe4eR+XBofTtaJierIMymLsferYzLQH3Lb15DFYGh9KHd9gcSt+ghKl9slRAt+bZURQgSNW1joSpsQREix983wWzIhT93g03DcB0rM8BSJlh5E2G1qNhaL33bIVTPVqDooCEFlcsP6Wtk0xxh6y7w9J1cvu2F15/chB02jXX6D7S/6UGw+jhTCUQ3OVM8OKMHFaZdStFb3/gaZPH1BYtbHbjwSq4Q/cjR22ju+2JwS6Foz/cdd/WR4p2/QXA6/skFAU4rH4Wq2BuhKKAGXJWsfuYFB/a2BXQ3Y7VRNRZRfTeSIErYaouc3x4iACYasJqF45rqpjbI0HWO/s9IuqQRI+tz1Rf8Kk1hbWXdfyM6vNfXKmqOS9RUtOhvfLBCy/o6eGb37nuhoHvXHfD6u9ed8O1UK1BtaCqabchULOu9XW1/dfd7vOhy2oS0IzW2/u0RCChbvTuf7tef+u4133xzOV48YxT7ILEbf8ONCwXzt/szxDM/8nPgnUAoFrPqtbNFAORTy1s9try+Znc9kx77+i77dnx58Ntu+7bsvN88Jj0VyjqaVUZysC0Z1Uwd0JR9wQijSYfwNC01WCqRC8BQ1GiuaKI3p0+5QKGF0Th0+g5chszbT34oQtRR/VUMGqbKVWmeLX8msLaoU6t07/+3y8M1lWLflimgKrWFJrp1Qe19J3rVpa+e906rWsVqkUFst58ov5wc6gzjNoJAhXQupq+Rd7wcBuQBkOuFaqaAbS4cVP5oY2bRlZvKo8MTGUd/3Tu6xsn8nTCzFZefMMKvHiWs+lDFxV/MQ3LdX6ef+cWzL/7Xucqgl8Vrx5Qfz4Vb/vU4QSl1XR6aNwJqPfY9gz2fGbbFB+tIIB9qIPh6I933XfCywiA0/swFPUwHJ01yph7oajHa8qUQzCHE00/PEmhu92biajTb9W9P6f0BTAV6kTUnQ97i32yLRmOEnXQzj24ToVp7OCKawprM5cOXxT7ibKqFgEk3QY7Asn83Qfe21Mn5d8ufXcIQA4iWQApqB2art74aIHYcNT8Jhg2b/oPOUPrncZMfqGlbVAE/7oAVCEiKUCLqlLbuGmkKILCiszytobX7/K97zf9velgb4NEG3aakfDe77wHrcmVRTD/tp+GfrX96GVmzlFzXzIAoE6I6gzy956Xk7LXM9vwx4WLpnXfH5y/F161/cmuP38EwKl/ntuhKAPOOfIwzt5GS1M9+C3b+5vhwz4lVfRGQxYiik/Nvq5nywcdl9t9UZEPXUiZm6DvjMKEo9kOHhf204iQ9XbfUgLnpXdVuAmoXT0XjF46fNH6NYW1w5haR9w0THAV6wnzmsLay1SdylATjuaG//ZvtvTCtvrGtzcMAsiKyLCqpgATcNXtd4HYwNNZf8AEmvZX6t8v2Ok4FV7XelsdG8zF6cw9aq7rhMWCJIBhVRneuGmkJILiiszypgewfzr39XZ9mvyxSaj54jmnBfOC+nOGOhf0xsq7je3VWZgI5v/w7tAytx8zZJou2QlAvWpRcZarzjaTKX7iubetHP39woEpP64PzN8LfxFjOHr7rq9o2KyCIDCHAiv+/Pis3pF1OvTs0y71PCme+ZOJFQBW2ve3FJ8GEz5H8jDz/BHR3DrhzWL2NU7z5o4uM8AAwEZG/ayEzgaj/WYE5kPz4hTzkrmqAFbpUwx27tH1GsbUP1XMrSmsLV86fFEszZDs8Pw8EOqSVfz7v7twRpstXf2NawcAZEUwrIq0yWrVn0tTbeiptsLVa26k0CAHC1W/ulmkNwdnQ/VoWYG0AElxLtfYnMnPEbOqkt1UHqkCKEpCiplTnCZN40xy6VaL+gGqalD96ga93g0262ImAJDAvJHbx9+gdgOo2jfs6Oh+s+zK4UccMa0D8n2eGcMTMxiO3tEkFI2aDaFoH1Z7Fux+kMx7QQ5zo5v4dGyw22DYfvEEO6xmXy8FcB5Rmv2qMGEaT3aNPGZ3mLYF5kOtEvq3+t97/9rCp3PfWm/fo+M+fqmif0eHbLH7lAL6d3h9xe5bOEKIYiGqOvMr0WROyTWFtddi6p8u1QBkLh2+qK033zWFtQP2xZZyX3yXDl90+Exto6//97dWi6kOzYqtkDTTcUrkZ2/4uxdyChJO0yHTbAgVESnaKsiSiKS9y/rLED/+LK/41MdWlP/npwcgpjpVgLR7OX/hzv+LOP8yq1gWkSKA0olrPuGcvIYf+12+ezMAJxQFTDAKDapAnS70/pyp7hcUL7v1xy235fbj0uZydQW0jp+tLa4EUPKrQ93h9ObH3JFHHNFWIP673Qfs/KxiZzC139X52f27vXsH7ph+OHrny17hzCPr3IZ/O4rlf/pdz+yMein87JHq0OX2pLBfT6Zq9oBnPcgz0OcHwdHnRwH9GYhuAqdYmPYh5yxZz9V2/5/q08epjLn3gdjF9jFN9sljWLX3d6bew+M4wc2DVa5xWdeBY5dhcJQIYEYWFfto31LDzI4QiuMYrAwzKoy8HXYPZJI79/D2ydk31am8yJMAymsKa1NtzjcaPRitoXNDAFr6ytevWWmCUMlCNRlUegbzgzYZPw5EKkLrABIiJShKKlrOnnvOKAB857obLgOQhobnIHXOHWoimgOAzKc+NgaR9SKyvvyxTw6q6rAAWUBS5iaD4fXBcHzviS6AIgPRDAS12y79eAlA6cQ1nwwNi93luzfjT288I7gfOtF5TaTqVQQvu+VH427T7SccEcwr6i/FTpfgh61BqKwKJBJSavex3PdZ83R8bMHkn87t7B7uetnElaIzFYqux5Kg0njGdzI9PTx+xL5pLrcHf1n0hxpYAdjKGILGHsP2fTLZZ9vAO9ku8flBc9h6+9VvAWnV7tvm4rQpV9rwooC5/eFW1d5HBlbk6sTzvsTNCtj9Zco5NuT5AdE09GzFKACsKaxdOc2dXgWmcnTKL5oWt5m5dPiirpRpr/vq1UMC5GxlaCqoBk2Yik87ZF6c6sagglQQFIpKVYCyiJTOy76x4QCz9N3rBgVSgSDpLTP0WJjq0eHTPvWxK91u8SICJLx/JzDyD/mVYho+ZQEkQ5WiDY9vqIIUIlIz21pKJ675hLOOkWC0oWLU+x587XrzDybctttPPDK4Tr3uf7/339c9JO5JR/jpWDrm6KNXxfkYP7ogGVRxjlMx6l3m1Tv+OOXb8ILRVhWjJ7/Y+VD0alkSus06gqZe3Q5G58j8oIMIAtK5eJLMA56pG7AnGsNzPDix7xUogkOmAFaMtnXIOUvXe6V9rWfn6ONSsfv+fhkhMBdHhFQxsxWiUawY7T2bEd80ISUAq7hJm54r5DG3PnypIvhQqRfOD1gx2okddi9kkr0cjALAmsLa6ZbeT3noux1CX0W4Aid/6fBFHX1T/FLx634TJRFJtQo/xQkn3dDRuVxZREoiKL/1vJXjTidQ+s5110JswyF3GeYXEKBy2qc/drgJZFsHoxDgZTf/EADw/Vs3rhSzzKzZhpMOSO2Jr5RghvaXT/jny8dChzRuOGqHy0MVu95YnvR2bhaM3vv5Lw2ZA3JpddaUPeaYo2OvXHhkwR6NYSiaB6MK4OAphKN3e6EomgejJ3UgFP1WYklkqD7C/0b3gtE+aZK00r7Ospj9FYPeCXEJDETbPdHOzZHnhHviU+JzoyMH5f1KZvn6Dzj7/uwceDyK6O8PPObCiJBefQwZjPaei+3xXhyy6K+GnFM1FwLSkt239NrjzGC0EztsBqN2JWT849Q1hbXT/YSpeOnwRZPuVN9kXtPypcMXdeRJ+4Uvf3UApjI0J2LumxdQihN+Nq0MTfhBpl8VKiLld7x11aROHL+94XsrxQSQ/mmCnXvUvd30aZ/62BZJTBCMIghsd70pOCa6ZePGlXankfWH2zc83k0DUu/3Jdj7dsJn8qPRitFdb9g4pe294+SjoHVtCEa3fO6LVwAYbnwOmu177DFHL+3U8/7hBXtMqmLU+9trJhGO/sQNRZss58QYQtHvJPZ3bkMaAtBuBqPsFA8AGLIHPhnMnoYdVeeAhw0Z4jdbg/OqPVgs8YSn4wfl/Urm0H3xQtKM/UrNopNd74sfeAQhxjBmz4iQ2fAYMhjtzX1WLaZjhaXcnJPet+Ts12zYt5Sd84Ne3bcwGO3EDpvBqF2JiYPRZpWckzWpcLTJEPoagHbnKg359y8UvQZGWTv83AlCg20RDUcjlyuLJEoQlM9/x1umHCh869rvDIhIBUDKrRSNhKP513/qY5dDBFMJRiHStILzlo2bhuCHpMhMMSAFgKqIlACURVA+5aSTpvSY7DjlGEDrQTDqD6NXVD73xYfMtmj6nCwce8wxl3Tyub91tz2bNEWaXjD602goGlnOCdMIRW/YaT9nyH+zr6kGo4Cp/Z36uSlD0EkfdGacr3QPHuyUwTC0m5ZHnhO9eBBctN9H+XBNyhD6b27ZuIzM8eeF+1rvledI1b6+vfcAhqHj8z7YyvRQkFFxHsPZ8qHV8pieu3xf6r33rxqPI6e97XPorQ9gqpHzgzE+h/sTg1FvJWTikGRNYe2QfcFM54k4bjjaIniNbV7R/7v2yysTksgKkPMCSKfqMzIcviEc9atCAZRXn//2tnYY37z2O1cIMAwvdI1UpkJQOfNTHzscNhCVhDdk3glGI1+h30Gw642bQrf5p3NOd9vX4wd//48rnQP3dKuANOhu7/5NvBNpLyQd9zHasfxYPwzVSLVo5cov2GH04dvw1wFIHXfssV05IKp6Aek4wahC8Nodf2h6/c0v2ycIH9EYUB7/4hMTrsOtO+/nX74ONA9sMb1gtB5axsTBKEPQ2AzAhKMZ+z2F7oSlZbtP9U6m+ObfWyeLaef5kJnh9anZdeBzhCheg85r3XsPSHbh9ezt9yv2i8FSeyfgGedx7Mb7dyXy/l0Bw2yiufj+kInsXzp+uuu8L3j7F+5bCACD0WAlZHLVY22Go2UA2WYVoE2G0Lc9r2jh819cLiI5O49nUkSQ8Cssg3DUu//hJkpmnk0RKb139btiO6D8xrc3DAGoNGu2ZNehBkHmzE99bIsfjIoAifGD0dDv7R3c9QYTjr54zmm2EjVakmm+/eCSfxwAkBGRdLCDdgJSe9kmVaRumFwOdrBSPuWkE/3HeLxgdHPhC5fBDJMJ3575V/n4447taon7Q7vtOWEwqgBe1yQcHS8YPa5FKDqyy+KG26q3qgxtIxith5bRfCg9g9AZOdlKIgjF3BPmZIsDpKr9iu5X3b9VeRI8K3kBegpBFUEmchn3b50IUzJgOErU7dd6dH+fbnGMXR7n/cD7Gxujdcdy53GLPn6t9tN8/yaiyZwbpJx9SmYS+5YaQkVGgP13zflbjcd3NBEGo95KyOSH1bYZjlYQ6VbfZAj9lJs2ef7lyquGRCQHIJvwmii5Q9X94fEShKPmh4oXhF743vd07MDymm9t2AwgLU7Q6FaNQmT4DZ/2utAngIQTeI4bjiIIP93K0Rs24sWzTwv/PfTAN3tVAD/88MeWA5KG8wl54zD7YAHu7+yPVfNYSxlA5ZiPDo+oNg6j/+kVa+32kGbPw9wJxx/X9c6aD87fq2Uw6oWeAHCIE45W5u1j7hIag8pjXwhC0dt23TcSdGokDB1nyPw0gtHmVaeKv8Qj3PsTzW7TbYo4nhoYjhL13YkIERER0UybdcEo0HY4WoWpHN3SZAh9DUD60uGLRqewLqEJ090wNOGHiJHmRiI1gekeL5DyBy7MdfwT2qu/ce1lIsiLTRhDc5qaH8tnf/pjK7xAdP4dFdPFvUkQKqGu9E6oGKkaDSYNtb9qFo42scv3vt/wu42bRpbbJlUpmO+Z8apIvVVwnmUV+1hXbIUpAJSlSTorIrUTTzh+j5l6PTwwf69wFScaQ8hDbTC6Zd4+kSBSxm2+5Ies2iwIbT8YrSNcLQoA71QGoURzUCcaAFVhPgzj0CqiLmAwSkRERDRLg1Gg7XC0hqCL87Dz+9ylwxetn8RtD8IEoTk0GXLaLBwVkTLETCx88Qf+uqsVMf91zbcHYYbQJ4Ph+qE5TWsCpM/+9MdGIYL5d93rX3fHyUcBGGdOUbdq1E4V0BiKRsJR7zJNNAtFWyn/4AeDCObIS9oq05T9Gi8kbfF7f/0KJ514wiUz+Zq4f95e4wajQGTYfI8EowrgrXUGoUR9YMC+B6djXm7F7tMZjhJ1GINRIiIiolkcjAJth6NRpUuHL1o1zm0NwAShucmcCIqINzy+/Pcfet+MdnD8z//+1ibYCstokydbPZo991P/uMELNOfffV/DMnaccsz44ShaVI2OF476l5laIDqRHZnjccc//fMgTAVvCs48WvbmMs4KRB43QCCpk048YcbnWfrtvL0jw9GldSg5bjDaGF7GGYyuYhBK1K8GYYLMZMzLrYDhKFHHMRglIiIimuXBKOAHlmW0V7VSA5CKNmayy846X+Op2vUow4SsPXFC97Wrv7laRIrNmy0BgJTe+MmPrkIi4Q+RbxaMenZkjoVfcTrRXKPmhhAKR0PfBLtcd0us9/eFFccHTZbsl6rizk9fMQQTamdtWOo8/0L/Kp9y0okreuUF+ut5e08hGJUWTZCkyXyfUwhGnXAVAM6tP8o9JxF54vyA0lUBw1GijmIwSkRERATsPNvvwKXDF42tKazNACigvWYQaQAjUwxDS/aEsHzp8EU91zDiq/95zYDWtQCbTULEpFw+qYpozo/AFJj/k5+Nu8x55TuxI3N8iyNsQL0MVDW4PYH9g71te6HYQ9FTTwgd5N/+T2tMGCrICjQVnAhEr+kOrddirzx+v7Gh6MRnNq1OeMJzfU5nOQLgDfXHuKckola2wExJE/e+M23fXzNgOEpERERERB0y6ytGXWsKay8DkG9jEd5JWCsVBBWhI73+4H7l69dcC1MhGTSBCpotQUTSKz/5P7aYhksJiAjm3/PzSS37hRXHewtpPaTe+3vk+67Xb4z9vr5w6gmAKm77X//brwwFkAo61wMQlEWkqKrDIpJ2noHeD7XMKSfPWNOl8TrSN/57/GH09fGW06oLvZrtcPpLDEKJaMouhvmAMm4VMBwl6ghWjBIRERHNsWAUANYU1i6HqeRMxrC4KmwQClMVOmtOzIpfvXq5meMUCLrQSzCEXiSf/cQ/XC62Cz0kgd0qv5zSbezIHA9JwBkuHw5ERRobLX1/+B9xzllnxHpfb9m4cSUgWZgwNCmNz60yIPlTVywf2bhpZBBA1VvlyPMvnznllMu7+TiN7rZn4zyekwxG/eHx6oWhk2u85P4eADJ/epx7QiKKwzq0N3KjlTKAFdy8RPFiMEpEREQ0B4NRwJ8btITxqz8nMm4zpp4+M/3q1QMAKmKaD4W2sa0eLa/6p/9vBRImFPXC0d0qv5rU8ncsP9Z74JxGTEDTcNS7nPN91xvLbd2/m265dQBANiGStY9xslnXeQGKIpI//mMfHp3/458CADZuKtuqpsbO9JKQVOaUUzradOnRBckgqIw2RmoRjDZtqhSpGJ1sMAoITnqRQSgRdcy1mHgamukoAriAm5coPgxGiYiIiObAHKPN2MrOFW0Orc+uKazdDCDXi/OHjqder+dFJBWdU9T+swZo1h4Rm7RMdNITUe44+Shn3lD3LxJejr0xf2pRZ11uvPkWnHXG6VO6TzfefMugPdnOal0zENNZPWh2HwyHF9ECIMUTPv6RUQDwQlF7EpDzVi/4HQBIcUWHQtHf7T4QGrYe2maIhpiNX5M6uRnnbye8+Dvu6YioW3JovyFiq+UCDEeJiIiIiChGc7Ji1LWmsHYIptKknZO0AoD8bBhK/8V1XxsSkYo3r6hfKRps58yb/+kfRpAQSCJhEsKEYMF9v51w2dtPOBJIwFSYNhs236py1PsVnHlGb5p4itbrbrx5SAQ5ABnxHz9pfL6YuVMrAhRO+aePrjed6OummdRtQSh6y8ZNgzDTI0Aan4OZU1dkYpk39g8LFwFetadGqkHhVHCqNO383lBJisl0pA9+d/QLT3DPRkQzacDua5MdWHYRDEeJYsGKUSIiIqI5WjHqstWeh7dZPToMU0E6fOnwRRt6+yAXRa9+UFWDcNRUbObfkv//RpAQ0xm+aeVno+3HpW3IadrOqz87Jexy4fxOGitQncuY22t9g9+7/saVALIQyapqMhRhmnb39vr+1ABFKIrLP/mPIyZRVHOgHwlF7dbJ+j8FCwSAymlthqJPLVw0yWpPcVegyQM49dsWCI5kGEpEvWMMZpqTMuIPR3P2O8NRIiIiIiJq25yvGHXZ6tEC2pt7tAxguBeH13/hy1+9DEDeb7AEf05RiEj5bZd9xMwr6jVcslWjC37xQNPlXfOtDXjjZ/4nkEg0dJ+XJt3og78BftWo93v3O4CXff+HAIAN37t+UOxcoeLMS9escVMwTyqqAAoCFFd8+uOmitcNRaGY/6OfNtyfm2+99SGBpILlBSfap5966vqpbu/awCJzm4hWhEarP92/T21+0VaNl5bt+D33XkTU61bCzPfdCUUwHCVqCytGiYiIiPosGPWsKay9GKZ6NNnmSVn+0uGLRnvhgbzqS1+x3dajzZYAEamKSPrtl106ZgLRIByVhGDBLx/0l/Pf37zWv/4bP/2xpqHopMJR7+fQd/N/N/zdR4cA5CDIAEiLnSjUvY40e26IFEWkeNpnLhsJKkcRDkVVm1SKAjd+/5YhAGaKgfCyq68/7dSlk9nG216xN1CvQ+t1oK7Qet27aT+4BJwg0xvirhL+PYIgtI7g+v5dQdB1Hs51XrfjD9xjEdFss9q+X3ZCAcAl3MRE08NglIiIiKhPg1HA71xfQDAsr50Tsxmff/Tf/6O4SUQy4e7zgJmTE+l3/K9Lt4itEnWD0d1/UwUA/Nc13/Yfhzd96qM24ExAEtIyGG0MSM3tzRu5Ey+sOB7egPfv/d1HBwBkbGVoFiJJcR93/1vwb2du1AqAgoiUzj37rLEdmeO8o/lQMDpeKAoAN958yxUwUyJEbyN/5umnXd5quz6zZF8ThqqaCUPrdehLdRuQaos5QVtVi8JpwjT+/KIA8Oodf+QeiojmgnUxvNe2kgOwnpuYaOoYjBIRERH1cTDqWVNYOwhTzZJpc1FFzFAF6b99Yd1qgRRDgWLQeCn3ro9/ZL07dB4J8YPR73zys6HrvOmf/sFvyDTZYDRaPTpv5E5849sb/C7yIpKRZo+3rd4Uic4jiqpAipKQ4pvOeYO/PXdkjg3m4HSC0YlCUQC44aabHwIkFXmu1SQhqTNPPy0Uaj+7dEljGOpUieIlG4ra5LPlsPcpDqP/i+1Pco9ERHMVw1GiHsNglIiIiIjBqG9NYe1ymOH1mTYXVQRQ6NYcpJ+/at0AgKoASb/zu/jBaPH9f/2XF2xb/HIbiNqg04aeG/53wQ8mRQRvzH/EhKFOMAqRSDia8FrcR76ADRf/z5UiyACSFTFzeYZH0bcYJm8C0qqIlCAoZt94TsO227H8WO8oPviuaho6NW20FLj+ppuHYCpPnVZOAgDFN5z5+gsA4NmDUoDWgyBUzXc/DHUD0pfsMHqM00E+EooCzbvRp55/inshIuoHAzBzdKc7tPwcGI4STQmDUSIiIqI+6Eo/WZcOXzQCYEUMAWkOQG5NYW0ZQPHS4Ys6eqL2Uv2lQkISSa/zO0QhpnN8BcDwtn32DqorVU0jegW8Adsigjd+/MMmJ0wkYHvH28vUAST85vXm/+vw/vXtSz4+KGY7ZUUkA7+LvBf7+RFouBu9F4iqVgGUBCiuyr6xZZC8Y/mx4UAUQZUoMH4oaq+S83/2b14hQP7Zg5eGto//VW/8nYYaPNmFIRrqNw/53S71r2QYSkT9x+tUXwGQ6sDyi/Y7w1EiIiIiIpo0Voy2EGMFadWesBXjHmZ/5b99aTkEZW8bCmwHeqAmIul3f+ySUVP9mYgMoxd8d83nTSj60WG/Q31o6HzCGx5vr2srRb/54cuGAGRFElkI0tKiCtRt/mTnOfUuVRFBUUTK5xY+teXuT38WJ5944rj3c8fJR/s/a2huUWD+j3864Xb63g03PQ2n0ZZdt+Ly4fdfEFSJql8xGqoQtSHpoif+6E0NkEG4aVfVnuiX/rBw0WioWhSmOnS/52rc0xARGUMwlaPJDi0/B4ajRJPCilEiIiIiVoy2FKkgzWH6c6OlYALW/JrC2hKAUlxVpKpaBMzwebX/JZAARDK77TZvFPU6NJGA1E3Jp6pC6vBDzzf+w4dM8KkA1FZ6Oq3VFYJvXJofgA0ERSQr6p3M1s11BMHQerNS0dWs2ZPgkoiU3lT45BimEITvOPkoO2QeDVWj8398z4TX/+51N6zUej3phu92KUVnvHvkC3517aLH/xANyKv2y5Oxz43Cy5/ZVgaQf2LhwMi+z4zxRURE1GiLfU8pd2j5Rfud4SgREREREU2IFaOTZJs0DcOEYMk2F1cDUEIbc5H+6//9wmUJkXyoQtP8mFu4+4L1533oQpM/huYWtd932smMbneaMPnfE4Kr/8cnh+AFobbT/cQVoeJ2ei8LUBaR0jvfdt4WANh+0pFw+s77Hex/8pkrcdKJJzS9j9tPOjIIaoFQ6DpRKPr84a8DtI5bPnXFOgC5SPOncuaSi1YEQ+YbK0RRr2PhY7+/DCYUrQEoACjWFi0c9bJULBoAzjwTe/6/L3vPjWF7E3kAl3P3QkTU0moEIWbcajAfWm3hZiZqjRWjRERERAxGp2xNYa1XQTmMeJpIVBGEpJMaav8vV141KCIVAElxO7sLigt3X3BBIpFA9oN/Y4bVh7rRBwGpN6ReEgl8/eOfGYANQs13pKLd7ScYMl8RQVkkUQZQPv+db2kol9x+4pHhaUcdlX/9Nxx/3HHNL49wlSgAzL99c9Ptsv3IQ/xO8VDF9z/xrwMAqhCEKkYFyKy45KIRfx7Ret1UiDpD6Bc+9nuvg3IJQG5sj4ExrdfNst/7Xsjb3gY55JDQ7S9aNDBoL5+2J/wXcBdDRNSS9+FTJ9TAcJRoXAxGiYiIiBiMtmVNYe0QgmH2yRgWWYEJ1ErjhaRrCmuvtSGmv+0SIuVFi3ZfkRDByg++D34BaUKCalFJADuZ6tCv5f95UBKShdc4CeGwM2gY3zQgrdiK0DKA8urz3z6pcePbjz8cfiMm905/di2OP+7Y4HInHBEeku+GondUGpd75CF26H94SPzNn/ysX5Hk16oKKqf9/QcOj1aLqhOSLnz0Ce9kvTi29x4XoF7HwFNjrV4oJQDFbdvGNgDAokUDbuflPFg5SkQ0Hu9DqE6ogeEoUUsMRomIiIgYjMZmTWHtSntyl41pkRU0CUntnKdld9uJSEVEMsmBhWMrP3ihjQDVD0e9pktf+dRnV5qh8cgCSAlCw9/DlaFB06QagIqIlEWk/M5/yY8gIdhty6+nfIe2H5eOPvAAgC2Fq3Dcscc2v4z//BTMv7MSLOuoQ/2KUm06T6ji5k9dcW3o8bBTDZz+9x9YHwpF3eHzjz4xZLd9edvL91wBBRb98SlzQ+PLb9s2djnQEI6mAIxyV0NE1NJmxDMCo5kaGI4SNcVglIiIiIjBaOycofbeVxwqMCFpGWauy4x70icimT33GNgiInjjB97n90P6yv/+10FveDwEWbdzvdnudvs7AamIVGGqQSsiUn7XP398ixmmH3SrX3Dfb6d1J7YfO9T09/d+7osABMcec3RwGf9pacbfz79rC7YftQxBgygnEI1UiqoCN33iXwdh7os7/L96+oc/sLRxCL1TLfrY7zfZE/Q0woGmt0aZbdvGRgB/6HzReTyS27aNjdm/eQF2ERxST0Q0HvfDpE6ogeEoUQMGo0RERETsSh+7S4cvGoPphrs+xpA0DROINuOHoud+4H0ofvKfbVWoZEU15V3I7Vxv41HYitCyQiuiUoagfP4nPzqGRMIPQSFiGtbb/kwL7rt/2ndi/p1bsP3oZf4auZ2YBMD2Yw4zlZvR4kytY/uRh5oKT+9A3pt/tKGTvLm+qmahChHxl6ZAPtRsybu8KhY+8jsAGLQnz0VMospz27ax0UWLBnIIutSnAYzYn0fsiX4OZj5atqknImpuzO4ry4hnWpqopF12BgxHiYiIiIjIwWC0gzoUkkaVnnyqVgaQLH7i/2QFQQWA1+tIRABVCKQKoKLQMgSVD73/r0bcBT1zwGIThtbr9nvCLCBh/r7gFw+2v7bqxJT2RwGw7AORospQ4yVv/lB3GU4giiDg9ANSb866oBqieuaHP7geWvfD1N1HH4uuXcZ+L07hHtXG+VvRLjONIDAlIqJGW+z+stKh5SedfTI/qCIiIiIiIgAMRrvGDUkBf07SrD1JS7Wx6BScxhVNhkUVYRslrf7oJaOyUwIDTzeeEz6z3z52WLmpDEUdQKIOwASku99fjWU7aN0s0ykWxbL350w6GuSgcINTd/h86LtqEJg6Q+mv/9QVQ1BNm+X7t5SHKnZ/8JGJtiUwtRBz2H6vNTmh9/6dAYNRIqKJbLHvZ8UOLT+NoHKU4SgREREREXGO0V5gu9tn7Ve6A9u2aucMrQAoJ0Qqw3/7N/5J4bZX7G2614vpXu8No/fmFt39oUdiW5/n06+1K9awpogkowgFof43O7cowhWi5u+mcvT6TxWugA0s7VOr+tbzVi6dxOp584vu0eRv3loVYYbOJxFUgwJAbtu2sfXehRctGnCvlwe70xMRTdbFaD19TBwqYDhKxDlGiYiIiMCK0Z6QSCS2iMiWhMjlf/rzn70h9xn7PdnuQa+IpNTMN5oFTDHoFZ/7j6oNSivrRMoQVC/4xEdHJTKMfvetj8Z9GO4MgfeIXavwxYLLR6tIG0NRDc0zWs8FyxXABJOTVZ3g77nIv0swHek5bx0RUTyuhPnQKdeh5afBylEiIiIiIgIrRmfcv1x5FUQECdMRHmIrNROSgAjw/PYdQ/bkzftKtrudxbst849gHlKgBkEFgFddWv27i94b2xDw5w49yOaUgvEe8XGH0nvfbPd57L476ktfhcS9W7D7rx/Cf13z7dUiUnQWV33HW1ctneQqrrMn4tJytUwlahUmbE3DVh553eg9tmJ0AGaIfR6sGCUimqpNCOZ+7oQKGI5SH2PFKBERERGD0RmzprAWAJBIJBqCUf9n++VdRgSojT0zBBPIZez39HS2dygkRTg0NT84l4VUREzjJjHBafWDF14w6QrJ5173F84yw8tvfqTu/KChI3j/QL5+9rl46ZQM9JSMe8dw482bNgHIOM+p3Dvfdt76Sa7qZTAhZgqNXem9NcnAzBc6gGBIfWlsrLYq+lxetGhgOYLO9Ou5uyEimpIBuw9Nd/A2KmA4Sn2KwSgRERERg9EZ4YWibvCZEAEESEiioXrUXCYckp7+/ovMMgD816c+vRzhoDQ12W0+xYDU+bs5oRRIFRJUmF70N6u3AMCzBy91ri9oeIjHe8zd56TXkR6AvnIQL51+JupvfyewcGHD1W74fnkQdii8XXr1XW9/89IpPDQrYYbG59AYZIaC0bGxGgYGkqsRNAnJjI3VRtztu2jRgDfXaQqNQSsREU1sECa8THbwNkoAVnFTU79hMEpERETEYLSrvEDUu8/jDaEPqkQFF773PfhS8et+MHrqhR+AQBFkl+rPpvnD9euw9ZHfDSAISdMwwVxmvG3fZkBqBseLf/kKbMMnmGH5tXf/88dHJlUt6h+tm2/1g17tV4di8X7Ya6+98OSTT4Zu23P9TZuugHhNlwQAcu9++5unWqn5NMzw96XN1ygUjDatGgXg/q0CYAV3NURE0zYEUzma7OBtFAFcwE1N/YTBKBERERGD0a5xQ1HvPnuVomKrRXdywlARwUV/szp0nXVfvRoCIHPhB2wQasJRs/UUS56rNb3tazd8Dyed/24UP/GZIZiQNI0gME27j0FsASkkdFn7vYogMK3CDM2vvvN//89QNaXuuxgvnZLBS29/J7B4v9Dt7rXX3gCAp556suF+XnfjrU+bE2eBiFTPPuvUpXvusedUHypvOP0wTAMQf7Xs9wxsMAoAAwNJ7/IAkBobq43a33vVohmYofdERDR9K9HZIfWACUdZ3U99g8EoEREREYPRrmgWivrVoqFK0eB30VDU89BuJugT/ysIR5c893TT6zyxcMC/rHtd7+cvf+L/DAFIikgGQEpEUvYENNlWQGov1yx0jT723tylMBWmVe/nVeeeGcz7JkEw6vEC0u9ef0uo6ZIIcue84fT1ADDFcHQAwbDNDABvLtVWwajXYAkAimNjtQucIfYlcHgm8cSaiIiIiIiIqCcxGO2waCgKtGq4ZIbQiwg+8L5c02U9OH8vwAlC/XBTFLev/394+1saM7jf7T5gLxNUlgahKrDXM9sAADfdcqtdH8DEmoLKz349ICJpACkJAtMUgLSIJM2Cg8cwFJC6fwsPs28VjPpXcJ8O9u9l7zuAWiKRqACoXfCed2wBTDj6neu+v9muKwBU33j26UvdhQmAPSYfkHrDNgEgC1Pxudz+uwJgzAtGAWBgIDmEYIhnCiYUrYANPagPMBglIiIiIiKi2YrBaAc1C0W9alFv2Hy04dIHLsw1Xdb98/dyqjzD4egdX/myv9y3nrfSv85jC5IQcapEI+Hoy20o2sqm8ggkITg8+ybzi4Q37N98rftfnzGBoJjqUtjAVCBpCJKCKQ2zb/p8EEHLv9v7XIMNIZ1nUeZN57x+pGEhmFL1qDunXR5AAU7I6QajADAwkBy0l8mCoSj1EQajRERERERENFsxGO2Qz37sU3jp5Xs23M/xGi598MLWfR9+O2+vxnBTgDvXfznUtV4AHHv+6vCw+Sbh6D7PTJzZ1RYt9FYckhBnAV5lqIQXKuIMtRes//hnBgGkRExoahebFkjS3olMq8Cz2XOjSSVpaLvan8srz3n9iiZPsuBHTLp6dBCm+jMDM1y+BBOWVp3LpGDC0Kz9d35srHY5AAwMJLmHoTmPwSgRERERERHNVgxGO6CIA7DtXefihWMOa7ifrRoujReK/mbe3pGg03y/6ytfsjml7WQvgmPOXx1crkU4uu+z44eiTy1cBK+q1CnubBqQmkZH7r+dlXQfWxE8cN3N3o9mOXbJt91xzwBMtal3S5nI8yLTJCBNItw4yhtuP/ze1e/a0qw50zTDUcAMo8/Z9Uo1+XsFJjAteM2XAAaj1B8YjBIREREREdFsxWC0A4o4AGPvfTNeXHZw6D62arj0t+9vHYr+at7eoUZLZlnm33+x/Ulc860N/tykR787Z8NMdeYgdeYUFWDxs7Wmt/OHhYtCDZkQuX5DQCqN1aLNQtJFT/wRAFCpbAnW3QlFgzlJvXlIgX322Sdo3hSx9957T+mxaAhII+EoMKWA1OPNN1obq9W2hJcf/MhglPoBg1EiIiIiIiKarYQntURERERERERERNRvEtwERERERERERERE1G8YjBIREREREREREVHfYTBKREREREREREREfYfBKBEREREREREREfUdBqNERERERERERETUdxiMEhERERERERERUd9hMEpERERERERERER9h8EoERERERERERER9R0Go0RERERERERERNR3GIwSERERERERERFR32EwSkRERERERERERH2HwSgRERERERERERH1HQajRERERERERERE1HcYjBIREREREREREVHfYTBKREREREREREREfYfBKBEREREREREREfUdBqNERERERERERETUdxiMEhERERERERERUd9hMEpERERERERERER9h8EoERERERERERER9R0Go0RERERERERERNR3GIwSERERERERERFR32EwSkRERERERERERH2HwSgRERERERERERH1HQajRERERERERERE1HcYjBIREREREREREVHfYTBKREREREREREREfYfBKBEREREREREREfUdBqNERERERERERETUdxiMEhERERERERERUd9hMEpERERERERERER9h8EoERERERERERER9R0Go0RERERERERERNR3GIwSERERERERERFR32EwSkRERERERERERH2HwSgRERERERERERH1HQajRERERERERERE1HcYjBIREREREREREVHfYTBKREREREREREREfYfBKBEREREREREREfUdBqNERERERERERETUdxiMEhERERERERERUd9hMEpERERERERERER9h8EoERERERERERER9R0Go0RERERERERERNR3GIwSERERERERERFR32EwSkRERERERERERH2HwSgRERERERERERH1HQajRERERERERERE1HcYjBIREREREREREVHfYTBKREREREREREREfYfBKBEREREREREREfUdBqNERERERERERETUdxiMEhERERERERERUd9hMEpERERERERERER9h8EoERERERERERER9R0Go0RERERERERERNR3GIwSERERERERERFR32EwSkRERERERERERH2HwSgRERERERERERH1HQajRERERERERERE1HcYjBIREREREREREVHfYTBKREREREREREREfYfBKBEREREREREREfUdBqNERERERERERETUdxiMEhERERERERERUd9hMEpERERERERERER9h8EoERERERERERER9R0Go0RERERERERERNR3GIwSERERERERERFR32EwSkRERERERERERH2HwSgRERERERERERH1HQajRERERERERERE1HcYjBIREREREREREVHfYTBKREREREREREREfYfBKBEREREREREREfUdBqNERERERERERETUdxiMEhERERERERERUd9hMEpERERERERERER9h8EoERERERERERER9R0Go0RERERERERERNR3GIwSERERERERERFR32EwSkRERERERERERH2HwSgRERERERERERH1HQajRERERERERERE1HcYjBIREREREREREVHfYTBKREREREREREREfYfBKBEREREREREREfUdBqNERERERERERETUdxiMEhERERERERERUd9hMEpERERERERERER9h8EoERERERERERER9R0Go0RERERERERERNR3GIwSERERERERERFR32EwSkRERERERERERH2HwSgRERERERERERH1HQajRERERERERERE1HcYjBIREREREREREVHfYTBKREREREREREREfYfBKBEREREREREREfUdBqNERERERERERETUdxiMEhERERERERERUd9hMEpERERERERERER9h8EoERERERERERER9R0Go0RERERERERERNR3GIwSERERERERERFR32EwSkRERERERERERH2HwSgRERERERERERH1HQajRERERERERERE1HcYjBIREREREREREVHfYTBKREREREREREREfYfBKBEREREREREREfUdBqNERERERERERETUdxiMEhERERERERERUd9hMEpERERERERERER9h8EoERERERERERER9R0Go0RERERERERERNR3GIwSERERERERERFR32EwSkRERERERERERH2HwSgRERERERERERH1HQajRERERERERERE1HcYjBIREREREREREVHfYTBKREREREREREREfYfBKBEREREREREREfUdBqNERERERERERETUdxiMEhERERERERERUd9hMEpERERERERERER9h8EoERERERERERER9R0Go0RERERERERERNR3GIwSERERERERERFR32EwSkRERERERERERH2HwSgRERERERERERH1HQajRERERERERERE1HcYjBIREREREREREVHfYTBKREREREREREREfYfBKBEREREREREREfUdBqNERERERERERETUd/7/AQDPIqTDwVpxggAAAABJRU5ErkJggg==;" parent="1" vertex="1">
          <mxGeometry x="400" y="180" width="120" height="53.33" as="geometry" />
        </mxCell>
      </root>
    </mxGraphModel>
  </diagram>
</mxfile>
